<svg id="Слой_2" data-name="Слой 2" xmlns="http://www.w3.org/2000/svg" viewBox="0 0 1078.13 691.06"><defs><style>.cls-1{fill:#ebf2f9;}.cls-2{fill:#d2e4ff;}.cls-3{fill:#e27f2b;}.cls-4{fill:#e69d43;}.cls-5,.cls-6{fill:#aed3ff;}.cls-5{opacity:0.5;}.cls-7{fill:#283250;}.cls-8{fill:#233862;}.cls-9{fill:#d9935c;}.cls-10{fill:#cb7d45;}.cls-11{fill:#2b478b;}.cls-12{fill:#b64c41;}.cls-13{fill:#9ed9f0;}.cls-14{fill:#ffa412;}.cls-15{fill:#739af0;}.cls-16{fill:#4a75cb;}.cls-17{fill:#f1a34f;}.cls-18{fill:#74acbe;}.cls-19{fill:#e9f3fe;}.cls-20{fill:#bed4f4;}.cls-21{fill:#afcdfb;}</style></defs><path class="cls-1" d="M952.86,739.33s106.7-2.53,152.29-67.07c82.6-116.91,45.38-219.43-101.67-211.8C839,469,859.26,106.59,574.43,281.07,512.57,319,374.92,239.39,319.92,405.17,306.84,444.59,208.63,447.34,145.16,479c-99.57,49.59-71.45,261.2,22.61,262S952.86,739.33,952.86,739.33Z" transform="translate(-79.15 -51.04)"/><path class="cls-2" d="M452.77,196.28h-5.11V149.7l-1.6-.14V131.05h0l.46-1.53L223.2,62.39,130,125.15l.9,1.33a5.51,5.51,0,0,0-5.5,5.49v32a5.5,5.5,0,0,0,5.5,5.48h46.72a5.5,5.5,0,0,0,5.5-5.48v-12.8h31.15V740h36.65V151.17H401.65l42,45.11h-8.62a5.5,5.5,0,0,0-5.5,5.48v5.49a5.51,5.51,0,0,0,5.5,5.48h17.71a5.51,5.51,0,0,0,5.5-5.48v-5.49A5.51,5.51,0,0,0,452.77,196.28Zm-229-130.39L440.5,131.05H183a5.51,5.51,0,0,0-5.42-4.57H133.73Zm204.13,85.28,16.59,1.46v39.78L406,151.17Z" transform="translate(-79.15 -51.04)"/><path class="cls-3" d="M368.88,739.9H207.64c7.77-5.72,35.64-25.66,60.88-36.43,10.46-4.46,20.46-7.35,28.4-7C322.1,697.6,357.39,729,368.88,739.9Z" transform="translate(-79.15 -51.04)"/><path class="cls-4" d="M317.63,739.9H156.39c11-8.09,62.18-44.63,89.28-43.42,7.07.32,14.93,3,22.85,7C288.79,713.63,309.36,732.08,317.63,739.9Z" transform="translate(-79.15 -51.04)"/><path class="cls-1" d="M1097.71,229.91h0l.62-.91L1034.38,186,881.19,232l.31,1.05h0v12.7l-1.1.09v32h-3.5a3.78,3.78,0,0,0-3.77,3.76v3.77a3.78,3.78,0,0,0,3.77,3.76h12.15a3.78,3.78,0,0,0,3.77-3.76v-3.77a3.77,3.77,0,0,0-3.77-3.76h-5.91L912,246.85h103.41v403.9h25.14V246.85h21.37v8.78a3.77,3.77,0,0,0,3.77,3.76h32a3.78,3.78,0,0,0,3.77-3.76V233.68A3.79,3.79,0,0,0,1097.71,229.91ZM1034,188.35l61.73,41.56h-30.08a3.8,3.8,0,0,0-3.72,3.14H885.32ZM882.6,275.14V247.85l11.39-1h15Z" transform="translate(-79.15 -51.04)"/><rect class="cls-2" x="503.81" y="32.72" width="211.5" height="656.78"/><rect class="cls-5" x="503.81" y="123.34" width="153.08" height="96.22"/><rect class="cls-5" x="503.81" y="299.53" width="153.08" height="96.22"/><rect class="cls-5" x="503.81" y="473.45" width="153.08" height="96.22"/><polygon class="cls-6" points="978.97 569.05 950.42 569.05 950.42 480.08 715.31 480.08 715.31 32.72 656.89 32.72 656.89 689.87 715.31 689.87 715.31 689.5 950.42 689.5 950.42 689.5 978.97 689.5 978.97 569.05"/><path class="cls-7" d="M1156.23,742.1H80.21A1.07,1.07,0,0,1,79.15,741h0a1.06,1.06,0,0,1,1.06-1h1076a1.06,1.06,0,0,1,1.06,1h0A1.07,1.07,0,0,1,1156.23,742.1Z" transform="translate(-79.15 -51.04)"/><path class="cls-8" d="M838.18,740s.42-9.09,2.86-14,22-1.53,22-1.53,4.51,8.14,3.89,15.45Z" transform="translate(-79.15 -51.04)"/><path class="cls-8" d="M785.72,740s.42-9.09,2.87-14,22-1.53,22-1.53,4.5,8.14,3.89,15.45Z" transform="translate(-79.15 -51.04)"/><path class="cls-9" d="M850.84,354.19c-2.44,1.76-24.54,13.27-24.54,13.27L803,350.88s7.08-1,7.26-1.08c2.11-.59,2-6.22,2.28-12.21,0-.92.09-1.85.16-2.78l22.82-.83v.29c0,.29.05.59.07.9l0,.65c0,.23,0,.45.05.68.42,5.27,1.3,12.71,3,13.58C839.63,350.57,846.13,350.49,850.84,354.19Z" transform="translate(-79.15 -51.04)"/><path class="cls-10" d="M835.69,336.5c-1.88,3.76-6.07,10.3-12.29,10.09-5.93-.21-9.31-5.6-10.86-9,0-.92.09-1.85.16-2.78l22.82-.83v.29l.07.9,0,.65C835.66,336.05,835.68,336.27,835.69,336.5Z" transform="translate(-79.15 -51.04)"/><path class="cls-11" d="M810,284s11-10.94,24,.22C834,284.26,826.25,282.66,810,284Z" transform="translate(-79.15 -51.04)"/><path class="cls-12" d="M805.9,324.27a93.63,93.63,0,0,1-5.64-15.58c-1.53-6-.13-28.72,22.76-27.17a30.85,30.85,0,0,1,13.13,3.86c5.17,2.94,12.8,9.57,6.34,29.79L840.93,322Z" transform="translate(-79.15 -51.04)"/><path class="cls-9" d="M837.93,333.82c-5.92,5.64-13.26,13.15-29.08-.74-3.1-2.72-2.89-6.9-3.07-12.91-.22-7.1-1.93-11.45-1.14-15.55,1-4.9,5.15-7.11,13.86-7.87,16-1.39,24.09,2.21,23,10.14C839.12,324.57,843.94,328.08,837.93,333.82Z" transform="translate(-79.15 -51.04)"/><path class="cls-12" d="M824.88,296.46s9.49-.2,11.66,3,2.46,6.71,3.55,8.49a6.84,6.84,0,0,1,.92,3.79l2.1-14.13L830.27,295Z" transform="translate(-79.15 -51.04)"/><path class="cls-13" d="M880.21,374.4s-4.05,11.91-20.47,14.09l-1.37.16H791.49l-.36-.11c-2.6-.82-18.58-6.29-20.26-16.51,0,0,8.4-17.21,14.82-19.35a41,41,0,0,1,7.18-1.44c2.78-.36,5.7-.6,8.16-.75,3.38-.21,5.86-.27,5.86-.27a20.17,20.17,0,0,0,17.89,10.39c12.67-.16,15.61-10.23,15.61-10.23s3.56.1,8.29.61c2.6.28,5.56.68,8.48,1.26,5,1,9.76,2.47,12.51,4.7C877,362.89,880.21,374.4,880.21,374.4Z" transform="translate(-79.15 -51.04)"/><path class="cls-11" d="M864.3,466.54c-.71-4-1.77-10-2.6-15.23,0-.08,2.48-29.83,3.39-34.85s-5.31-32.39-5.31-32.39c-1.44-4.19-3.9-5.47-5.78-5.47l3.16-26.35c-2.92-.58-5.88-1-8.48-1.26l-1.52,27.61,0,.4c-3.47.19-7.79.42-11.82.6s-7.76.32-10.05.32c-4.67,0-15.38-.54-22.5-.93l0-.39L801,350.49c-2.46.15-5.38.39-8.16.75l3,27.36h0c-2,0-4.28,3.53-4.6,5.49l-.31,8.57c-1.5,4.3-4.62,13.88-5.14,20.6-.69,8.88,3,39.79,3.06,40-.14,3.68-.4,8.39-.9,12.95-2.8,7.55-14.72,42.7-13.51,89.95,1.14,44.11,1.8,119.48,7,156.08a100.75,100.75,0,0,0,2.92,14.45,4.88,4.88,0,0,0,4,3.39c6,.83,19.44,2.35,25.23.25,2.78-1,4.77-16.39,6.17-36.23,1.35-19,2.16-42.12,2.61-60.56h0c.36-14.7.5-26.43.5-30.78,0-9.83,2.32-38.66,3.09-55.63a.38.38,0,0,1,.76,0h0c1.17,20.14,5.24,50.68,5.31,57.46.15,16.46-.81,122.2,6.4,125.75,5.51,2.72,18.5.66,24.7-.18a5.68,5.68,0,0,0,4.72-4.07c7.75-26.6,8.44-119.05,9.75-169.92C878.87,509.57,867.3,474.75,864.3,466.54Z" transform="translate(-79.15 -51.04)"/><path class="cls-9" d="M803.55,485.57c-2.29,1.83-9.77,1.06-12.67-1.37s-8.7-1.68-10.08-2.6c-.09-.06-27.1-32-30-45.44s15.74-50.9,21-61.07c3.92,8.25,17,12.71,19.29,13.45l.36.11h.72c-4.4,11.88-17.56,33.26-22.63,41.31a7,7,0,0,0-.42,6.66c6.51,13.94,12.88,25.7,15.67,33.84.56.91,1.75,2.53,3.19,2.31,2-.31,8.4-1.68,11.61,3S805.84,483.74,803.55,485.57Z" transform="translate(-79.15 -51.04)"/><path class="cls-14" d="M844.67,284.36a34.07,34.07,0,0,0-4.91-5.06c-.5-.43-1-.86-1.61-1.29-5.8-4.4-15.08-8.7-26.27-4a25.12,25.12,0,0,0-7.65,4.95c-.49.47-1,.95-1.41,1.45-9.7,10.74-8.88,27.59-8.88,27.59l56-.6C850.11,291.76,844.67,284.36,844.67,284.36Z" transform="translate(-79.15 -51.04)"/><path class="cls-3" d="M834.2,307.53c-.16-2.35-1.23-21.63,5.56-28.22a10.13,10.13,0,0,0-1-.79c-7.23,7.58-7.7,26.56-7.67,29l-17.89.19c-.53-13.68-8.1-27.3-9-28.83a12.84,12.84,0,0,0-1,1.06c1.31,2.31,6.25,15.5,6.73,27.81l-16,.17s14.91,3.84,26.14,3.7,29.84-4.3,29.84-4.3Z" transform="translate(-79.15 -51.04)"/><path class="cls-12" d="M805.67,381.48c-5.73,11-22,13-22,13,5.27-12.8-5.35-16.83-11.91-29.94s5-21.79,5-21.79c-7.18,1.37-8.55,11-8.55,11-.61-6.4,4.73-17.22,21.68-19.35,12.41-1.57,15.41-5.74,16.12-7.87.28,2.76,1,4.92,2.81,6.54,1.31,1.16,2.56,2.16,3.76,3,0,.5,0,1-.07,1.49-.08,1.69-.12,3.35-.2,4.87a8.25,8.25,0,0,0-1.78,7.21,7.58,7.58,0,0,0,.59,1.79,15.08,15.08,0,0,1,2.94,7.31C814.9,366,810,373.26,805.67,381.48Z" transform="translate(-79.15 -51.04)"/><path class="cls-8" d="M864.17,465.82l-2.47-14.51a113.47,113.47,0,0,1-33.49,6.93,8.1,8.1,0,0,0-6-4.15l-8.88-1.28A8.09,8.09,0,0,0,805,457.1a89.11,89.11,0,0,1-16.12-3.91v.07L788,466v0c5.13,1.36,10.06,2.42,14.76,3.23l-.26,1.77a8.07,8.07,0,0,0,6.81,9.17l9.84,1.48a8.09,8.09,0,0,0,9.28-7.49l.17-2.73C847.38,471.37,859.85,467.43,864.17,465.82Z" transform="translate(-79.15 -51.04)"/><path class="cls-9" d="M900.17,436.16c-2.93,13.44-29.94,45.38-30,45.44a2.79,2.79,0,0,1-1.06.35H869c-2.23.38-6.58.22-9,2.24-2.9,2.43-10.38,3.2-12.67,1.37s.76-5,4-9.76,9.62-3.35,11.6-3c1.18.17,2.21-.89,2.83-1.77l0-.05c.12-.18.23-.34.32-.49,2.73-8,8.88-19.38,15.24-32.91a8.82,8.82,0,0,0-.51-8.42c-4.24-6.77-12.86-20.84-18.41-32.12-.65-3.27-1.29-6.34-1.79-8.66,12.18-2,17.23-9.35,18.86-12.51C885.29,387,903.05,422.91,900.17,436.16Z" transform="translate(-79.15 -51.04)"/><g id="P297LW"><path class="cls-15" d="M1083,494.1c-4.08.94-22.55,1.16-35.51-1.74a40.14,40.14,0,0,1-7.21-2.25c-2.45-1.07-4.29-2.37-5.23-3.94-1.46-2.43-4.14-10.77-7.3-21.71-8.68-30.12-20.89-79.89-20.89-79.89s24.53,5,29.72,9.26,9.77,71.92,14.66,73.75c.72.27,2,.84,3.55,1.62l.23.11,3.17,1.6c10.13,5.2,26.89,14.56,28.63,16.64C1089.11,490.29,1089,492.73,1083,494.1Z" transform="translate(-79.15 -51.04)"/><path class="cls-15" d="M1035.93,423.09a19.2,19.2,0,0,0-.32-3.46c-3.16-17.33-28.26-35.06-28.75-35.06v.36c0,2.64-4.18,7.53-10.62,7.95-7.64.5-17.08-3.85-17.08-8.24,0,0-4.29.57-5.73.73-6.12.69-18.35,4-23.58,7.95-5,3.75,2.06,27.42,6.41,44.18,1.85,7.09,3.21,12.94,3,15.53-.11,1.27-1.25,18.47-2.26,34-.85,12.84-1.61,24.56-1.63,25.29-.05,1.46,7.21,6.57,19.41,10.43a95.68,95.68,0,0,0,9.68,2.5,103.14,103.14,0,0,0,21.05,2.09c2.52,0,4.9-.14,7.16-.37C1030.06,525.3,1036,505.48,1035.93,423.09Z" transform="translate(-79.15 -51.04)"/><path class="cls-9" d="M979.16,384.43a145.57,145.57,0,0,1,.88-21.55l26.9,4.39s0,8.2-.08,17.3c0,0,.73,8.43-9.68,9.66S978.88,390.94,979.16,384.43Z" transform="translate(-79.15 -51.04)"/><path class="cls-8" d="M1001.67,740c-3.38-2.07-1.39-17.47-1.39-17.47s15.85-12.56,18-2.89,15,14.05,22.26,15.26c5,.83,6.9,3.43,7.38,5.09Z" transform="translate(-79.15 -51.04)"/><path class="cls-16" d="M977,475.2c0,25.76-12.5,18.82-20,11.86,1-15.56,1.73-70.68,1.73-70.68S977,438.32,977,475.2Z" transform="translate(-79.15 -51.04)"/><path class="cls-16" d="M1058.19,470.91c-.5,3.62-6.21,14.13-10.7,21.45a40.14,40.14,0,0,1-7.21-2.25c-2.45-1.07-4.29-2.37-5.23-3.94-1.46-2.43-4.14-10.77-7.3-21.71,2.34-13.45,4.55-26.74,4.55-26.74l.69-8.92c0,.69,10.46,39.85,15.2,40.77,2.85.55,4.88-.12,6.6-.37l.23.11Z" transform="translate(-79.15 -51.04)"/><path class="cls-8" d="M953.11,740c-3.38-2.07-1.39-17.47-1.39-17.47s15.84-12.56,18-2.89,15,14.05,22.26,15.26c5,.83,6.88,3.43,7.35,5.09Z" transform="translate(-79.15 -51.04)"/><path class="cls-8" d="M976.6,355.14s-18-28.26,16.53-30.13c0,0,12.94,1.52,15.86-1.41,0,0,10,15.22.67,31.54S976.6,355.14,976.6,355.14Z" transform="translate(-79.15 -51.04)"/><path class="cls-9" d="M1006.15,369.89c-2.62,2.05-10.29,4.09-12.5,4.33,0,0-11.37-2.53-13.44-3.77-3.2-1.94-3-5.86-3.16-11.31-.19-6.44-.84-11.51-.12-15.23.86-4.44,3.68-7,11.59-7.66,14.52-1.26,20.57,2.37,20.83,7.23.06,1.3.12,2.55.17,3.72C1010.1,362.36,1008.9,367.73,1006.15,369.89Z" transform="translate(-79.15 -51.04)"/><path class="cls-8" d="M1009.65,352.17c-.14,8.78-2.52,14-4.23,14.63a36.52,36.52,0,0,1-6.74,1.8c-.82.09-1.6.07-1.59-.4,0-1.38,1.88-3.09.5-4.31s-9.2-1.72-9.83,1.08c-.3,1.37,2.2,3.79.49,3.84-.52-.09-1-.19-1.52-.31a23,23,0,0,1-6-2.63c-3.2-1.94-3-4.91-3.69-10.31-.46-3.5-.46-1.6,0,3.58.47,5.43-.46,8.92,3.15,11.31,2,1.33,13.61,6.52,13.61,6.52-.17-2.75,9.71-5,12.33-7.08C1008.57,368,1009.79,363.58,1009.65,352.17Z" transform="translate(-79.15 -51.04)"/><path class="cls-11" d="M955.34,512.35c-.05,1.46,7.21,6.57,19.41,10.43,1,.31,2,.61,3,.9,0,0,0,0,0,0C979,537,982,555.86,984.82,574h0c.72,4.71,1.42,9.37,2.06,13.88,1.69,11.94,3,22.82,3.1,30.66v.08c.06,3.59-3,12.56-3.21,14.63-.14,1.26-.25,2.6-.34,4a163.14,163.14,0,0,0,.26,19.31c2,30.89,10.17,70.41,13.09,72.09,5.8,3.34,16.35,0,21.72-.79a4.42,4.42,0,0,0,3.88-4.45c-2.62-51.26,4.91-122.65,10.54-166.53.14-1.14.29-2.26.43-3.36.67-5.18,1.12-10,1.4-14.37.25-3.82.38-7.29.43-10.3,0-.93,0-1.83,0-2.68,0-2.74-2.18-20.73-2.28-103.12h0a3.48,3.48,0,0,0-3.47-3.47H982a8.74,8.74,0,0,0-8.74,8.86,139.67,139.67,0,0,1-1.52,23.43c-1.86,11.45-5.85,22.13-14.09,24.71h0c0,.08-.26.59-.62,1.42h0c-.08,2.07-.16,4.18-.26,6.32,0,.43,0,.87-.06,1.3l0,.76c0,.44,0,.88-.07,1.32,0,.72-.07,1.45-.11,2.18l-.09,1.73q-.09,1.68-.21,3.39c0,.36,0,.72-.07,1.09-.09,1.48-.19,3-.31,4.48,0,.46-.07.92-.1,1.39,0,.22,0,.44,0,.67-.05.59-.09,1.18-.14,1.77s-.11,1.26-.16,1.89C955.1,508.67,955.4,510.73,955.34,512.35Z" transform="translate(-79.15 -51.04)"/><path class="cls-8" d="M986.69,656.6c2,30.89,10.17,70.41,13.09,72.09,5.8,3.34,16.35,0,21.72-.79a4.42,4.42,0,0,0,3.88-4.45c-2.62-51.26,4.91-122.65,10.54-166.53.14-1.14.29-2.26.43-3.36.67-5.18,1.12-10,1.4-14.37-2.68-17.4-17.78-18.33-31.47,17.66C1008,568.79,986.24,649.52,986.69,656.6Z" transform="translate(-79.15 -51.04)"/><path class="cls-11" d="M954.78,617.11c-.42,3.57-4.61,12.06-5.11,14.08-6.92,27.79-3.1,93.66.33,96.29,5.31,4.08,16.22,2.14,21.64,2.07a4.42,4.42,0,0,0,4.44-3.9c4.25-52.49,21.89-124.58,33.23-167a198.74,198.74,0,0,0,6.52-37.07s-53-32.41-58.74-14.71C952,522.56,958,589.7,954.78,617.11Z" transform="translate(-79.15 -51.04)"/><path class="cls-14" d="M1008.77,317.1c-.37-.41-.75-.81-1.16-1.19a20.66,20.66,0,0,0-6.32-4.1c-9.24-3.85-16.91-.29-21.7,3.34-.47.36-.91.72-1.33,1.07a28.24,28.24,0,0,0-4.06,4.18s-4.49,6.11-4.34,19l46.24.49S1016.78,326,1008.77,317.1Z" transform="translate(-79.15 -51.04)"/><path class="cls-3" d="M982.84,339.53l2.54,0c0-.74-.07-17.49-6.33-24-.47.36-.37.3-.79.65C984.21,322,982.85,339.36,982.84,339.53Z" transform="translate(-79.15 -51.04)"/><path class="cls-3" d="M1002.93,339.75c.53-10.25,4.47-21,5.53-22.95a11.82,11.82,0,0,0-.85-.89c-.74,1.26-6.77,12.42-7.41,23.81l-30.34-.32s15.38,3.44,24.65,3.55,21.59-3.06,21.59-3.06Z" transform="translate(-79.15 -51.04)"/><path class="cls-11" d="M971.61,385.61s15.62,18.17,16.54,34l-8,.42a76.33,76.33,0,0,0-13.77-33.35s1.84-.44,2.45-.57Z" transform="translate(-79.15 -51.04)"/><path class="cls-11" d="M1010.56,385.37A79.31,79.31,0,0,1,1023,420l8-.14c-.66-12.46-8.51-26.16-12.84-32.65C1018.15,387.18,1012.59,385.78,1010.56,385.37Z" transform="translate(-79.15 -51.04)"/><path class="cls-14" d="M993.11,559.67h-6.45c-3-1.36-19.15-8.34-34.68-8.42-11.2-.07-24,8.29-24.74,8.38-1.94.23,6.49.3,6.49.3s12.65-5.58,18.33-5.71c5.41-.13,17.43,3.8,22.24,5.45H938.14a5.51,5.51,0,0,0-5.5,5.49V606.3a5.51,5.51,0,0,0,5.5,5.49h55a5.51,5.51,0,0,0,5.5-5.49V565.16A5.51,5.51,0,0,0,993.11,559.67Z" transform="translate(-79.15 -51.04)"/><path class="cls-3" d="M975.25,559.67h-55a5.51,5.51,0,0,0-5.5,5.49V606.3a5.51,5.51,0,0,0,5.5,5.49h55a5.51,5.51,0,0,0,5.49-5.49V565.16A5.51,5.51,0,0,0,975.25,559.67Z" transform="translate(-79.15 -51.04)"/><path class="cls-15" d="M959.1,483.12c.4,18.59-1.93,55.63-1.93,55.63h-11c-5.19-26.06-7-42.82-7-52,0-1.8,0-3.48,0-5,.07-7.8.28-12.34.28-12.34-2.06-47.31,7.41-72.61,10.38-76.09s16.58-6.62,16.58-6.62a185.47,185.47,0,0,1,6.33,23.59C974.58,420.8,958.34,465,959,480.08,959.05,481,959.08,482,959.1,483.12Z" transform="translate(-79.15 -51.04)"/><rect class="cls-17" x="1012.16" y="444.74" width="12.1" height="244.84" rx="1.6"/><path class="cls-11" d="M1101.8,495.78h-8.89a1.6,1.6,0,0,0-1.6,1.6v7.49h12.1v-7.49A1.61,1.61,0,0,0,1101.8,495.78Z" transform="translate(-79.15 -51.04)"/><path class="cls-11" d="M1091.31,739a1.6,1.6,0,0,0,1.6,1.6h8.89a1.61,1.61,0,0,0,1.61-1.6v-6.46h-12.1Z" transform="translate(-79.15 -51.04)"/><path class="cls-3" d="M1097.43,511.61a.91.91,0,0,0-.91.91V725.2a.92.92,0,1,0,1.83,0V512.52A.92.92,0,0,0,1097.43,511.61Z" transform="translate(-79.15 -51.04)"/><path class="cls-9" d="M957.17,538.75s2.33-37,1.93-55.63a39.11,39.11,0,0,0-19.92-1.37c0,1.55,0,3.23,0,5,0,9.15,1.84,25.91,7,52-2.29,9.6-2.14,20,1.83,21.79s17.1-5,17-8.08S957.17,538.75,957.17,538.75Z" transform="translate(-79.15 -51.04)"/><path class="cls-9" d="M1107.61,495.93c-1.07-3.92-1.87-6.1-4.58-8-3.93-2.77-8.59-2-12.07-1.41a13.51,13.51,0,0,1-6.61-.87c-6.16-4.1-21.63-12.55-29.33-16.34-5.25,3.05-11.71,9.06-14.74,20.8,11.85,5.22,37.79,5.13,42.72,4,0,0,4.58,3.31,8,3.62a12.2,12.2,0,0,0,4.53-.79,6.18,6.18,0,0,1,6.83,2.17c1.69,2.08,3.9,3.23,4.81,3.23C1108.64,502.33,1108.28,498.4,1107.61,495.93Z" transform="translate(-79.15 -51.04)"/></g><path class="cls-14" d="M174.22,543.52h-55a5.51,5.51,0,0,0-5.5,5.49v41.14a5.51,5.51,0,0,0,5.5,5.49h55a5.51,5.51,0,0,0,5.5-5.49V549A5.51,5.51,0,0,0,174.22,543.52Z" transform="translate(-79.15 -51.04)"/><path class="cls-3" d="M192.09,543.52h-55a5.51,5.51,0,0,0-5.5,5.49v41.14a5.51,5.51,0,0,0,5.5,5.49h55a5.51,5.51,0,0,0,5.5-5.49V549A5.51,5.51,0,0,0,192.09,543.52Z" transform="translate(-79.15 -51.04)"/><path class="cls-14" d="M125.2,543.75s13.06-9.6,15-9.37,5,.91,5,.91l-11.68,8.8Z" transform="translate(-79.15 -51.04)"/><path class="cls-13" d="M228.26,392.1c-5.24-4-17.46-7.25-23.59-8-1.43-.16-5.74-.18-5.78-.18,0,4.4-9.38,8.19-17,7.69-6.44-.42-10.62-5.3-10.62-8h0c-.49,0-25.59,17.39-28.75,34.71a19.3,19.3,0,0,0-.33,3.46c-.1,82.39-5.1,95-3.52,95,0,0,9.39,7.21,26.82,8.92,2.25.22,4.64.35,7.16.36a102.44,102.44,0,0,0,21-2.09,95.68,95.68,0,0,0,9.68-2.5c12.2-3.86,19.46-9,19.41-10.42-.06-1.63.23-3.69,0-6-.76-8.73-1.17-16.35-1.5-24,13.24,1.16,20.88-.15,20.88-.15C253,457.69,235.34,397.44,228.26,392.1Zm-3.09,67.06c-.81.22-1.69.43-2.62.62-.65.14-1.32.28-2,.4l0-.94c-.18-4.32-.38-8.43-.67-12.34q-.35-4.9-.91-9.39C223.48,449.53,226.67,458.76,225.17,459.16Z" transform="translate(-79.15 -51.04)"/><path class="cls-9" d="M171.25,383.71s-19.4,2.93-27.75,9.87-9.19,51.16-12,63.66a97.84,97.84,0,0,0-1.47,11.24c-1.49,17,.3,40.48,1.78,49.18a18.51,18.51,0,0,1-1.14,8.2c-2.14,5.34-2.59,6.86,1.22,9.91s7.94,7.31,10.85,6.09c2.23-.94,1.84-15.75,1.54-22.47,3.35-14.37,8.77-41.34,13.88-67.48C165,417.07,171.25,383.71,171.25,383.71Z" transform="translate(-79.15 -51.04)"/><path class="cls-13" d="M171.25,383.71s-3.61,19.22-8.32,43.73c-1.49,7.77-3.1,16.08-4.74,24.47-6.68,13.06-12.4,21.93-14.17,20.26-3.61-3.4-10-3.82-14-3.69a96.05,96.05,0,0,1,1.46-11.24c.22-1,.42-2.18.62-3.52,2.34-15.73,3.66-53.74,11.35-60.14,4.05-3.36,10.68-5.78,16.45-7.39h0c3-.82,5.67-1.42,7.7-1.83C169.85,383.92,171.25,383.71,171.25,383.71Z" transform="translate(-79.15 -51.04)"/><path class="cls-18" d="M144,472.17c-3.61-3.4-10-3.82-14-3.69a97.84,97.84,0,0,1,1.47-11.24c.22-1,.42-2.18.62-3.53l20-48.19S145.79,473.84,144,472.17Z" transform="translate(-79.15 -51.04)"/><path class="cls-9" d="M198.94,383.22a148.28,148.28,0,0,0-.88-21.55l-26.91,4.39s0,8.19.12,17.28h0s-.73,8.43,9.68,9.67S199.22,389.73,198.94,383.22Z" transform="translate(-79.15 -51.04)"/><path class="cls-8" d="M176.42,740c3.38-2.08,1.4-17.59,1.4-17.59s-15.85-12.55-18-2.89-15,14-22.26,15.26c-5.05.84-6.6,3.63-7.07,5.28Z" transform="translate(-79.15 -51.04)"/><path class="cls-18" d="M222.55,459.8s-5,6.8-6.07,6.8-13.74-4.91-10.09-15.9,12.53-13.19,12.53-13.19q.57,4.49.91,9.39c.29,3.91.49,8,.67,12.34l0,.94c.7-.12,1.37-.26,2-.4Z" transform="translate(-79.15 -51.04)"/><path class="cls-8" d="M225,740c3.38-2.08,1.4-17.59,1.4-17.59s-15.85-12.55-18-2.89-15,14-22.26,15.26c-5,.84-6.6,3.63-7.07,5.28Z" transform="translate(-79.15 -51.04)"/><path class="cls-12" d="M201.5,353.92s18-28.26-16.53-30.13c0,0-12.94,1.52-15.87-1.4,0,0-10,15.22-.66,31.53S201.5,353.92,201.5,353.92Z" transform="translate(-79.15 -51.04)"/><path class="cls-9" d="M172,368.67c2.62,2.06,10.28,4.1,12.5,4.33,0,0,11.37-2.53,13.43-3.77,3.21-1.94,3-5.85,3.16-11.3.2-6.45.85-11.52.13-15.23-.86-4.45-3.68-7-11.59-7.67-14.53-1.26-20.58,2.37-20.83,7.23-.06,1.31-.13,2.55-.17,3.73C168,361.14,169.2,366.51,172,368.67Z" transform="translate(-79.15 -51.04)"/><path class="cls-12" d="M168.45,351c.14,8.78,2.51,14,4.23,14.63a35.75,35.75,0,0,0,6.74,1.8c.82.1,1.6.07,1.59-.39,0-1.39-1.88-3.09-.5-4.32s9.2-1.72,9.82,1.09c.31,1.36-2.19,3.78-.48,3.84.52-.09,1-.19,1.52-.32a22.52,22.52,0,0,0,6-2.63c3.2-1.94,3-4.91,3.7-10.31.46-3.5.46-1.6,0,3.59-.48,5.43.46,8.91-3.16,11.3-2,1.33-13.6,6.53-13.6,6.53.17-2.76-9.71-5-12.33-7.09C169.52,366.77,168.31,362.37,168.45,351Z" transform="translate(-79.15 -51.04)"/><path class="cls-11" d="M222.76,511.14c.05,1.45-7.21,6.56-19.41,10.42-1,.31-2,.61-3,.9l0,0c-1.13,13.33-4.21,32.15-7,50.32h0c-.72,4.71-1.42,9.37-2.06,13.89-1.7,11.94-3,22.82-3.1,30.65v.08c-.06,3.59,3,12.56,3.2,14.63.15,1.27.26,2.61.34,4a163,163,0,0,1-.25,19.31c-2,30.89-10.17,70.41-13.09,72.09-5.8,3.35-16.36,0-21.72-.79a4.42,4.42,0,0,1-3.89-4.45c2.62-51.26-4.9-122.64-10.53-166.53-.14-1.14-.29-2.26-.43-3.36-.68-5.18-1.12-10-1.4-14.36-.26-3.83-.38-7.3-.44-10.3,0-.94,0-1.84,0-2.68,0-2.75,2.17-20.74,2.27-103.13h0a3.49,3.49,0,0,1,3.48-3.46h50.49a8.73,8.73,0,0,1,8.74,8.85,139.78,139.78,0,0,0,1.52,23.44c1.86,11.44,5.85,22.13,14.09,24.7,0,0,0,0,0,0s.26.58.62,1.41v0q.1,3.09.26,6.32,0,.65.06,1.29l0,.77c0,.43,0,.87.07,1.31,0,.72.07,1.45.11,2.19l.09,1.73c.06,1.11.13,2.24.2,3.38,0,.37.05.73.07,1.1.1,1.47.2,3,.31,4.47,0,.46.07.92.11,1.39,0,.22,0,.45.05.67,0,.59.09,1.18.14,1.77s.11,1.26.16,1.9C223,507.45,222.7,509.51,222.76,511.14Z" transform="translate(-79.15 -51.04)"/><path class="cls-8" d="M191.41,655.38c-2,30.89-10.17,70.41-13.09,72.09-5.8,3.35-16.36,0-21.72-.79a4.42,4.42,0,0,1-3.89-4.45c2.62-51.26-4.9-122.64-10.53-166.53-.14-1.14-.29-2.26-.43-3.36-.68-5.18-1.12-10-1.4-14.36,2.68-17.4,17.77-18.34,31.47,17.66C177.69,569.58,191.86,648.31,191.41,655.38Z" transform="translate(-79.15 -51.04)"/><path class="cls-11" d="M223.32,615.9c.42,3.57,4.6,12.06,5.11,14.08,6.92,27.78,3.1,93.65-.34,96.29-5.31,4.08-16.21,2.14-21.63,2.06a4.42,4.42,0,0,1-4.44-3.9c-4.25-52.48-21.89-124.57-33.24-167a198.74,198.74,0,0,1-6.52-37.07s53-32.41,58.75-14.7C226.08,521.34,220.12,588.48,223.32,615.9Z" transform="translate(-79.15 -51.04)"/><path class="cls-14" d="M203.89,319.18a27.5,27.5,0,0,0-4-4.17c-.42-.36-.86-.72-1.33-1.07-4.79-3.64-12.46-7.19-21.7-3.34a20.52,20.52,0,0,0-6.32,4.09c-.41.39-.8.79-1.16,1.2-8,8.87-7.34,22.78-7.34,22.78l46.24-.49C208.38,325.3,203.89,319.18,203.89,319.18Z" transform="translate(-79.15 -51.04)"/><path class="cls-3" d="M195.26,338.31c0-.17-1.37-17.58,4.58-23.3a8.84,8.84,0,0,0-.79-.65c-6.26,6.5-6.39,23.25-6.33,24Z" transform="translate(-79.15 -51.04)"/><path class="cls-3" d="M177.93,338.5c-.44-11.3-6.69-22.55-7.44-23.81a9.92,9.92,0,0,0-.85.87c1.08,1.91,5.16,12.8,5.55,23l-13.2.14s12.32,3.18,21.6,3.06,24.64-3.55,24.64-3.55Z" transform="translate(-79.15 -51.04)"/><path class="cls-11" d="M206.49,384.4s-15.62,18.16-16.54,34h7.94a75.93,75.93,0,0,1,13.78-32.93Z" transform="translate(-79.15 -51.04)"/><path class="cls-11" d="M167.65,384.36a79.54,79.54,0,0,0-12.52,34.05h-7.94c.66-12.46,8.43-25.73,12.76-32.22h0C162.9,385.37,165.62,384.77,167.65,384.36Z" transform="translate(-79.15 -51.04)"/><path class="cls-14" d="M248.31,482.53a165.24,165.24,0,0,0-2.71-21.75,69.25,69.25,0,0,1-.87,11.52c2,15.63,1.2,27.57-2.29,34.33a23.29,23.29,0,0,1-8.77,9.56,27.93,27.93,0,0,0,4.85-6.39c2.68-4.8,5.15-13.72,4.23-30.19-.18.47-.37.92-.58,1.36,0,0-.68.12-2,.25.54,12-.75,21.26-3.83,26.78a22.82,22.82,0,0,1-9.29,9.29,27.1,27.1,0,0,0,3.31-4c3.18-4.67,6.5-13.84,6.64-31.85-.79.05-1.67.08-2.64.11-.15,13.8-2.19,24.07-6,29.69-.17.26-.36.52-.55.77,2.92-5,5.7-14,5.85-30.45-.83,0-1.71,0-2.65,0-.14,13.79-2.18,24-6,29.66a21.86,21.86,0,0,1-8.88,7.68c-1.06-.18-2.14-.42-3.23-.71a3.17,3.17,0,0,1-.44-.12h0l-.44-.12c-1.32-.39-2.61-.83-3.86-1.32-15.27-6.06-24-19.69-24.89-30.89-.61-8,0-19.81,1.65-32.7,3.18-25.4,10.09-54.85,18.5-66.56.14-.19.27-.39.42-.57h0c.18-.23.35-.45.53-.66.32-.37.62-.72.94-1h0a9.85,9.85,0,0,1,2-1.6c.17.11.36.24.57.4a11.07,11.07,0,0,1,1.95,2l0,0c.88.18,1.79.4,2.72.64l1.32.36.09,0,.31.08,1.64.48.93.28,1.1.36,1.2.41c.42.14.84.29,1.25.45l0,0c-5-7.78-8.47-9.6-10.75-9.49a6.56,6.56,0,0,0-1.07.15,4.53,4.53,0,0,0-1.15-.16,7,7,0,0,0-2.3.42c-2.35.23-4.82,1.71-7.38,4.44-.18.18-.35.37-.52.57a45,45,0,0,0-4.27,5.78l0,0c-13.54,21.35-26.17,68.78-26.92,91-.59,17.57,13,33.28,26.66,39.72a41.35,41.35,0,0,0,4,1.63c.74.26,1.47.49,2.21.69h0a30.39,30.39,0,0,0,8.24,1.19c.57,0,1.13,0,1.68,0s1.14,0,1.7,0a24.37,24.37,0,0,0,7.14-1l1.07-.07.9-.09c.58-.07,1.15-.16,1.72-.26a29.43,29.43,0,0,0,4.83-.38A24.36,24.36,0,0,0,238.93,516a27.56,27.56,0,0,0,5.74-7.67C247,503.89,249,496.09,248.31,482.53ZM168.53,481c.66-19.65,11.43-61.38,23.33-83.92-.41,1-.83,2-1.25,3.09-11.25,23.78-20.7,61.59-21.34,80.7a38.16,38.16,0,0,0,6.66,22.12C170.78,495.74,168.29,487.69,168.53,481Zm28.34,36.6c-16.94-8-25.38-24.43-25-36.6.36-10.79,3.78-28.26,8.76-45.54-3.89,18.68-6,37.63-5.52,49.27.67,14.74,11.17,27,22.89,33.39C197.64,517.91,197.26,517.73,196.87,517.55Zm-19.11-33c-.77-16.86,4.57-50.8,12.46-75.15.89-2.72,1.8-5.32,2.75-7.78.35-.74.7-1.47,1.06-2.18C188,416,183.38,439.76,181.4,459.69a162.24,162.24,0,0,0-.83,26.37c.93,12.17,8.52,22.33,17.86,28.8C185.41,507.68,178.24,494.9,177.76,484.51Z" transform="translate(-79.15 -51.04)"/><path class="cls-9" d="M222.55,459.8c-.43.07-8.54,1.55-9,1.61-13.52,2-31.71,2.85-33.61,2.94-.17-.17-6.63-6.17-9.14-6.17s-9.91,2.68-10.66,4.73-1.05,5.76,1,6.59a94.21,94.21,0,0,0,13.06,3.08,5.61,5.61,0,0,0,1.08,0,228.81,228.81,0,0,0,40.82,8.18,97.77,97.77,0,0,0,11.4.77A59.38,59.38,0,0,0,222.55,459.8Z" transform="translate(-79.15 -51.04)"/><path class="cls-2" d="M517.94,267.5V264h-7.77v-23.4h-6.43V264h-16.3v-23.4H481V264H463.28v-23.4h-6.43V264h-16.3v-23.4h-6.44V264h-8.52v3.54h8.52v11.39h-8.52v3.55h8.52v11.39h-8.52v3.54h8.52v11.39h-8.52v3.55h8.52V323.7h-8.52v3.54h8.52v11.39h-8.52v3.55h8.52v9.22h-8.52v3.54h8.52v11.39h-8.52v3.55h8.52v11.39h-8.52v3.54h8.52V396.2h-8.52v3.55h8.52v11.39h-8.52v3.54h8.52v11.39h-8.52v3.55h8.52v10.87h-8.52V444h8.52v11.4h-8.52V459h8.52v11.39h-8.52v3.55h8.52V485.3h-8.52v3.54h8.52v11.39h-8.52v3.55h8.52v11.39h-8.52v3.54h8.52v9.22h-8.52v3.54h8.52v11.4h-8.52v3.54h8.52V557.8h-8.52v3.55h8.52v11.39h-8.52v3.54h8.52v11.39h-8.52v3.55h8.52v11.39h-8.52v3.54h8.52v10.17h-8.52v3.54h8.52v11.39h-8.52v3.55h8.52v11.39h-8.52v3.54h8.52v11.39h-8.52v3.55h8.52v11.39h-8.52v3.54h8.52V691h-8.52v3.55h8.52v9.22h-8.52v3.54h8.52v11.39h-8.52v3.55h8.52v11.39h-8.52v3.54h92.35v-3.54h-7.77V722.24h7.77v-3.55h-7.77V707.3h7.77v-3.54h-7.77v-9.22h7.77V691h-7.77V679.6h7.77v-3.54h-7.77V664.67h7.77v-3.55h-7.77V649.73h7.77v-3.54h-7.77V634.8h7.77v-3.55h-7.77V619.86h7.77v-3.54h-7.77V606.15h7.77v-3.54h-7.77V591.22h7.77v-3.55h-7.77V576.28h7.77v-3.54h-7.77V561.35h7.77V557.8h-7.77V546.41h7.77v-3.54h-7.77v-11.4h7.77v-3.54h-7.77v-9.22h7.77v-3.54h-7.77V503.78h7.77v-3.55h-7.77V488.84h7.77V485.3h-7.77V473.91h7.77v-3.55h-7.77V459h7.77v-3.54h-7.77V444h7.77v-3.54h-7.77V429.62h7.77v-3.55h-7.77V414.68h7.77v-3.54h-7.77V399.75h7.77V396.2h-7.77V384.81h7.77v-3.54h-7.77V369.88h7.77v-3.55h-7.77V354.94h7.77V351.4h-7.77v-9.22h7.77v-3.55h-7.77V327.24h7.77V323.7h-7.77V312.31h7.77v-3.55h-7.77V297.37h7.77v-3.54h-7.77V282.44h7.77v-3.55h-7.77V267.5Zm-36.94,0v11.39H463.28V267.5ZM463.28,718.69V707.3H481v11.39ZM481,722.24v11.39H463.28V722.24Zm-17.72-18.48v-9.22H481v9.22Zm0-12.77V679.6H481V691Zm0-14.93V664.67H481v11.39Zm0-14.94V649.73H481v11.39Zm0-14.93V634.8H481v11.39Zm0-14.94V619.86H481v11.39Zm0-14.93V606.15H481v10.17Zm0-13.71V591.22H481v11.39Zm0-14.94V576.28H481v11.39Zm0-14.93V561.35H481v11.39Zm0-14.94V546.41H481V557.8Zm0-14.93v-11.4H481v11.4Zm0-14.94v-9.22H481v9.22Zm0-12.76V503.78H481v11.39Zm0-14.94V488.84H481v11.39Zm0-14.93V473.91H481V485.3Zm0-14.94V459H481v11.39Zm0-14.93V444H481v11.4Zm0-14.94V429.62H481v10.87Zm0-14.42V414.68H481v11.39Zm0-14.93V399.75H481v11.39Zm0-14.94V384.81H481V396.2Zm0-14.93V369.88H481v11.39Zm0-14.94V354.94H481v11.39Zm0-14.93v-9.22H481v9.22Zm0-12.77V327.24H481v11.39Zm0-14.93V312.31H481V323.7Zm0-14.94V297.37H481v11.39Zm0-14.93V282.44H481v11.39ZM440.55,267.5h16.3v11.39h-16.3Zm0,14.94h16.3v11.39h-16.3Zm0,14.93h16.3v11.39h-16.3Zm0,14.94h16.3V323.7h-16.3Zm0,14.93h16.3v11.39h-16.3Zm0,14.94h16.3v9.22h-16.3Zm0,12.76h16.3v11.39h-16.3Zm0,14.94h16.3v11.39h-16.3Zm0,14.93h16.3V396.2h-16.3Zm0,14.94h16.3v11.39h-16.3Zm0,14.93h16.3v11.39h-16.3Zm0,14.94h16.3v10.87h-16.3Zm0,14.41h16.3v11.4h-16.3Zm0,14.94h16.3v11.39h-16.3Zm0,14.94h16.3V485.3h-16.3Zm0,14.93h16.3v11.39h-16.3Zm0,14.94h16.3v11.39h-16.3Zm0,14.93h16.3v9.22h-16.3Zm0,12.76h16.3v11.4h-16.3Zm0,14.94h16.3V557.8h-16.3Zm0,14.94h16.3v11.39h-16.3Zm0,14.93h16.3v11.39h-16.3Zm0,14.94h16.3v11.39h-16.3Zm0,14.93h16.3v10.17h-16.3Zm0,13.71h16.3v11.39h-16.3Zm0,14.94h16.3v11.39h-16.3Zm0,14.93h16.3v11.39h-16.3Zm0,14.94h16.3v11.39h-16.3Zm0,14.93h16.3V691h-16.3Zm0,14.94h16.3v9.22h-16.3Zm0,12.76h16.3v11.39h-16.3Zm0,14.94h16.3v11.39h-16.3Zm63.19,11.39h-16.3V722.24h16.3Zm0-14.94h-16.3V707.3h16.3Zm0-14.93h-16.3v-9.22h16.3Zm0-12.77h-16.3V679.6h16.3Zm0-14.93h-16.3V664.67h16.3Zm0-14.94h-16.3V649.73h16.3Zm0-14.93h-16.3V634.8h16.3Zm0-14.94h-16.3V619.86h16.3Zm0-14.93h-16.3V606.15h16.3Zm0-13.71h-16.3V591.22h16.3Zm0-14.94h-16.3V576.28h16.3Zm0-14.93h-16.3V561.35h16.3Zm0-14.94h-16.3V546.41h16.3Zm0-14.93h-16.3v-11.4h16.3Zm0-14.94h-16.3v-9.22h16.3Zm0-12.76h-16.3V503.78h16.3Zm0-14.94h-16.3V488.84h16.3Zm0-14.93h-16.3V473.91h16.3Zm0-14.94h-16.3V459h16.3Zm0-14.93h-16.3V444h16.3Zm0-14.94h-16.3V429.62h16.3Zm0-14.42h-16.3V414.68h16.3Zm0-14.93h-16.3V399.75h16.3Zm0-14.94h-16.3V384.81h16.3Zm0-14.93h-16.3V369.88h16.3Zm0-14.94h-16.3V354.94h16.3Zm0-14.93h-16.3v-9.22h16.3Zm0-12.77h-16.3V327.24h16.3Zm0-14.93h-16.3V312.31h16.3Zm0-14.94h-16.3V297.37h16.3Zm0-14.93h-16.3V282.44h16.3Zm0-14.94h-16.3V267.5h16.3Z" transform="translate(-79.15 -51.04)"/><rect class="cls-2" x="514.76" width="2.28" height="40.45"/><rect class="cls-2" x="640.91" width="2.28" height="40.45"/><rect class="cls-2" x="530.7" width="2.28" height="40.45"/><rect class="cls-2" x="652.29" width="2.28" height="40.45"/><path class="cls-11" d="M273.71,647.25a1.37,1.37,0,0,0-1.62,1L259.8,701.84c-3.32.1-6.7,3.69-7.84,8.68l-1.17,5.11a5.94,5.94,0,0,0-.16.86l13.65,3.11a3.48,3.48,0,0,0,.26-.83l1.17-5.1c1.15-5-.32-9.67-3.27-11.22l12.29-53.58A1.36,1.36,0,0,0,273.71,647.25Z" transform="translate(-79.15 -51.04)"/><path class="cls-4" d="M238,716.4s28.35-7.33,37.4-1.36-4.61,12.27-4.61,12.27Z" transform="translate(-79.15 -51.04)"/><g id="P297LW-2" data-name="P297LW"><path class="cls-14" d="M456.92,393.35c-5.41,16.56-34.95,45.17-39,48,0,0-6.87-11.43-5.5-17.83,1.12-5.22,12.62-23.85,16.56-33,.2-.47.39-.93.55-1.35a8.29,8.29,0,0,0,.76-3.13c-.2-2-6.46-6.83-13.74-12.57-9.46-7.46-20.64-16.43-22.45-22.64-3.21-11-14.32-54.41-14.32-54.41s27.6,5.95,35.39,12.81,41.23,64,42.6,78.63A13.52,13.52,0,0,1,456.92,393.35Z" transform="translate(-79.15 -51.04)"/><path class="cls-9" d="M456.92,393.35c-5.41,16.56-34.95,45.17-39,48,0,0-6.87-11.43-5.5-17.83,1.18-5.49,13.85-25.82,17.11-34.35C434.4,388.34,445.93,387.3,456.92,393.35Z" transform="translate(-79.15 -51.04)"/><path class="cls-9" d="M379.76,292.62l0,3.37s.92,10.56-12.1,12.1-22.82-3.17-22.47-11.31c1.17-6.31,2.4-11.58,2.49-16.8a37,37,0,0,0-.46-6.32l25.22-.5,7.44,1.21Z" transform="translate(-79.15 -51.04)"/><path class="cls-10" d="M379.86,274.37l-.1,18.25a21.41,21.41,0,0,1-9.09,2c-11.6,0-19.09-8.48-23-14.64a37,37,0,0,0-.46-6.32l25.22-.5Z" transform="translate(-79.15 -51.04)"/><path class="cls-8" d="M357.52,740s-1.22-9.52-4.06-15.18-20.88-2.06-20.88-2.06-3.61,3.09-4.38,17.49Z" transform="translate(-79.15 -51.04)"/><path class="cls-8" d="M419,740c-4.24-2.59-1.83-21.86-1.83-21.86s19.76-15.77,22.48-3.69,18.77,17.5,27.91,19c6.3,1,8.26,4.5,8.86,6.57Z" transform="translate(-79.15 -51.04)"/><path class="cls-11" d="M378.08,597.7a92.72,92.72,0,0,1,1.45,10.65c1.84,35.75,30.16,117.51,35.23,119.41,7.83,3,20.18-3.32,26.64-5.37a5.53,5.53,0,0,0,3.88-6.28c-14-64.35-19.18-157-21-211.86-1-27.63-5.7-46.72-5.7-46.72S349.45,439.14,349,462.4C348.67,483,371.92,563.74,378.08,597.7Z" transform="translate(-79.15 -51.04)"/><path class="cls-8" d="M378.08,597.7l46.15-93.45c-1-27.63-5.7-46.72-5.7-46.72S349.45,439.14,349,462.4C348.67,483,371.92,563.74,378.08,597.7Z" transform="translate(-79.15 -51.04)"/><path class="cls-11" d="M393.45,462.49,356.93,726.6s-16,3.86-28.51.78c0,0-10.69-140.47-9.8-174.43s-7.67-90.88,2-97.15S393.45,462.49,393.45,462.49Z" transform="translate(-79.15 -51.04)"/><path class="cls-14" d="M420.51,463s-18.66,10.86-45.68,10.56a202.75,202.75,0,0,1-27.49-2.07c-21.68-3.21-32.62-9.24-32.53-11.49.08-2,.22-8.78.47-11.68,3.45-39.64,1.67-70.48,6.3-93.64.06-.28.11-.56.17-.83,6.14-29.45,15.75-46.37,20.53-53.31a25.94,25.94,0,0,1,2.89-3.73c0,5.49,11.73,10.24,21.29,9.61,8.05-.52,13.28-6.63,13.28-9.94h0c.66,0,36.33,24.74,36.36,47.73C416.23,447.21,422.49,463,420.51,463Z" transform="translate(-79.15 -51.04)"/><path class="cls-3" d="M347.39,471.13c0,.11,0,.22-.05.33-21.68-3.21-32.62-9.24-32.53-11.49.08-2,.22-8.78.47-11.68,3.45-39.64,1.67-70.48,6.3-93.64C333,369.83,356.35,409.58,347.39,471.13Z" transform="translate(-79.15 -51.04)"/><path class="cls-19" d="M406.77,421.84l-2.91,9.68-2.89,9.6L275.21,403.37a1.51,1.51,0,0,1-.52-.06,1.54,1.54,0,0,1-.48-.24c-1.59-1.12-1.87-5.22-.66-9.84.07-.26.14-.51.22-.77,1.47-5,4.15-8.65,6.2-8.68a2,2,0,0,1,.49.06,2.2,2.2,0,0,1,.46.23Z" transform="translate(-79.15 -51.04)"/><path class="cls-20" d="M403.86,431.52l-2.89,9.6L275.21,403.37a1.51,1.51,0,0,1-.52-.06,1.54,1.54,0,0,1-.48-.24c-1.59-1.12-1.87-5.22-.66-9.84,5.14,3.85,29.69,20.88,71.6,29.16C388.46,431,401.87,431.49,403.86,431.52Z" transform="translate(-79.15 -51.04)"/><path class="cls-21" d="M407,421.79c-2.11-.62-5.1,3.23-6.69,8.61s-1.18,10.24.92,10.86,5.1-3.24,6.69-8.61S409.12,422.41,407,421.79Z" transform="translate(-79.15 -51.04)"/><path class="cls-19" d="M281.83,380.52,267,378.12a2.16,2.16,0,0,0-.49-.16,2,2,0,0,0-.49,0c-2,.31-4.2,4.3-5,9.42,0,.27-.08.53-.11.79a20.52,20.52,0,0,0,0,6.05c.33,1.79,1,3.1,1.84,3.59l.05,0a1.55,1.55,0,0,0,.51.18,1.82,1.82,0,0,0,.52,0l129.63,21,1.61-9.89,1.61-10Z" transform="translate(-79.15 -51.04)"/><path class="cls-20" d="M335.71,407.73C308,406,293.29,391.32,281.83,380.52L267,378.12a2.16,2.16,0,0,0-.49-.16,2,2,0,0,0-.49,0c-2,.31-4.2,4.3-5,9.42,0,.27-.08.53-.11.79a20.52,20.52,0,0,0,0,6.05,9.59,9.59,0,0,0,1.84,3.59l.05,0a1.55,1.55,0,0,0,.51.18,1.82,1.82,0,0,0,.52,0l129.63,21,1.61-9.89C393.14,409.33,379.78,410.56,335.71,407.73Z" transform="translate(-79.15 -51.04)"/><path class="cls-21" d="M397,399c-2.17-.34-4.63,3.88-5.5,9.41s.17,10.31,2.34,10.65,4.63-3.88,5.5-9.42S399.13,399.38,397,399Z" transform="translate(-79.15 -51.04)"/><path class="cls-9" d="M350.85,437.11c-30.06-4.78-49.94-17.35-58.1-23.43-2.78-2.07-4.2-3.39-4.2-3.39-15.41-32.33,12.46-89,17.56-98.6,5.5-10.36,39.06-14.91,39.06-14.91A181.75,181.75,0,0,0,337.72,333c-2.1,20.52-24.43,60.5-23.52,63.86.23.84,2.93,2.62,6.87,4.86,11.66,6.63,34.21,17.31,35.58,19.82C358.48,424.91,350.85,437.11,350.85,437.11Z" transform="translate(-79.15 -51.04)"/><path class="cls-9" d="M356.65,421.56s16.8-6.7,20.92-4,11,6.86,11,9.6-8.71,10.06-16,12.34-21.68-2.43-21.68-2.43Z" transform="translate(-79.15 -51.04)"/><path class="cls-14" d="M337.72,333c-2.1,20.52-24.43,60.5-23.52,63.86.23.84,2.93,2.62,6.87,4.86-.25,0-.5,0-.76,0-17.57-.77-25.53,8.93-27.56,11.93-2.78-2.07-4.2-3.39-4.2-3.39-15.41-32.33,12.46-89,17.56-98.6,5.5-10.36,39.06-14.91,39.06-14.91A181.75,181.75,0,0,0,337.72,333Z" transform="translate(-79.15 -51.04)"/><path class="cls-9" d="M381.33,283.24s-32.31,6.51-36.07-13.63-10.45-32.87,10-37.88,25.92,1.93,28.81,8.35S389.64,281,381.33,283.24Z" transform="translate(-79.15 -51.04)"/><path class="cls-8" d="M345.91,275.42s-6.25-13.31-11.46-19.21-2.37-35.45,20.13-34.5,30.55,17,30.78,20.08-18,.71-23,4.73-.23,10.63-5.92,13-10.18,2.37-9.23,7.57A11.38,11.38,0,0,1,345.91,275.42Z" transform="translate(-79.15 -51.04)"/><path class="cls-14" d="M352.85,208a35.44,35.44,0,0,0-14.87,7.3c-.36.3-.71.62-1,.94h0c-13.34,12.7-8,32.9-8,32.9a52,52,0,0,0,3,7.09c1.22,2,18.93-.3,19.85-4.11s4.43-7.78,4.43-7.78L376.12,243c4.22-.3,16.26-4.48,16.26-4.48C392.24,237.3,385.47,199.82,352.85,208Z" transform="translate(-79.15 -51.04)"/><path class="cls-3" d="M403.44,234.52a63.07,63.07,0,0,0-12.35-1.39s-5.29,4.37-15.79,7.7c-4.94-6.21-19-21.17-37.32-25.54l-.16,0c-.39.49-.61.66-.88,1h0a4,4,0,0,0-.26.35c14.91,2.6,29.08,19.31,33.94,25.56a81.92,81.92,0,0,1-14.41,2.19s32.63.61,47.54-7.23A1.39,1.39,0,0,0,403.44,234.52Z" transform="translate(-79.15 -51.04)"/><path class="cls-3" d="M436.67,382.4c-.6,3.42-2.45,7-7.72,8.14.2-.47.39-.93.55-1.35a8.29,8.29,0,0,0,.76-3.13c-.2-2-6.46-6.83-13.74-12.57-.6-3.25-2.07-12.91,0-20.58C419,343.54,437.36,378.51,436.67,382.4Z" transform="translate(-79.15 -51.04)"/><path class="cls-3" d="M317.56,399.43s-22.45-1.83-29.78,11.2c0,0,.63,4.39,5,3.05,0,0,19-12.95,28.32-11.94C321.07,401.74,319.62,399.47,317.56,399.43Z" transform="translate(-79.15 -51.04)"/><path class="cls-3" d="M429,390.54s11.64.49,26.3,6.86c0,0,3.26-3.19,2-5S435.27,384,429,390.54Z" transform="translate(-79.15 -51.04)"/></g><path class="cls-9" d="M590.61,314.44c10.09-51.62,19.34-101,19.34-101s-28.73,4.34-41.1,14.63-13.62,75.78-17.74,94.3A144.93,144.93,0,0,0,548.94,339c-2.34,26.63.58,66.51,2.78,77.69-.14,1.07-1.06,6.35-5.93,16.47,0,0-2.52,7.78,14,19.43C570.28,460,579.64,370.55,590.61,314.44Z" transform="translate(-79.15 -51.04)"/><path class="cls-15" d="M610,213.4s-5.33,28.48-12.32,64.78c-2.21,11.52-4.59,23.83-7,36.26-9.89,19.34-18.37,32.49-21,30-5.35-5-14.74-5.66-20.68-5.47a144.93,144.93,0,0,1,2.17-16.65c.32-1.47.63-3.22.93-5.22,3.46-23.3,5.42-79.61,16.81-89.08C581.22,217.74,610,213.4,610,213.4Z" transform="translate(-79.15 -51.04)"/><path class="cls-16" d="M597.63,278.18c-2.21,11.52-4.59,23.83-7,36.26-9.89,19.34-18.37,32.49-21,30-5.35-5-14.74-5.66-20.68-5.47a144.93,144.93,0,0,1,2.17-16.65c.32-1.47.63-3.22.93-5.22l29.64-71.4Z" transform="translate(-79.15 -51.04)"/><path class="cls-9" d="M651,212.67c.22-10,.06-21.87-1.29-31.92l-39.87,6.5s0,12.14.18,25.61h0s-1.09,12.49,14.33,14.32S651.39,222.31,651,212.67Z" transform="translate(-79.15 -51.04)"/><path class="cls-10" d="M609.7,189.7s9.39,19.2,20.16,19.2,20.84-18.05,20.84-18.05Z" transform="translate(-79.15 -51.04)"/><path class="cls-8" d="M636.27,740.05s1.45-11.27,4.81-18,24.74-2.44,24.74-2.44,4.28,3.66,5.19,20.73Z" transform="translate(-79.15 -51.04)"/><path class="cls-8" d="M563.43,739.9c5-3.06,2.17-25.88,2.17-25.88s-23.41-18.69-26.63-4.38-22.23,20.73-33.06,22.48c-7.47,1.21-9.79,5.34-10.5,7.78Z" transform="translate(-79.15 -51.04)"/><path class="cls-8" d="M654.77,169.28s26.61-41.88-24.49-44.65c0,0-19.16,2.25-23.5-2.08,0,0-14.87,22.55-1,46.73S654.77,169.28,654.77,169.28Z" transform="translate(-79.15 -51.04)"/><path class="cls-9" d="M611,191.13c3.87,3,15.23,6.06,18.51,6.41,0,0,16.84-3.75,19.9-5.59,4.75-2.87,4.44-8.67,4.68-16.74.3-9.56,1.26-17.06.19-22.57-1.27-6.59-5.46-10.34-17.17-11.35-21.52-1.87-30.48,3.51-30.86,10.71-.09,1.93-.18,3.77-.25,5.52C605.14,180,606.92,187.93,611,191.13Z" transform="translate(-79.15 -51.04)"/><path class="cls-11" d="M611.92,570.28a108.28,108.28,0,0,0-1.72,12.62c-2.18,42.35-35.73,139.2-41.73,141.46-9.29,3.5-23.91-3.94-31.56-6.37a6.54,6.54,0,0,1-4.6-7.44c16.61-76.23,22.72-186,24.94-251,1.12-32.73,6.75-55.34,6.75-55.34s81.84-21.79,82.32,5.77C646.75,434.39,619.22,530,611.92,570.28Z" transform="translate(-79.15 -51.04)"/><path class="cls-8" d="M611.92,570.28,557.25,459.57c1.12-32.73,6.75-55.34,6.75-55.34s81.84-21.79,82.32,5.77C646.75,434.39,619.22,530,611.92,570.28Z" transform="translate(-79.15 -51.04)"/><path class="cls-11" d="M593.71,410.1,637,723s19,4.57,33.78.91c0,0,12.66-166.41,11.61-206.64s9.09-107.65-2.32-115.08S593.71,410.1,593.71,410.1Z" transform="translate(-79.15 -51.04)"/><path class="cls-14" d="M686.26,402.18a6.47,6.47,0,0,1-6.37,6.7l-68.17,1-50.07.76c-2.35,0,5.07-18.68,5.22-140.74,0-27.24,42.29-56.55,43.07-56.55h0c0,3.92,6.19,11.16,15.74,11.78,11.32.74,25.21-4.88,25.21-11.39a30.52,30.52,0,0,1,3.44,4.42c5.65,8.22,17,28.26,24.31,63.15,5.74,27.56,3.53,64.4,7.66,111.93C686.61,396.72,686.17,399.77,686.26,402.18Z" transform="translate(-79.15 -51.04)"/><path class="cls-15" d="M683.74,409.26s-9.06,4.05-26,7.55a256.93,256.93,0,0,1-50.4,5.06c-33.13.21-45.68-11.19-45.68-11.19-2.35,0,5.07-18.68,5.22-140.74,0-27.24,42.29-56.55,43.07-56.55h0s-1.09,36.27,9.91,46.93c0,0,15.42-11.88,35.42-45.71,5.66,8.22,16.1,31.85,23.37,66.74a189.93,189.93,0,0,1,3.1,23.17c1.92,24.07,1.49,53.47,4.56,88.76.3,3.43-.14,6.48,0,8.89C686.4,405.8,687.38,409.2,683.74,409.26Z" transform="translate(-79.15 -51.04)"/><path class="cls-16" d="M683.74,409.26s-9.06,4.05-26,7.55c-5.33-8.11-12.05-22.76-13-45.84-1.58-39,35.58-89.3,35.58-89.3l1.42,22.86c1.92,24.07,1.49,53.47,4.56,88.76.3,3.43-.14,6.48,0,8.89C686.4,405.8,687.38,409.2,683.74,409.26Z" transform="translate(-79.15 -51.04)"/><polygon class="cls-11" points="572.41 226.05 509.07 262.54 559.23 349.23 622.57 312.74 572.41 226.05"/><path class="cls-9" d="M691,226.5c-7.76-5.85-26-10-34.94-11.76-3.16-.62-5.18-1-5.18-1,.94,4.3,3,11.05,5.79,19.15,11.52,34,34.35,91.69,29.75,92.92a127.75,127.75,0,0,1-13.8,2.65c-20,2.93-47,4.22-49.79,4.35-.22-.2-9.82-9.13-13.55-9.13s-14.68,4-15.79,7-1.56,8.53,1.56,9.75a139.34,139.34,0,0,0,19.34,4.57,9.67,9.67,0,0,0,1.61,0,338.34,338.34,0,0,0,60.47,12.11c22.17,2.27,35.14,1,35.14,1C727.69,323.67,701.51,234.42,691,226.5Z" transform="translate(-79.15 -51.04)"/><path class="cls-15" d="M711.63,358.17s-13,1.26-35.14-1c1.22-6,2.36-17.75-3.85-28.65a127.75,127.75,0,0,0,13.8-2.65c4.6-1.23-18.23-59-29.75-92.92-.92-11-1.41-18.32-1.41-18.32l.8.12c9,1.76,27.18,5.91,34.94,11.76C701.51,234.42,727.69,323.67,711.63,358.17Z" transform="translate(-79.15 -51.04)"/><path class="cls-16" d="M619.86,260.33s30.84-13.56,31.3-14.62-1.53-9.3-3.66-11.74c0,0,14.81,1.37,15.72-.46s1.61-16.87,1.61-16.87-6.17-6.37-13.8-7c0,0-6.71,16.62-9.18,21.57C635.28,244.33,619.86,260.33,619.86,260.33Z" transform="translate(-79.15 -51.04)"/><path class="cls-16" d="M612.53,233.51s2,15.85,7.33,26.82c0,0-16.11-11.2-17.49-14.85s3.9-10.75,3.9-10.75-9.62-.23-9.85-3.43,3-15.77,3-15.77,8.28-6,10.57-5.8Z" transform="translate(-79.15 -51.04)"/><path class="cls-14" d="M664.75,146l-68.51.73s-1-20.61,10.87-33.76c.54-.61,1.12-1.19,1.72-1.77a30.61,30.61,0,0,1,9.36-6.06c13.69-5.71,25-.44,32.15,4.94.7.53,1.35,1.06,2,1.59a41.37,41.37,0,0,1,6,6.19S665,126.86,664.75,146Z" transform="translate(-79.15 -51.04)"/><path class="cls-3" d="M645.5,146.15c-.18-2.77-1.39-26.41,6.93-34.43a12.71,12.71,0,0,0-1.14-.94c-8.87,9.21-9.58,32.48-9.54,35.41l-21.9.24c-.65-16.74-9.91-33.42-11-35.28a17.09,17.09,0,0,0-1.26,1.3c1.61,2.82,7.65,19,8.23,34l-19.56.21s18.25,4.71,32,4.54S664.75,146,664.75,146Z" transform="translate(-79.15 -51.04)"/></svg>