<svg id="Layer_1" data-name="Layer 1" xmlns="http://www.w3.org/2000/svg" viewBox="0 0 1154.12 653.46"><defs><style>.cls-1{fill:#c2e7f2;}.cls-2{fill:#d9935c;}.cls-3{fill:#ffa412;}.cls-4{fill:#e27f2b;}.cls-5{fill:#cb7d45;}.cls-6{fill:#233862;}.cls-7{fill:#2b478b;}.cls-8{fill:#739af0;}.cls-9{fill:#7a97f3;}.cls-10{fill:#35488b;}.cls-11{fill:#fff;}.cls-12{fill:#f1a34f;}.cls-13{fill:#e49963;}.cls-14{fill:#163560;}.cls-15{fill:#e37970;}.cls-16{fill:#d68d5d;}.cls-17{fill:#e7f1fd;}.cls-18{fill:#bed4f4;}.cls-19{fill:#afcdfb;}.cls-20{fill:#4a75cb;}.cls-21{fill:#ffb27d;}.cls-22{fill:#fca56b;}.cls-23{fill:#202f4e;}</style></defs><path class="cls-1" d="M1431.16,902.57s216-331.43-13.32-422.08c-57.75-22.83-77.9-342.49-334.43-182.66-102,63.56-248.92-13.36-389.6,28.68C564.61,365.12,561.64,476.5,578,516.59c17.85,43.81-53.33,96.19-126.23,132.17-114.34,56.43-30.26,254.75,77.77,255.69s901.64-1.88,901.64-1.88Z" transform="translate(-383.14 -253.26)"/><path class="cls-2" d="M1187.09,572.7c7.8-40,15-78.27,15-78.27s-22.21,3.36-31.77,11.33-10.53,58.71-13.72,73a115.48,115.48,0,0,0-1.67,12.91c-1.81,20.62.44,51.52,2.15,60.18-.11.83-.82,4.92-4.58,12.76,0,0-2,6,10.8,15.05,8.12,5.76,15.37-63.54,23.84-107Z" transform="translate(-383.14 -253.26)"/><path class="cls-3" d="M1202,494.43s-4.12,22.06-9.52,50.19c-1.71,8.92-3.55,18.45-5.43,28.08-7.64,15-14.2,25.17-16.23,23.25-4.13-3.9-11.39-4.38-16-4.23a115.48,115.48,0,0,1,1.67-12.91c.26-1.13.49-2.49.72-4,2.68-18,4.19-61.67,13-69,9.56-8,31.77-11.33,31.77-11.33Z" transform="translate(-383.14 -253.26)"/><path class="cls-4" d="M1192.52,544.62c-1.71,8.92-3.55,18.45-5.43,28.08-7.64,15-14.2,25.17-16.23,23.25-4.13-3.9-11.39-4.38-16-4.23a115.48,115.48,0,0,1,1.67-12.91c.26-1.13.49-2.49.72-4l22.92-55.31,12.33,25.16Z" transform="translate(-383.14 -253.26)"/><path class="cls-2" d="M1233.76,493.86a169.51,169.51,0,0,0-1-24.73l-30.82,5s0,9.41.13,19.84h0s-.84,9.68,11.08,11.09,21-3.77,20.64-11.25Z" transform="translate(-383.14 -253.26)"/><path class="cls-5" d="M1201.85,476.07s7.26,14.88,15.58,14.88,16.12-14,16.12-14l-31.7-.89Z" transform="translate(-383.14 -253.26)"/><path class="cls-6" d="M1222.39,902.65s1.12-9,3.72-14.16,19.12-1.89,19.12-1.89,3.31,2.83,4,16Z" transform="translate(-383.14 -253.26)"/><path class="cls-6" d="M1166.08,902.58c3.89-2.36,1.68-20.05,1.68-20.05s-18.1-14.48-20.59-3.39-17.19,16.06-25.56,17.42c-5.78.93-7.57,4.13-8.12,6Z" transform="translate(-383.14 -253.26)"/><path class="cls-6" d="M1236.69,460.25s20.58-32.44-18.93-34.59c0,0-14.81,1.75-18.17-1.61,0,0-11.49,17.47-.76,36.2s37.86,0,37.86,0Z" transform="translate(-383.14 -253.26)"/><path class="cls-2" d="M1202.85,477.17c3,2.36,11.78,4.7,14.32,5,0,0,13-2.9,15.38-4.33,3.67-2.22,3.43-6.72,3.62-13,.22-7.4,1-13.21.14-17.48-1-5.1-4.21-8-13.27-8.8-16.64-1.44-23.56,2.73-23.85,8.3-.08,1.5-.15,2.93-.2,4.28-.66,17.39.71,23.55,3.86,26Z" transform="translate(-383.14 -253.26)"/><path class="cls-7" d="M1203.57,770.9a82,82,0,0,0-1.33,9.78c-1.69,32.81-27.62,107.83-32.27,109.58-7.17,2.71-18.48-3-24.39-4.93a5.08,5.08,0,0,1-3.56-5.77c12.85-59,17.57-144.08,19.28-194.42.87-25.36,5.23-42.88,5.23-42.88s63.26-16.88,63.63,4.48c.34,18.89-21,93-26.59,124.16Z" transform="translate(-383.14 -253.26)"/><path class="cls-6" d="M1203.57,770.9l-42.27-85.76c.87-25.36,5.23-42.88,5.23-42.88s63.26-16.88,63.63,4.48c.34,18.89-21,93-26.59,124.16Z" transform="translate(-383.14 -253.26)"/><path class="cls-7" d="M1189.49,646.81l33.44,242.39s14.69,3.54,26.11.71c0,0,9.79-128.91,9-160.08s7-83.4-1.79-89.16-66.74,6.14-66.74,6.14Z" transform="translate(-383.14 -253.26)"/><path class="cls-8" d="M1261,640.67a5,5,0,0,1-4.93,5.19l-52.7.81-38.71.59c-1.81,0,3.92-14.47,4-109,0-21.1,32.69-43.81,33.29-43.81h0c0,3,4.79,8.65,12.17,9.13,8.75.57,19.5-3.78,19.5-8.83a24.85,24.85,0,0,1,2.65,3.43c4.37,6.36,13.17,21.89,18.79,48.92,4.44,21.34,2.73,49.88,5.93,86.71.23,2.66-.11,5,0,6.88Z" transform="translate(-383.14 -253.26)"/><path class="cls-3" d="M1259.09,646.16s-7,3.14-20.11,5.85a197,197,0,0,1-39,3.91c-25.61.17-35.32-8.66-35.32-8.66-1.81,0,3.92-14.47,4-109,0-21.1,32.69-43.81,33.29-43.81h0s-.84,28.1,7.66,36.36c0,0,11.93-9.21,27.39-35.42,4.37,6.37,12.44,24.68,18.06,51.71a144.94,144.94,0,0,1,2.39,17.95c1.5,18.65,1.16,41.42,3.54,68.76.23,2.66-.11,5,0,6.88.1,2.81.86,5.44-2,5.49Z" transform="translate(-383.14 -253.26)"/><path class="cls-4" d="M1259.09,646.16s-7,3.14-20.11,5.85c-4.12-6.28-9.32-17.63-10-35.52-1.22-30.23,27.51-69.17,27.51-69.17l1.09,17.71c1.5,18.65,1.16,41.42,3.54,68.76.23,2.66-.11,5,0,6.88.1,2.81.86,5.44-2,5.49Z" transform="translate(-383.14 -253.26)"/><polygon class="cls-7" points="851.07 290.51 802.11 318.78 840.89 385.94 889.85 357.67 851.07 290.51 851.07 290.51"/><path class="cls-2" d="M1264.71,504.58c-6-4.53-20.08-7.75-27-9.11-2.44-.49-4-.74-4-.74.72,3.34,2.34,8.56,4.47,14.84,8.9,26.3,26.55,71,23,72a95.44,95.44,0,0,1-10.66,2.05c-15.48,2.27-36.31,3.27-38.49,3.38-.17-.17-7.59-7.08-10.48-7.08s-11.35,3.07-12.21,5.43-1.2,6.61,1.21,7.55a107.6,107.6,0,0,0,15,3.55,7.52,7.52,0,0,0,1.25,0,261.31,261.31,0,0,0,46.74,9.38c17.15,1.76,27.17.78,27.17.78,12.42-26.72-7.82-95.87-15.94-102Z" transform="translate(-383.14 -253.26)"/><path class="cls-3" d="M1280.65,606.58s-10,1-27.17-.78c1-4.66,1.83-13.76-3-22.2a95.44,95.44,0,0,0,10.66-2.05c3.56-.95-14.09-45.68-23-72-.72-8.5-1.09-14.2-1.09-14.2l.61.1c6.93,1.36,21,4.58,27,9.11,8.12,6.13,28.36,75.28,15.94,102Z" transform="translate(-383.14 -253.26)"/><path class="cls-4" d="M1209.7,530.79s23.85-10.51,24.2-11.33-1.18-7.2-2.83-9.09c0,0,11.45,1.06,12.16-.36s1.24-13.07,1.24-13.07-4.77-4.93-10.67-5.41c0,0-5.18,12.88-7.1,16.71-5.07,10.15-17,22.55-17,22.55Z" transform="translate(-383.14 -253.26)"/><path class="cls-4" d="M1204,510s1.54,12.28,5.67,20.78c0,0-12.45-8.68-13.52-11.51s3-8.32,3-8.32-7.43-.18-7.61-2.66,2.3-12.22,2.3-12.22,6.4-4.67,8.17-4.49l2,18.42Z" transform="translate(-383.14 -253.26)"/><path class="cls-3" d="M1244.4,442.18l-53,.56s-.77-16,8.41-26.15c.42-.47.86-.93,1.33-1.37a23.66,23.66,0,0,1,7.23-4.7c10.59-4.42,19.37-.34,24.86,3.83.53.41,1,.82,1.52,1.23a32.38,32.38,0,0,1,4.65,4.8s5.14,7,5,21.8Z" transform="translate(-383.14 -253.26)"/><path class="cls-4" d="M1229.53,442.34c-.15-2.15-1.08-20.47,5.35-26.68a8.53,8.53,0,0,0-.88-.73c-6.86,7.14-7.4,25.16-7.37,27.44l-16.93.18c-.5-13-7.66-25.89-8.52-27.33a11.53,11.53,0,0,0-1,1c1.25,2.19,5.92,14.69,6.37,26.36l-15.13.16s14.11,3.65,24.74,3.52,28.22-4.08,28.22-4.08l-14.87.16Z" transform="translate(-383.14 -253.26)"/><path class="cls-3" d="M1301,592.12h8.68c4-1.83,25.75-11.24,46.64-11.35,15.07-.08,32.24,11.17,33.27,11.29,2.62.31-8.73.41-8.73.41s-17-7.52-24.64-7.7c-7.29-.17-23.45,5.13-29.91,7.35H1375a7.42,7.42,0,0,1,7.4,7.4V655a7.42,7.42,0,0,1-7.4,7.39H1301a7.42,7.42,0,0,1-7.39-7.39V599.52a7.42,7.42,0,0,1,7.39-7.4Z" transform="translate(-383.14 -253.26)"/><path class="cls-4" d="M1325.05,592.12H1399a7.41,7.41,0,0,1,7.39,7.4V655a7.41,7.41,0,0,1-7.39,7.39h-73.93a7.42,7.42,0,0,1-7.39-7.39V599.52a7.42,7.42,0,0,1,7.39-7.4Z" transform="translate(-383.14 -253.26)"/><polygon class="cls-9" points="548.33 340.18 154.97 340.18 154.97 62.76 548.33 62.76 548.33 340.18 548.33 340.18"/><polygon class="cls-10" points="534.71 325.76 168.59 325.76 168.59 77.18 534.71 77.18 534.71 325.76 534.71 325.76"/><path class="cls-9" d="M841.77,891.11h-8.63l-54-18.65a57,57,0,0,1-38.39-53.88V589.16a6.12,6.12,0,0,0-5.72-6.17,6,6,0,0,0-6.29,6V818.58a57,57,0,0,1-38.39,53.87l-54,18.66H626.6a6.11,6.11,0,0,0-6.17,5.71,6,6,0,0,0,6,6.3h35.1a6.1,6.1,0,0,0,6.14-5.57,6,6,0,0,0-1.24-4.1l39.66-13.7a87.75,87.75,0,0,1,57.38,0l38.73,13.38a6,6,0,0,0-1.52,4.2,6.13,6.13,0,0,0,6.18,5.79h35.08a6,6,0,0,0,6-6.3,6.11,6.11,0,0,0-6.17-5.71Z" transform="translate(-383.14 -253.26)"/><polygon class="cls-10" points="553.54 340.18 548.33 340.18 548.33 62.76 553.54 62.76 553.54 340.18 553.54 340.18"/><polygon class="cls-10" points="357.66 351.33 345.64 351.33 345.64 340.18 357.66 340.18 357.66 351.33 357.66 351.33"/><path class="cls-11" d="M867,550.18H882.4V517.93H867v32.25Zm15.88.47H866.52V517.46h16.35v33.19Z" transform="translate(-383.14 -253.26)"/><path class="cls-11" d="M871.52,550.65H648.65a.23.23,0,0,1-.23-.23.23.23,0,0,1,.23-.24H871.06V486.36h-18.5V412.47h-18v40h-15v14.73H793v-8.55H781.69v-34H751.31V367.16l-23.54-7.8v38.18h-5.95V368.9l-23.55,8.92V411.6H676V387H653.23V411.6h-4.35v14.3H630.34v48.8a.23.23,0,0,1-.24.23.23.23,0,0,1-.23-.23V425.43h18.55v-14.3h4.34V386.54h23.75v24.59H697.8V377.49l24.49-9.26v28.84h5V358.71l24.48,8.11v57.43h30.38V458.2h11.35v8.56h25.6V452h15V412H853v73.89h18.49v64.76Z" transform="translate(-383.14 -253.26)"/><path class="cls-11" d="M732,375.6h15.74v-5.46H732v5.46Zm16.2.47H731.52v-6.4h16.67v6.4Z" transform="translate(-383.14 -253.26)"/><path class="cls-11" d="M732,386.75h15.74v-5.47H732v5.47Zm16.2.46H731.52v-6.4h16.67v6.4Z" transform="translate(-383.14 -253.26)"/><path class="cls-11" d="M732,396.77h15.74v-5.46H732v5.46Zm16.2.47H731.52v-6.4h16.67v6.4Z" transform="translate(-383.14 -253.26)"/><path class="cls-11" d="M838.05,448.12h14.51v-8.69H838.05v8.69Zm15,.47H837.58V439H853v9.62Z" transform="translate(-383.14 -253.26)"/><path class="cls-11" d="M834.38,476.24h18.18v-8.7H834.38v8.7Zm18.65.46H833.91v-9.62H853v9.62Z" transform="translate(-383.14 -253.26)"/><path class="cls-11" d="M834.38,490.07h18.18v-8.69H834.38v8.69Zm18.65.47H833.91v-9.63H853v9.63Z" transform="translate(-383.14 -253.26)"/><path class="cls-11" d="M834.68,504.54h18.19v-8.69H834.68v8.69Zm18.65.47H834.22v-9.62h19.11V505Z" transform="translate(-383.14 -253.26)"/><path class="cls-11" d="M834.68,518.72h18.19V510H834.68v8.69Zm18.65.47H834.22v-9.63h19.11v9.63Z" transform="translate(-383.14 -253.26)"/><path class="cls-11" d="M834.68,533.19h18.19V524.5H834.68v8.69Zm18.65.47H834.22V524h19.11v9.62Z" transform="translate(-383.14 -253.26)"/><path class="cls-11" d="M702.09,396.77h16.57v-5.46H702.09v5.46Zm17,.47H701.62v-6.4h17.51v6.4Z" transform="translate(-383.14 -253.26)"/><path class="cls-11" d="M702.09,386.84h16.57v-5.47H702.09v5.47Zm17,.46H701.62v-6.4h17.51v6.4Z" transform="translate(-383.14 -253.26)"/><path class="cls-11" d="M702.09,406.5h46V401h-46v5.47Zm46.52.47h-47v-6.41h47V407Z" transform="translate(-383.14 -253.26)"/><path class="cls-11" d="M702.09,415.42h46V410h-46v5.47Zm46.52.47h-47v-6.4h47v6.4Z" transform="translate(-383.14 -253.26)"/><path class="cls-11" d="M702.09,424.05h46v-5.24h-46v5.24Zm46.52.47h-47v-6.17h47v6.17Z" transform="translate(-383.14 -253.26)"/><path class="cls-11" d="M834.38,462.4h18.18v-8.69H834.38v8.69Zm18.65.47H833.91v-9.63H853v9.63Z" transform="translate(-383.14 -253.26)"/><path class="cls-11" d="M773.43,435.55H777v-5.27h-3.61v5.27Zm4.08.47H773v-6.21h4.54V436Z" transform="translate(-383.14 -253.26)"/><path class="cls-11" d="M765.82,435.55h3.6v-5.27h-3.6v5.27Zm4.07.47h-4.54v-6.21h4.54V436Z" transform="translate(-383.14 -253.26)"/><path class="cls-11" d="M758.38,435.55H762v-5.27h-3.6v5.27Zm4.07.47h-4.54v-6.21h4.54V436Z" transform="translate(-383.14 -253.26)"/><path class="cls-11" d="M751.32,435.55h3.61v-5.27h-3.61v5.27Zm4.07.47h-4.54v-6.21h4.54V436Z" transform="translate(-383.14 -253.26)"/><path class="cls-11" d="M744.13,435.55h3.6v-5.27h-3.6v5.27Zm4.07.47h-4.54v-6.21h4.54V436Z" transform="translate(-383.14 -253.26)"/><path class="cls-11" d="M736.85,435.55h3.61v-5.27h-3.61v5.27Zm4.08.47h-4.55v-6.21h4.55V436Z" transform="translate(-383.14 -253.26)"/><path class="cls-11" d="M729.24,435.55h3.6v-5.27h-3.6v5.27Zm4.07.47h-4.54v-6.21h4.54V436Z" transform="translate(-383.14 -253.26)"/><path class="cls-11" d="M721.8,435.55h3.6v-5.27h-3.6v5.27Zm4.07.47h-4.54v-6.21h4.54V436Z" transform="translate(-383.14 -253.26)"/><path class="cls-11" d="M714.74,435.55h3.6v-5.27h-3.6v5.27Zm4.07.47h-4.54v-6.21h4.54V436Z" transform="translate(-383.14 -253.26)"/><path class="cls-11" d="M707.55,435.55h3.6v-5.27h-3.6v5.27Zm4.07.47h-4.54v-6.21h4.54V436Z" transform="translate(-383.14 -253.26)"/><path class="cls-11" d="M700.05,435.55h3.6v-5.27h-3.6v5.27Zm4.07.47h-4.54v-6.21h4.54V436Z" transform="translate(-383.14 -253.26)"/><path class="cls-11" d="M692.44,435.55H696v-5.27h-3.6v5.27Zm4.07.47H692v-6.21h4.54V436Z" transform="translate(-383.14 -253.26)"/><path class="cls-11" d="M685,435.55h3.61v-5.27H685v5.27Zm4.07.47h-4.53v-6.21h4.53V436Z" transform="translate(-383.14 -253.26)"/><path class="cls-11" d="M677.94,435.55h3.6v-5.27h-3.6v5.27ZM682,436h-4.54v-6.21H682V436Z" transform="translate(-383.14 -253.26)"/><path class="cls-11" d="M670.74,435.55h3.61v-5.27h-3.61v5.27Zm4.07.47h-4.53v-6.21h4.53V436Z" transform="translate(-383.14 -253.26)"/><path class="cls-11" d="M663.47,435.55h3.6v-5.27h-3.6v5.27Zm4.07.47H663v-6.21h4.54V436Z" transform="translate(-383.14 -253.26)"/><path class="cls-11" d="M655.85,435.55h3.61v-5.27h-3.61v5.27Zm4.07.47h-4.53v-6.21h4.53V436Z" transform="translate(-383.14 -253.26)"/><path class="cls-11" d="M648.41,435.55H652v-5.27h-3.6v5.27Zm4.07.47h-4.54v-6.21h4.54V436Z" transform="translate(-383.14 -253.26)"/><path class="cls-11" d="M641.35,435.55H645v-5.27h-3.61v5.27Zm4.07.47h-4.53v-6.21h4.53V436Z" transform="translate(-383.14 -253.26)"/><path class="cls-11" d="M634.16,435.55h3.6v-5.27h-3.6v5.27Zm4.07.47h-4.54v-6.21h4.54V436Z" transform="translate(-383.14 -253.26)"/><path class="cls-11" d="M773.43,445.68H777v-5.27h-3.61v5.27Zm4.08.46H773v-6.2h4.54v6.2Z" transform="translate(-383.14 -253.26)"/><path class="cls-11" d="M765.82,445.68h3.6v-5.27h-3.6v5.27Zm4.07.46h-4.54v-6.2h4.54v6.2Z" transform="translate(-383.14 -253.26)"/><path class="cls-11" d="M758.38,445.68H762v-5.27h-3.6v5.27Zm4.07.46h-4.54v-6.2h4.54v6.2Z" transform="translate(-383.14 -253.26)"/><path class="cls-11" d="M751.32,445.68h3.61v-5.27h-3.61v5.27Zm4.07.46h-4.54v-6.2h4.54v6.2Z" transform="translate(-383.14 -253.26)"/><path class="cls-11" d="M744.13,445.68h3.6v-5.27h-3.6v5.27Zm4.07.46h-4.54v-6.2h4.54v6.2Z" transform="translate(-383.14 -253.26)"/><path class="cls-11" d="M736.85,445.68h3.61v-5.27h-3.61v5.27Zm4.08.46h-4.55v-6.2h4.55v6.2Z" transform="translate(-383.14 -253.26)"/><path class="cls-11" d="M729.24,445.68h3.6v-5.27h-3.6v5.27Zm4.07.46h-4.54v-6.2h4.54v6.2Z" transform="translate(-383.14 -253.26)"/><path class="cls-11" d="M721.8,445.68h3.6v-5.27h-3.6v5.27Zm4.07.46h-4.54v-6.2h4.54v6.2Z" transform="translate(-383.14 -253.26)"/><path class="cls-11" d="M714.74,445.68h3.6v-5.27h-3.6v5.27Zm4.07.46h-4.54v-6.2h4.54v6.2Z" transform="translate(-383.14 -253.26)"/><path class="cls-11" d="M707.55,445.68h3.6v-5.27h-3.6v5.27Zm4.07.46h-4.54v-6.2h4.54v6.2Z" transform="translate(-383.14 -253.26)"/><path class="cls-11" d="M700.05,445.68h3.6v-5.27h-3.6v5.27Zm4.07.46h-4.54v-6.2h4.54v6.2Z" transform="translate(-383.14 -253.26)"/><path class="cls-11" d="M692.44,445.68H696v-5.27h-3.6v5.27Zm4.07.46H692v-6.2h4.54v6.2Z" transform="translate(-383.14 -253.26)"/><path class="cls-11" d="M685,445.68h3.61v-5.27H685v5.27Zm4.07.46h-4.53v-6.2h4.53v6.2Z" transform="translate(-383.14 -253.26)"/><path class="cls-11" d="M677.94,445.68h3.6v-5.27h-3.6v5.27Zm4.07.46h-4.54v-6.2H682v6.2Z" transform="translate(-383.14 -253.26)"/><path class="cls-11" d="M670.74,445.68h3.61v-5.27h-3.61v5.27Zm4.07.46h-4.53v-6.2h4.53v6.2Z" transform="translate(-383.14 -253.26)"/><path class="cls-11" d="M663.47,445.68h3.6v-5.27h-3.6v5.27Zm4.07.46H663v-6.2h4.54v6.2Z" transform="translate(-383.14 -253.26)"/><path class="cls-11" d="M655.85,445.68h3.61v-5.27h-3.61v5.27Zm4.07.46h-4.53v-6.2h4.53v6.2Z" transform="translate(-383.14 -253.26)"/><path class="cls-11" d="M648.41,445.68H652v-5.27h-3.6v5.27Zm4.07.46h-4.54v-6.2h4.54v6.2Z" transform="translate(-383.14 -253.26)"/><path class="cls-11" d="M641.35,445.68H645v-5.27h-3.61v5.27Zm4.07.46h-4.53v-6.2h4.53v6.2Z" transform="translate(-383.14 -253.26)"/><path class="cls-11" d="M634.16,445.68h3.6v-5.27h-3.6v5.27Zm4.07.46h-4.54v-6.2h4.54v6.2Z" transform="translate(-383.14 -253.26)"/><path class="cls-11" d="M773.43,455.65H777v-5.27h-3.61v5.27Zm4.08.47H773v-6.21h4.54v6.21Z" transform="translate(-383.14 -253.26)"/><path class="cls-11" d="M765.82,455.65h3.6v-5.27h-3.6v5.27Zm4.07.47h-4.54v-6.21h4.54v6.21Z" transform="translate(-383.14 -253.26)"/><path class="cls-11" d="M758.38,455.65H762v-5.27h-3.6v5.27Zm4.07.47h-4.54v-6.21h4.54v6.21Z" transform="translate(-383.14 -253.26)"/><path class="cls-11" d="M751.32,455.65h3.61v-5.27h-3.61v5.27Zm4.07.47h-4.54v-6.21h4.54v6.21Z" transform="translate(-383.14 -253.26)"/><path class="cls-11" d="M744.13,455.65h3.6v-5.27h-3.6v5.27Zm4.07.47h-4.54v-6.21h4.54v6.21Z" transform="translate(-383.14 -253.26)"/><path class="cls-11" d="M736.85,455.65h3.61v-5.27h-3.61v5.27Zm4.08.47h-4.55v-6.21h4.55v6.21Z" transform="translate(-383.14 -253.26)"/><path class="cls-11" d="M729.24,455.65h3.6v-5.27h-3.6v5.27Zm4.07.47h-4.54v-6.21h4.54v6.21Z" transform="translate(-383.14 -253.26)"/><path class="cls-11" d="M721.8,455.65h3.6v-5.27h-3.6v5.27Zm4.07.47h-4.54v-6.21h4.54v6.21Z" transform="translate(-383.14 -253.26)"/><path class="cls-11" d="M714.74,455.65h3.6v-5.27h-3.6v5.27Zm4.07.47h-4.54v-6.21h4.54v6.21Z" transform="translate(-383.14 -253.26)"/><path class="cls-11" d="M707.55,455.65h3.6v-5.27h-3.6v5.27Zm4.07.47h-4.54v-6.21h4.54v6.21Z" transform="translate(-383.14 -253.26)"/><path class="cls-11" d="M700.05,455.65h3.6v-5.27h-3.6v5.27Zm4.07.47h-4.54v-6.21h4.54v6.21Z" transform="translate(-383.14 -253.26)"/><path class="cls-11" d="M692.44,455.65H696v-5.27h-3.6v5.27Zm4.07.47H692v-6.21h4.54v6.21Z" transform="translate(-383.14 -253.26)"/><path class="cls-11" d="M685,455.65h3.61v-5.27H685v5.27Zm4.07.47h-4.53v-6.21h4.53v6.21Z" transform="translate(-383.14 -253.26)"/><path class="cls-11" d="M677.94,455.65h3.6v-5.27h-3.6v5.27Zm4.07.47h-4.54v-6.21H682v6.21Z" transform="translate(-383.14 -253.26)"/><path class="cls-11" d="M670.74,455.65h3.61v-5.27h-3.61v5.27Zm4.07.47h-4.53v-6.21h4.53v6.21Z" transform="translate(-383.14 -253.26)"/><path class="cls-11" d="M663.47,455.65h3.6v-5.27h-3.6v5.27Zm4.07.47H663v-6.21h4.54v6.21Z" transform="translate(-383.14 -253.26)"/><path class="cls-11" d="M655.85,455.65h3.61v-5.27h-3.61v5.27Zm4.07.47h-4.53v-6.21h4.53v6.21Z" transform="translate(-383.14 -253.26)"/><path class="cls-11" d="M648.41,455.65H652v-5.27h-3.6v5.27Zm4.07.47h-4.54v-6.21h4.54v6.21Z" transform="translate(-383.14 -253.26)"/><path class="cls-11" d="M641.35,455.65H645v-5.27h-3.61v5.27Zm4.07.47h-4.53v-6.21h4.53v6.21Z" transform="translate(-383.14 -253.26)"/><path class="cls-11" d="M634.16,455.65h3.6v-5.27h-3.6v5.27Zm4.07.47h-4.54v-6.21h4.54v6.21Z" transform="translate(-383.14 -253.26)"/><path class="cls-11" d="M773.43,466.24H777V461h-3.61v5.27Zm4.08.47H773V460.5h4.54v6.21Z" transform="translate(-383.14 -253.26)"/><path class="cls-11" d="M765.82,466.24h3.6V461h-3.6v5.27Zm4.07.47h-4.54V460.5h4.54v6.21Z" transform="translate(-383.14 -253.26)"/><path class="cls-11" d="M758.38,466.24H762V461h-3.6v5.27Zm4.07.47h-4.54V460.5h4.54v6.21Z" transform="translate(-383.14 -253.26)"/><path class="cls-11" d="M751.32,466.24h3.61V461h-3.61v5.27Zm4.07.47h-4.54V460.5h4.54v6.21Z" transform="translate(-383.14 -253.26)"/><path class="cls-11" d="M744.13,466.24h3.6V461h-3.6v5.27Zm4.07.47h-4.54V460.5h4.54v6.21Z" transform="translate(-383.14 -253.26)"/><path class="cls-11" d="M736.85,466.24h3.61V461h-3.61v5.27Zm4.08.47h-4.55V460.5h4.55v6.21Z" transform="translate(-383.14 -253.26)"/><path class="cls-11" d="M729.24,466.24h3.6V461h-3.6v5.27Zm4.07.47h-4.54V460.5h4.54v6.21Z" transform="translate(-383.14 -253.26)"/><path class="cls-11" d="M721.8,466.24h3.6V461h-3.6v5.27Zm4.07.47h-4.54V460.5h4.54v6.21Z" transform="translate(-383.14 -253.26)"/><path class="cls-11" d="M714.74,466.24h3.6V461h-3.6v5.27Zm4.07.47h-4.54V460.5h4.54v6.21Z" transform="translate(-383.14 -253.26)"/><path class="cls-11" d="M707.55,466.24h3.6V461h-3.6v5.27Zm4.07.47h-4.54V460.5h4.54v6.21Z" transform="translate(-383.14 -253.26)"/><path class="cls-11" d="M700.05,466.24h3.6V461h-3.6v5.27Zm4.07.47h-4.54V460.5h4.54v6.21Z" transform="translate(-383.14 -253.26)"/><path class="cls-11" d="M692.44,466.24H696V461h-3.6v5.27Zm4.07.47H692V460.5h4.54v6.21Z" transform="translate(-383.14 -253.26)"/><path class="cls-11" d="M685,466.24h3.61V461H685v5.27Zm4.07.47h-4.53V460.5h4.53v6.21Z" transform="translate(-383.14 -253.26)"/><path class="cls-11" d="M677.94,466.24h3.6V461h-3.6v5.27Zm4.07.47h-4.54V460.5H682v6.21Z" transform="translate(-383.14 -253.26)"/><path class="cls-11" d="M670.74,466.24h3.61V461h-3.61v5.27Zm4.07.47h-4.53V460.5h4.53v6.21Z" transform="translate(-383.14 -253.26)"/><path class="cls-11" d="M663.47,466.24h3.6V461h-3.6v5.27Zm4.07.47H663V460.5h4.54v6.21Z" transform="translate(-383.14 -253.26)"/><path class="cls-11" d="M655.85,466.24h3.61V461h-3.61v5.27Zm4.07.47h-4.53V460.5h4.53v6.21Z" transform="translate(-383.14 -253.26)"/><path class="cls-11" d="M648.41,466.24H652V461h-3.6v5.27Zm4.07.47h-4.54V460.5h4.54v6.21Z" transform="translate(-383.14 -253.26)"/><path class="cls-11" d="M641.35,466.24H645V461h-3.61v5.27Zm4.07.47h-4.53V460.5h4.53v6.21Z" transform="translate(-383.14 -253.26)"/><path class="cls-11" d="M634.16,466.24h3.6V461h-3.6v5.27Zm4.07.47h-4.54V460.5h4.54v6.21Z" transform="translate(-383.14 -253.26)"/><path class="cls-11" d="M773.43,476.37H777V471.1h-3.61v5.27Zm4.08.47H773v-6.21h4.54v6.21Z" transform="translate(-383.14 -253.26)"/><path class="cls-11" d="M765.82,476.37h3.6V471.1h-3.6v5.27Zm4.07.47h-4.54v-6.21h4.54v6.21Z" transform="translate(-383.14 -253.26)"/><path class="cls-11" d="M758.38,476.37H762V471.1h-3.6v5.27Zm4.07.47h-4.54v-6.21h4.54v6.21Z" transform="translate(-383.14 -253.26)"/><path class="cls-11" d="M751.32,476.37h3.61V471.1h-3.61v5.27Zm4.07.47h-4.54v-6.21h4.54v6.21Z" transform="translate(-383.14 -253.26)"/><path class="cls-11" d="M744.13,476.37h3.6V471.1h-3.6v5.27Zm4.07.47h-4.54v-6.21h4.54v6.21Z" transform="translate(-383.14 -253.26)"/><path class="cls-11" d="M736.85,476.37h3.61V471.1h-3.61v5.27Zm4.08.47h-4.55v-6.21h4.55v6.21Z" transform="translate(-383.14 -253.26)"/><path class="cls-11" d="M729.24,476.37h3.6V471.1h-3.6v5.27Zm4.07.47h-4.54v-6.21h4.54v6.21Z" transform="translate(-383.14 -253.26)"/><path class="cls-11" d="M721.8,476.37h3.6V471.1h-3.6v5.27Zm4.07.47h-4.54v-6.21h4.54v6.21Z" transform="translate(-383.14 -253.26)"/><path class="cls-11" d="M714.74,476.37h3.6V471.1h-3.6v5.27Zm4.07.47h-4.54v-6.21h4.54v6.21Z" transform="translate(-383.14 -253.26)"/><path class="cls-11" d="M707.55,476.37h3.6V471.1h-3.6v5.27Zm4.07.47h-4.54v-6.21h4.54v6.21Z" transform="translate(-383.14 -253.26)"/><path class="cls-11" d="M700.05,476.37h3.6V471.1h-3.6v5.27Zm4.07.47h-4.54v-6.21h4.54v6.21Z" transform="translate(-383.14 -253.26)"/><path class="cls-11" d="M692.44,476.37H696V471.1h-3.6v5.27Zm4.07.47H692v-6.21h4.54v6.21Z" transform="translate(-383.14 -253.26)"/><path class="cls-11" d="M685,476.37h3.61V471.1H685v5.27Zm4.07.47h-4.53v-6.21h4.53v6.21Z" transform="translate(-383.14 -253.26)"/><path class="cls-11" d="M677.94,476.37h3.6V471.1h-3.6v5.27Zm4.07.47h-4.54v-6.21H682v6.21Z" transform="translate(-383.14 -253.26)"/><path class="cls-11" d="M670.74,476.37h3.61V471.1h-3.61v5.27Zm4.07.47h-4.53v-6.21h4.53v6.21Z" transform="translate(-383.14 -253.26)"/><path class="cls-11" d="M663.47,476.37h3.6V471.1h-3.6v5.27Zm4.07.47H663v-6.21h4.54v6.21Z" transform="translate(-383.14 -253.26)"/><path class="cls-11" d="M655.85,476.37h3.61V471.1h-3.61v5.27Zm4.07.47h-4.53v-6.21h4.53v6.21Z" transform="translate(-383.14 -253.26)"/><path class="cls-11" d="M641.35,476.37H645V471.1h-3.61v5.27Zm4.07.47h-4.21a.32.32,0,0,1-.32-.33v-5.88h4.53v6.21Z" transform="translate(-383.14 -253.26)"/><path class="cls-11" d="M648.41,476.37H652V471.1h-3.6v5.27Zm4.07.47h-4.54v-6.21h4.54v6.21Z" transform="translate(-383.14 -253.26)"/><path class="cls-11" d="M634.16,475.16l3.6.62V471.1h-3.6v4.06Zm4.07,1.17-4.54-.78v-4.92h4.54v5.7Z" transform="translate(-383.14 -253.26)"/><path class="cls-11" d="M773.43,486.34H777v-5.27h-3.61v5.27Zm4.08.47H773V480.6h4.54v6.21Z" transform="translate(-383.14 -253.26)"/><path class="cls-11" d="M765.82,486.34h3.6v-5.27h-3.6v5.27Zm4.07.47h-4.54V480.6h4.54v6.21Z" transform="translate(-383.14 -253.26)"/><path class="cls-11" d="M758.38,486.34H762v-5.27h-3.6v5.27Zm4.07.47h-4.54V480.6h4.54v6.21Z" transform="translate(-383.14 -253.26)"/><path class="cls-11" d="M751.32,486.34h3.61v-5.27h-3.61v5.27Zm4.07.47h-4.54V480.6h4.54v6.21Z" transform="translate(-383.14 -253.26)"/><path class="cls-11" d="M744.13,486.34h3.6v-5.27h-3.6v5.27Zm4.07.47h-4.54V480.6h4.54v6.21Z" transform="translate(-383.14 -253.26)"/><path class="cls-11" d="M736.85,486.34h3.61v-5.27h-3.61v5.27Zm4.08.47h-4.55V480.6h4.55v6.21Z" transform="translate(-383.14 -253.26)"/><path class="cls-11" d="M729.24,486.34h3.6v-5.27h-3.6v5.27Zm4.07.47h-4.54V480.6h4.54v6.21Z" transform="translate(-383.14 -253.26)"/><path class="cls-11" d="M721.8,486.34h3.6v-5.27h-3.6v5.27Zm4.07.47h-4.54V480.6h4.54v6.21Z" transform="translate(-383.14 -253.26)"/><path class="cls-11" d="M714.74,486.34h3.6v-5.27h-3.6v5.27Zm4.07.47h-4.54V480.6h4.54v6.21Z" transform="translate(-383.14 -253.26)"/><path class="cls-11" d="M707.55,486.34h3.6v-5.27h-3.6v5.27Zm4.07.47h-4.54V480.6h4.54v6.21Z" transform="translate(-383.14 -253.26)"/><path class="cls-11" d="M700.05,486.34h3.6v-5.27h-3.6v5.27Zm4.07.47h-4.54V480.6h4.54v6.21Z" transform="translate(-383.14 -253.26)"/><path class="cls-11" d="M692.44,486.34H696v-5.27h-3.6v5.27Zm4.07.47H692V480.6h4.54v6.21Z" transform="translate(-383.14 -253.26)"/><path class="cls-11" d="M685,486.34h3.61v-5.27H685v5.27Zm4.07.47h-4.53V480.6h4.53v6.21Z" transform="translate(-383.14 -253.26)"/><path class="cls-11" d="M677.94,486.34h3.6v-5.27h-3.6v5.27Zm4.07.47h-4.54V480.6H682v6.21Z" transform="translate(-383.14 -253.26)"/><path class="cls-11" d="M670.74,486.34h3.61v-5.27h-3.61v5.27Zm4.07.47h-4.53V480.6h4.53v6.21Z" transform="translate(-383.14 -253.26)"/><path class="cls-11" d="M663.47,486.34h3.6v-5.27h-3.6v5.27Zm4.07.47H663V480.6h4.54v6.21Z" transform="translate(-383.14 -253.26)"/><path class="cls-11" d="M655.85,486.34h3.61v-5.27h-3.61v5.27Zm4.07.47h-4.53V480.6h4.53v6.21Z" transform="translate(-383.14 -253.26)"/><path class="cls-11" d="M591,506.61h8.59V469.73H591v36.88Zm9.06.47H590.5V469.26H600v37.82Z" transform="translate(-383.14 -253.26)"/><path class="cls-11" d="M805.75,466.73h13.36V452.47h-6.63l0-11.94v11.94h-6.71v14.26Zm13.83.47h-14.3V452H812V440.06h1V452h6.63v15.2Z" transform="translate(-383.14 -253.26)"/><path class="cls-11" d="M852.8,421.41Zm-25.22-8.93V452h6.5V434.79h18.48V426.1l-15,0V421.2l15,0v-8.69h-3.88l0-4v4h-17.6l0-4v4Zm-.46,40V412h3.44v-4h1v4h16.67v-4h1v4H853v9.62l-15,0v4l15,0v9.62H834.54v17.23l-7.42,0Z" transform="translate(-383.14 -253.26)"/><path class="cls-11" d="M651.73,530.3a.23.23,0,0,1-.23-.23V478.61l-51.74-8.89a.24.24,0,0,1-.2-.27.25.25,0,0,1,.27-.19L652,478.21v51.86a.23.23,0,0,1-.24.23Z" transform="translate(-383.14 -253.26)"/><path class="cls-11" d="M587.17,550.18H651.5v-43.1H587.17v43.1Zm64.8.47H586.71v-44H652v44Z" transform="translate(-383.14 -253.26)"/><path class="cls-11" d="M587.17,494.73H651.5V481H587.17v13.7Zm64.8.47H586.71V480.57H652V495.2Z" transform="translate(-383.14 -253.26)"/><path class="cls-11" d="M644.23,522.86h2.86v-4.22h-2.86v4.22Zm3.33.47h-3.8v-5.16h3.8v5.16Z" transform="translate(-383.14 -253.26)"/><path class="cls-11" d="M638,522.86h2.87v-4.22H638v4.22Zm3.33.47h-3.79v-5.16h3.79v5.16Z" transform="translate(-383.14 -253.26)"/><path class="cls-11" d="M631.92,522.86h2.86v-4.22h-2.86v4.22Zm3.33.47h-3.8v-5.16h3.8v5.16Z" transform="translate(-383.14 -253.26)"/><path class="cls-11" d="M626.15,522.86H629v-4.22h-2.86v4.22Zm3.33.47h-3.79v-5.16h3.79v5.16Z" transform="translate(-383.14 -253.26)"/><path class="cls-11" d="M620.27,522.86h2.86v-4.22h-2.86v4.22Zm3.33.47h-3.79v-5.16h3.79v5.16Z" transform="translate(-383.14 -253.26)"/><path class="cls-11" d="M614.33,522.86h2.86v-4.22h-2.86v4.22Zm3.33.47h-3.8v-5.16h3.8v5.16Z" transform="translate(-383.14 -253.26)"/><path class="cls-11" d="M608.11,522.86H611v-4.22h-2.86v4.22Zm3.32.47h-3.79v-5.16h3.79v5.16Z" transform="translate(-383.14 -253.26)"/><path class="cls-11" d="M602,522.86h2.86v-4.22H602v4.22Zm3.33.47h-3.8v-5.16h3.8v5.16Z" transform="translate(-383.14 -253.26)"/><path class="cls-11" d="M596.25,522.86h2.86v-4.22h-2.86v4.22Zm3.33.47h-3.79v-5.16h3.79v5.16Z" transform="translate(-383.14 -253.26)"/><path class="cls-11" d="M590.37,522.86h2.86v-4.22h-2.86v4.22Zm3.33.47h-3.79v-5.16h3.79v5.16Z" transform="translate(-383.14 -253.26)"/><path class="cls-11" d="M644.23,531.14h2.86v-4.22h-2.86v4.22Zm3.33.47h-3.8v-5.16h3.8v5.16Z" transform="translate(-383.14 -253.26)"/><path class="cls-11" d="M638,531.14h2.87v-4.22H638v4.22Zm3.33.47h-3.79v-5.16h3.79v5.16Z" transform="translate(-383.14 -253.26)"/><path class="cls-11" d="M631.92,531.14h2.86v-4.22h-2.86v4.22Zm3.33.47h-3.8v-5.16h3.8v5.16Z" transform="translate(-383.14 -253.26)"/><path class="cls-11" d="M626.15,531.14H629v-4.22h-2.86v4.22Zm3.33.47h-3.79v-5.16h3.79v5.16Z" transform="translate(-383.14 -253.26)"/><path class="cls-11" d="M620.27,531.14h2.86v-4.22h-2.86v4.22Zm3.33.47h-3.79v-5.16h3.79v5.16Z" transform="translate(-383.14 -253.26)"/><path class="cls-11" d="M614.33,531.14h2.86v-4.22h-2.86v4.22Zm3.33.47h-3.8v-5.16h3.8v5.16Z" transform="translate(-383.14 -253.26)"/><path class="cls-11" d="M608.11,531.14H611v-4.22h-2.86v4.22Zm3.32.47h-3.79v-5.16h3.79v5.16Z" transform="translate(-383.14 -253.26)"/><path class="cls-11" d="M602,531.14h2.86v-4.22H602v4.22Zm3.33.47h-3.8v-5.16h3.8v5.16Z" transform="translate(-383.14 -253.26)"/><path class="cls-11" d="M596.25,531.14h2.86v-4.22h-2.86v4.22Zm3.33.47h-3.79v-5.16h3.79v5.16Z" transform="translate(-383.14 -253.26)"/><path class="cls-11" d="M590.37,531.14h2.86v-4.22h-2.86v4.22Zm3.33.47h-3.79v-5.16h3.79v5.16Z" transform="translate(-383.14 -253.26)"/><path class="cls-11" d="M644.23,502.93h2.86V498.7h-2.86v4.23Zm3.33.46h-3.8v-5.15h3.8v5.15Z" transform="translate(-383.14 -253.26)"/><path class="cls-11" d="M638,502.93h2.87V498.7H638v4.23Zm3.33.46h-3.79v-5.15h3.79v5.15Z" transform="translate(-383.14 -253.26)"/><path class="cls-11" d="M631.92,502.93h2.86V498.7h-2.86v4.23Zm3.33.46h-3.8v-5.15h3.8v5.15Z" transform="translate(-383.14 -253.26)"/><path class="cls-11" d="M626.15,502.93H629V498.7h-2.86v4.23Zm3.33.46h-3.79v-5.15h3.79v5.15Z" transform="translate(-383.14 -253.26)"/><path class="cls-11" d="M620.27,502.93h2.86V498.7h-2.86v4.23Zm3.33.46h-3.79v-5.15h3.79v5.15Z" transform="translate(-383.14 -253.26)"/><path class="cls-11" d="M614.33,502.93h2.86V498.7h-2.86v4.23Zm3.33.46h-3.8v-5.15h3.8v5.15Z" transform="translate(-383.14 -253.26)"/><path class="cls-11" d="M608.11,502.93H611V498.7h-2.86v4.23Zm3.32.46h-3.79v-5.15h3.79v5.15Z" transform="translate(-383.14 -253.26)"/><path class="cls-11" d="M602,502.93h2.86V498.7H602v4.23Zm3.33.46h-3.8v-5.15h3.8v5.15Z" transform="translate(-383.14 -253.26)"/><path class="cls-11" d="M644.23,514.46h2.86v-4.22h-2.86v4.22Zm3.33.47h-3.8v-5.16h3.8v5.16Z" transform="translate(-383.14 -253.26)"/><path class="cls-11" d="M638,514.46h2.87v-4.22H638v4.22Zm3.33.47h-3.79v-5.16h3.79v5.16Z" transform="translate(-383.14 -253.26)"/><path class="cls-11" d="M631.92,514.46h2.86v-4.22h-2.86v4.22Zm3.33.47h-3.8v-5.16h3.8v5.16Z" transform="translate(-383.14 -253.26)"/><path class="cls-11" d="M626.15,514.46H629v-4.22h-2.86v4.22Zm3.33.47h-3.79v-5.16h3.79v5.16Z" transform="translate(-383.14 -253.26)"/><path class="cls-11" d="M620.27,514.46h2.86v-4.22h-2.86v4.22Zm3.33.47h-3.79v-5.16h3.79v5.16Z" transform="translate(-383.14 -253.26)"/><path class="cls-11" d="M614.33,514.46h2.86v-4.22h-2.86v4.22Zm3.33.47h-3.8v-5.16h3.8v5.16Z" transform="translate(-383.14 -253.26)"/><path class="cls-11" d="M608.11,514.46H611v-4.22h-2.86v4.22Zm3.32.47h-3.79v-5.16h3.79v5.16Z" transform="translate(-383.14 -253.26)"/><path class="cls-11" d="M602,514.46h2.86v-4.22H602v4.22Zm3.33.47h-3.8v-5.16h3.8v5.16Z" transform="translate(-383.14 -253.26)"/><path class="cls-11" d="M596.25,514.46h2.86v-4.22h-2.86v4.22Zm3.33.47h-3.79v-5.16h3.79v5.16Z" transform="translate(-383.14 -253.26)"/><path class="cls-11" d="M590.37,514.46h2.86v-4.22h-2.86v4.22Zm3.33.47h-3.79v-5.16h3.79v5.16Z" transform="translate(-383.14 -253.26)"/><path class="cls-11" d="M644.23,539.29h2.86v-4.22h-2.86v4.22Zm3.33.47h-3.8V534.6h3.8v5.16Z" transform="translate(-383.14 -253.26)"/><path class="cls-11" d="M638,539.29h2.87v-4.22H638v4.22Zm3.33.47h-3.79V534.6h3.79v5.16Z" transform="translate(-383.14 -253.26)"/><path class="cls-11" d="M631.92,539.29h2.86v-4.22h-2.86v4.22Zm3.33.47h-3.8V534.6h3.8v5.16Z" transform="translate(-383.14 -253.26)"/><path class="cls-11" d="M626.15,539.29H629v-4.22h-2.86v4.22Zm3.33.47h-3.79V534.6h3.79v5.16Z" transform="translate(-383.14 -253.26)"/><path class="cls-11" d="M620.27,539.29h2.86v-4.22h-2.86v4.22Zm3.33.47h-3.79V534.6h3.79v5.16Z" transform="translate(-383.14 -253.26)"/><path class="cls-11" d="M614.33,539.29h2.86v-4.22h-2.86v4.22Zm3.33.47h-3.8V534.6h3.8v5.16Z" transform="translate(-383.14 -253.26)"/><path class="cls-11" d="M608.11,539.29H611v-4.22h-2.86v4.22Zm3.32.47h-3.79V534.6h3.79v5.16Z" transform="translate(-383.14 -253.26)"/><path class="cls-11" d="M602,539.29h2.86v-4.22H602v4.22Zm3.33.47h-3.8V534.6h3.8v5.16Z" transform="translate(-383.14 -253.26)"/><path class="cls-11" d="M596.25,539.29h2.86v-4.22h-2.86v4.22Zm3.33.47h-3.79V534.6h3.79v5.16Z" transform="translate(-383.14 -253.26)"/><path class="cls-11" d="M590.37,539.29h2.86v-4.22h-2.86v4.22Zm3.33.47h-3.79V534.6h3.79v5.16Z" transform="translate(-383.14 -253.26)"/><path class="cls-11" d="M603.51,469.89l.49.09V460h-.49v9.89Zm1,.64-1.43-.24V459.53h1.43v11Z" transform="translate(-383.14 -253.26)"/><path class="cls-11" d="M644.23,489.38h2.33V485h-2.33v4.37Zm2.79.47h-3.26v-5.3H647v5.3Z" transform="translate(-383.14 -253.26)"/><path class="cls-11" d="M616.47,489.38h2.32V485h-2.32v4.37Zm2.79.47H616v-5.3h3.26v5.3Z" transform="translate(-383.14 -253.26)"/><path class="cls-11" d="M594.38,489.38h2.33V485h-2.33v4.37Zm2.8.47h-3.27v-5.3h3.27v5.3Z" transform="translate(-383.14 -253.26)"/><path class="cls-11" d="M731.28,549.93h92.78V495.85H731.28v54.08Zm93.24.47H730.81v-55h93.71v55Z" transform="translate(-383.14 -253.26)"/><path class="cls-11" d="M734.93,508.57h4.51v-7.12h-4.51v7.12Zm5,.47h-5.43V501h5.43V509Z" transform="translate(-383.14 -253.26)"/><path class="cls-11" d="M743.7,508.57h4.5v-7.12h-4.5v7.12Zm5,.47h-5.44V501h5.44V509Z" transform="translate(-383.14 -253.26)"/><path class="cls-11" d="M752.53,508.57H757v-7.12h-4.5v7.12Zm5,.47h-5.44V501h5.44V509Z" transform="translate(-383.14 -253.26)"/><path class="cls-11" d="M761.29,508.57h4.51v-7.12h-4.51v7.12Zm5,.47h-5.43V501h5.43V509Z" transform="translate(-383.14 -253.26)"/><path class="cls-11" d="M770.32,508.57h4.51v-7.12h-4.51v7.12Zm5,.47h-5.44V501h5.44V509Z" transform="translate(-383.14 -253.26)"/><path class="cls-11" d="M779.09,508.57h4.5v-7.12h-4.5v7.12Zm5,.47h-5.44V501h5.44V509Z" transform="translate(-383.14 -253.26)"/><path class="cls-11" d="M787.91,508.57h4.51v-7.12h-4.51v7.12Zm5,.47h-5.44V501h5.44V509Z" transform="translate(-383.14 -253.26)"/><path class="cls-11" d="M796.68,508.57h4.5v-7.12h-4.5v7.12Zm5,.47h-5.44V501h5.44V509Z" transform="translate(-383.14 -253.26)"/><path class="cls-11" d="M805.88,508.57h4.5v-7.12h-4.5v7.12Zm5,.47h-5.43V501h5.43V509Z" transform="translate(-383.14 -253.26)"/><path class="cls-11" d="M814.64,508.57h4.5v-7.12h-4.5v7.12Zm5,.47h-5.44V501h5.44V509Z" transform="translate(-383.14 -253.26)"/><path class="cls-11" d="M734.93,519.79h4.51v-7.12h-4.51v7.12Zm5,.47h-5.43V512.2h5.43v8.06Z" transform="translate(-383.14 -253.26)"/><path class="cls-11" d="M743.7,519.79h4.5v-7.12h-4.5v7.12Zm5,.47h-5.44V512.2h5.44v8.06Z" transform="translate(-383.14 -253.26)"/><path class="cls-11" d="M752.53,519.79H757v-7.12h-4.5v7.12Zm5,.47h-5.44V512.2h5.44v8.06Z" transform="translate(-383.14 -253.26)"/><path class="cls-11" d="M761.29,519.79h4.51v-7.12h-4.51v7.12Zm5,.47h-5.43V512.2h5.43v8.06Z" transform="translate(-383.14 -253.26)"/><path class="cls-11" d="M770.32,519.79h4.51v-7.12h-4.51v7.12Zm5,.47h-5.44V512.2h5.44v8.06Z" transform="translate(-383.14 -253.26)"/><path class="cls-11" d="M779.09,519.79h4.5v-7.12h-4.5v7.12Zm5,.47h-5.44V512.2h5.44v8.06Z" transform="translate(-383.14 -253.26)"/><path class="cls-11" d="M787.91,519.79h4.51v-7.12h-4.51v7.12Zm5,.47h-5.44V512.2h5.44v8.06Z" transform="translate(-383.14 -253.26)"/><path class="cls-11" d="M796.68,519.79h4.5v-7.12h-4.5v7.12Zm5,.47h-5.44V512.2h5.44v8.06Z" transform="translate(-383.14 -253.26)"/><path class="cls-11" d="M805.88,519.79h4.5v-7.12h-4.5v7.12Zm5,.47h-5.43V512.2h5.43v8.06Z" transform="translate(-383.14 -253.26)"/><path class="cls-11" d="M814.64,519.79h4.5v-7.12h-4.5v7.12Zm5,.47h-5.44V512.2h5.44v8.06Z" transform="translate(-383.14 -253.26)"/><path class="cls-11" d="M734.93,531.85h4.51v-7.12h-4.51v7.12Zm5,.47h-5.43v-8.06h5.43v8.06Z" transform="translate(-383.14 -253.26)"/><path class="cls-11" d="M743.7,531.85h4.5v-7.12h-4.5v7.12Zm5,.47h-5.44v-8.06h5.44v8.06Z" transform="translate(-383.14 -253.26)"/><path class="cls-11" d="M752.53,531.85H757v-7.12h-4.5v7.12Zm5,.47h-5.44v-8.06h5.44v8.06Z" transform="translate(-383.14 -253.26)"/><path class="cls-11" d="M761.29,531.85h4.51v-7.12h-4.51v7.12Zm5,.47h-5.43v-8.06h5.43v8.06Z" transform="translate(-383.14 -253.26)"/><path class="cls-11" d="M770.32,531.85h4.51v-7.12h-4.51v7.12Zm5,.47h-5.44v-8.06h5.44v8.06Z" transform="translate(-383.14 -253.26)"/><path class="cls-11" d="M779.09,531.85h4.5v-7.12h-4.5v7.12Zm5,.47h-5.44v-8.06h5.44v8.06Z" transform="translate(-383.14 -253.26)"/><path class="cls-11" d="M787.91,531.85h4.51v-7.12h-4.51v7.12Zm5,.47h-5.44v-8.06h5.44v8.06Z" transform="translate(-383.14 -253.26)"/><path class="cls-11" d="M796.68,531.85h4.5v-7.12h-4.5v7.12Zm5,.47h-5.44v-8.06h5.44v8.06Z" transform="translate(-383.14 -253.26)"/><path class="cls-11" d="M805.88,531.85h4.5v-7.12h-4.5v7.12Zm5,.47h-5.43v-8.06h5.43v8.06Z" transform="translate(-383.14 -253.26)"/><path class="cls-11" d="M814.64,531.85h4.5v-7.12h-4.5v7.12Zm5,.47h-5.44v-8.06h5.44v8.06Z" transform="translate(-383.14 -253.26)"/><path class="cls-11" d="M734.93,543.08h4.51V536h-4.51v7.13Zm5,.47h-5.43v-8.06h5.43v8.06Z" transform="translate(-383.14 -253.26)"/><path class="cls-11" d="M743.7,543.08h4.5V536h-4.5v7.13Zm5,.47h-5.44v-8.06h5.44v8.06Z" transform="translate(-383.14 -253.26)"/><path class="cls-11" d="M752.53,543.08H757V536h-4.5v7.13Zm5,.47h-5.44v-8.06h5.44v8.06Z" transform="translate(-383.14 -253.26)"/><path class="cls-11" d="M761.29,543.08h4.51V536h-4.51v7.13Zm5,.47h-5.43v-8.06h5.43v8.06Z" transform="translate(-383.14 -253.26)"/><path class="cls-11" d="M770.32,543.08h4.51V536h-4.51v7.13Zm5,.47h-5.44v-8.06h5.44v8.06Z" transform="translate(-383.14 -253.26)"/><path class="cls-11" d="M779.09,543.08h4.5V536h-4.5v7.13Zm5,.47h-5.44v-8.06h5.44v8.06Z" transform="translate(-383.14 -253.26)"/><path class="cls-11" d="M787.91,543.08h4.51V536h-4.51v7.13Zm5,.47h-5.44v-8.06h5.44v8.06Z" transform="translate(-383.14 -253.26)"/><path class="cls-11" d="M796.68,543.08h4.5V536h-4.5v7.13Zm5,.47h-5.44v-8.06h5.44v8.06Z" transform="translate(-383.14 -253.26)"/><path class="cls-11" d="M805.88,543.08h4.5V536h-4.5v7.13Zm5,.47h-5.43v-8.06h5.43v8.06Z" transform="translate(-383.14 -253.26)"/><path class="cls-11" d="M814.64,543.08h4.5V536h-4.5v7.13Zm5,.47h-5.44v-8.06h5.44v8.06Z" transform="translate(-383.14 -253.26)"/><path class="cls-11" d="M792.4,495.39h19v-13.9l-19,7.27v6.63Zm19.46.46H791.93v-7.42l19.93-7.62v15Z" transform="translate(-383.14 -253.26)"/><path class="cls-11" d="M652,550.18H696V517.56L652,502.31v47.87Zm44.53.47h-45v-49l45,15.58v33.42Z" transform="translate(-383.14 -253.26)"/><path class="cls-11" d="M653.14,520h41.71v-1H653.14v1Zm42.18.47H652.68v-2h42.64v2Z" transform="translate(-383.14 -253.26)"/><path class="cls-11" d="M653.14,524.82h41.71v-1H653.14v1Zm42.18.46H652.68v-2h42.64v2Z" transform="translate(-383.14 -253.26)"/><path class="cls-11" d="M653.14,529.63h41.71v-1H653.14v1Zm42.18.47H652.68v-2h42.64v2Z" transform="translate(-383.14 -253.26)"/><path class="cls-11" d="M653.14,534.44h41.71v-1H653.14v1Zm42.18.47H652.68v-2h42.64v2Z" transform="translate(-383.14 -253.26)"/><path class="cls-11" d="M653.14,539.25h41.71v-1H653.14v1Zm42.18.47H652.68v-2h42.64v2Z" transform="translate(-383.14 -253.26)"/><path class="cls-11" d="M653.14,544.06h41.71v-1H653.14v1Zm42.18.47H652.68v-2h42.64v2Z" transform="translate(-383.14 -253.26)"/><path class="cls-11" d="M811.86,495.39h3.27v-14h-3.27v14Zm3.74.46h-4.21V480.91h4.21v14.94Z" transform="translate(-383.14 -253.26)"/><path class="cls-11" d="M800.16,493.15h7.12v-4.51h-7.12v4.51Zm7.59.46h-8.06v-5.44h8.06v5.44Z" transform="translate(-383.14 -253.26)"/><path class="cls-11" d="M656,410.45h2.11V389H656v21.42Zm2.58.47h-3V388.56h3v22.36Z" transform="translate(-383.14 -253.26)"/><path class="cls-11" d="M661.08,410.45h2.11V389h-2.11v21.42Zm2.58.47h-3V388.56h3v22.36Z" transform="translate(-383.14 -253.26)"/><path class="cls-11" d="M666.14,410.45h2.12V389h-2.12v21.42Zm2.58.47h-3V388.56h3v22.36Z" transform="translate(-383.14 -253.26)"/><path class="cls-11" d="M671.38,410.45h2.12V389h-2.12v21.42Zm2.58.47h-3V388.56h3v22.36Z" transform="translate(-383.14 -253.26)"/><path class="cls-12" d="M1429.51,576.33l-15.93,2.83c-1.58.28-2.7,1.48-2.49,2.65l57.06,320.58c.21,1.17,1.68,1.9,3.25,1.62l15.93-2.84c1.58-.28,2.71-1.47,2.5-2.64L1432.76,578c-.21-1.17-1.66-1.9-3.25-1.62Z" transform="translate(-383.14 -253.26)"/><path class="cls-7" d="M1429.51,576.33l-15.93,2.83c-1.58.28-2.7,1.48-2.49,2.65l1.77,9.93,21.67-3.86-1.77-9.93c-.21-1.17-1.66-1.9-3.25-1.62Z" transform="translate(-383.14 -253.26)"/><path class="cls-7" d="M1468.15,902.39c.21,1.17,1.68,1.9,3.25,1.62l15.93-2.84c1.58-.28,2.71-1.47,2.5-2.64L1488.3,890l-21.67,3.86,1.52,8.57Z" transform="translate(-383.14 -253.26)"/><path class="cls-4" d="M1425.42,598.73c-.9.16-1.55.84-1.42,1.51l50.22,282.17a1.51,1.51,0,0,0,1.86.93c.9-.16,1.54-.84,1.43-1.51l-50.23-282.18a1.51,1.51,0,0,0-1.86-.92Z" transform="translate(-383.14 -253.26)"/><path class="cls-13" d="M634.15,893.51l10.46-.14S628.88,875.9,624.05,867l-13.28-24.53-17.39,4.29,22.07,31.28,18.7,15.45Z" transform="translate(-383.14 -253.26)"/><path class="cls-14" d="M536,416.07c-4-2.28-8.81-2.53-12.18-2.33a5.76,5.76,0,0,1,2.57-1.22c-2.08-.31-6.74,1.76-6.74,1.76-29-11.18-21.95,31-21.34,41S477,468.89,461.86,476.7c-28.79,14.92-31.32,34.89-31.32,34.89.23.13.46.28.71.45,1.43-2.42,4.37-7,6.85-7.65a101.39,101.39,0,0,0-4,9.72c8.49,6.46,24.38,20.77,35.45,30.92-.05-2,0-4.8.76-6.29l1.37,8.24c5.92,5.45,10,9.28,10,9.28-.73-8,36.26-50.32,55.55-63,4.7-6.92,6.37-19.14,6.5-20.1-.81,9.69-2.47,15.12-4,18.18,16.34-15,6.83-69.24-3.81-75.28Z" transform="translate(-383.14 -253.26)"/><path class="cls-13" d="M536.11,493.9c.1,0-9.32,4.93-16.4,3-6.66-1.81-11-10.45-10.92-10.47,2.82-.56,3.64-4.44,3.58-21.09l1.27.25,21.44,4.24s-.48,6.75-.5,13.11c0,5.34.31,10.4,1.53,11Z" transform="translate(-383.14 -253.26)"/><path class="cls-15" d="M511.86,423.06s10.58-11.26,23.86-.57c0,0-7.73-1.34-23.86.57Z" transform="translate(-383.14 -253.26)"/><path class="cls-16" d="M535.08,469.82s-.48,6.75-.5,13.11c-12-.34-18.34-11.29-20.94-17.35l21.44,4.24Z" transform="translate(-383.14 -253.26)"/><path class="cls-14" d="M511.43,463.24s-6.29-9.93-7.8-18.43c-1.08-6.06,2-28.55,24.6-25.31A30.73,30.73,0,0,1,541,424.31c4.91,3.32,12,10.47,4.07,30.09L543,461l-31.55,2.21Z" transform="translate(-383.14 -253.26)"/><path class="cls-7" d="M620.55,858.44l-11.37.35-12.3.38s-28.42-31.64-44.36-82.36c-.37-1.18-.76-2.37-1.18-3.58C542.62,747.79,524.53,715.86,515,687q-2.28-6.9-4.1-13-.58-2-1.14-3.87c-7-24.41-9.05-40.43-10.93-57.55l60.86.49s19.07,117,60.86,245.45Z" transform="translate(-383.14 -253.26)"/><path class="cls-17" d="M558,573.51c.81,32.74,4.8,46.8,4.8,46.8s-29.46,15-64.48,4c-.42-.13,2.27-135.29,12.2-139,2.28,2.84,9.09,5.61,15.15,5.47,7-.15,9.24-3.14,8.87-6.4,7.44,4.14,22.3,42.31,23.46,89.19Z" transform="translate(-383.14 -253.26)"/><path class="cls-13" d="M539.09,475.84s-28.39.47-28.41-17.21-3.7-29.54,14.43-30.58,21.65,5.69,23.1,11.6-1.74,35.62-9.12,36.19Z" transform="translate(-383.14 -253.26)"/><path class="cls-14" d="M547.36,429.81c-4.38-5.31-7.69-4.15-9.55-2.56-6.14-9.16-25.53,4.09-25.53,4.09a37.52,37.52,0,0,0-11,20s5.18,3.2,17.11.13c9.39-2.42,16.2-15.78,18.68-21.36,1.68,1.5,5.25,5,6.31,8.36,1.42,4.51,2.06,13.78,4.76,13.46,0,0,5.85-14.1-.73-22.08Z" transform="translate(-383.14 -253.26)"/><path class="cls-13" d="M653.33,505.19s4-14.42,19.86-12.38c1.82.57,7.14,2.69,3.74,8.38-2.51,4.2-3.59,2-7.53,7.67s-8.22,6.91-13.11,6.24l-3-9.91Z" transform="translate(-383.14 -253.26)"/><path class="cls-13" d="M517.82,892.5c-1-5.31-2.8-14.5-2.8-14.5l.42-32.61h-19.8l7.41,31.21a31.79,31.79,0,0,1-1.52,13s-1.9,8.66,6.63,8.83,10.63-.65,9.66-6Z" transform="translate(-383.14 -253.26)"/><path class="cls-6" d="M501.53,889.63s-1.69,9.15-.73,13.49h17.93s.08-9.93-1.49-13.71c0,0-6.05,9.08-15.71.22Z" transform="translate(-383.14 -253.26)"/><path class="cls-6" d="M644.79,893.46l-.18-.09c-4.18.13-8.4-1.41-12.22-5.71-11.62-13.09-18.16-14.55-20.44-14.55-2,4-4.13,8.58-1.34,13.71l4.16,16.3h4.49l0-15.39c3,.78,5.84,2.19,7.12,4.77,3.14,6.27,5.32,10.62,8.24,10.62h20.17s-.39-5.31-10.05-9.66Z" transform="translate(-383.14 -253.26)"/><path class="cls-3" d="M653.33,505.19S634.69,515.61,628,518.62c-3.8,1.71-12.53,5.8-18.68,8.69A9.59,9.59,0,0,1,598,524.85c-10.11-11.8-36.28-37.39-63.29-40.53l0,.07-.16-.07S551,524.9,551.47,533.11s1.94,134.29,1.94,134.29-1,5.79,10.14,3.38,14-4.83,14-4.83-10.63-77.77-7.73-104.83a60.25,60.25,0,0,0-1.15-17.51c16.46,10,35.93,14.46,35.93,14.46s14.56-6.35,34.46-20.93c6.24-4.58,17.22-22,17.22-22l-3-9.91Z" transform="translate(-383.14 -253.26)"/><path class="cls-6" d="M609.18,858.79l-12.3.38s-28.42-31.64-44.36-82.36c-.37-1.18-.76-2.37-1.18-3.58C542.62,747.79,524.53,715.86,515,687q-2.28-6.9-4.1-13-.58-2-1.14-3.87l10.14-7.69s30.43,49.27,39.85,95.64c8.18,40.27,41,88.74,49.43,100.79Z" transform="translate(-383.14 -253.26)"/><path class="cls-7" d="M521,762.32c.17,22.55-1,74.38-3.91,95.85H506.16c-6,0-9-.09-9-.09-7.37-37.32-12.61-68.19-16.43-94.8-3.13-21.83-5.91-40.55-8.05-56.66s-3.65-29.8-4.19-41.27c-.08-1.81-.14-3.57-.17-5.27s-.05-3.39,0-5l59.46-5.8c-.75,39.51-6.86,99.93-6.76,113Z" transform="translate(-383.14 -253.26)"/><path class="cls-6" d="M506.16,858.17c-6,0-9-.09-9-.09-7.37-37.32-12.61-68.19-16.43-94.8-3.13-21.83-5.91-40.55-8.05-56.66s-3.65-29.8-4.19-41.27l21.82,12.83s-13.92,4.91-8.61,42.11,17.09,132.61,24.49,137.88Z" transform="translate(-383.14 -253.26)"/><path class="cls-3" d="M509,665s-4.18,15.14-18.68,13.2-35.09-10.62-35.09-10.62,6.19-19.57,13.89-45.28c9.32-31.12,20.86-71.25,26.3-96.55a156.75,156.75,0,0,0,3-17.26l12.2-23.22s17.75,40.13,18.71,50.27S509,665,509,665Z" transform="translate(-383.14 -253.26)"/><path class="cls-4" d="M508.32,556.78c-.64,16.42-4.51,48.3-39,65.37l-.27.13c9.32-31.12,20.86-71.25,26.3-96.55,6.33,9.46,13.29,22,12.94,31Z" transform="translate(-383.14 -253.26)"/><path class="cls-13" d="M570.67,547.8c0,2-5.69,15.69-15.7,23.89a10.83,10.83,0,0,1-4.73,2.57,207.77,207.77,0,0,1-41.9,9.88V566c14.17-.91,31.64-1.85,38.83-2.24a21.22,21.22,0,0,0,3-7.25c.86-5,3.54-8.71,10.51-9.62s10-1,9.95.95Z" transform="translate(-383.14 -253.26)"/><path class="cls-3" d="M510.54,485.25s-29.59,2-36.68,17.75-9.34,68.27-.32,83.73c0,0,12.42,3.53,34.37-.58l.81-.15s7-17.15.73-20.52c0,0-18.52,1-16.59-5.16s17.68-75.07,17.68-75.07Z" transform="translate(-383.14 -253.26)"/><path class="cls-11" d="M1134.2,639.59l-17.36-.24a1.92,1.92,0,0,0-.59-.1,1.81,1.81,0,0,0-.56.08c-2.27.69-4.07,5.63-4.12,11.64,0,.31,0,.62,0,.93a23.17,23.17,0,0,0,1.09,6.91c.68,2,1.63,3.39,2.71,3.81l.06,0a1.88,1.88,0,0,0,.62.11,1.74,1.74,0,0,0,.59-.1l151.77,2.05.16-11.61.15-11.7-134.53-1.81Z" transform="translate(-383.14 -253.26)"/><path class="cls-18" d="M1200.43,661.61c-32,2.67-51.29-11.6-66.23-22l-17.36-.24a1.92,1.92,0,0,0-.59-.1,1.81,1.81,0,0,0-.56.08c-2.27.69-4.07,5.63-4.12,11.64,0,.31,0,.62,0,.93a23.17,23.17,0,0,0,1.09,6.91c1.13,2.14,2.17,3.54,2.71,3.81l.06,0a1.88,1.88,0,0,0,.62.11,1.74,1.74,0,0,0,.59-.1l151.77,2.05.16-11.61c-2.22.6-17.29,4.27-68.15,8.51Z" transform="translate(-383.14 -253.26)"/><path class="cls-19" d="M1269,641.26c-2.54,0-4.64,5.22-4.69,11.71s2,11.78,4.49,11.8,4.63-5.22,4.69-11.72-2-11.77-4.49-11.79Z" transform="translate(-383.14 -253.26)"/><path class="cls-3" d="M517.2,407.43a32.24,32.24,0,0,0-13.47,6.63c-.33.28-.64.56-1,.85h0c-12.09,11.53-7.26,29.88-7.26,29.88a47.66,47.66,0,0,0,2.71,6.43c1.11,1.8,17.16-.28,18-3.74s4-7.05,4-7.05l18.06-1.25c3.83-.28,14.74-4.07,14.74-4.07-.13-1.07-6.27-35.11-35.83-27.69Z" transform="translate(-383.14 -253.26)"/><path class="cls-4" d="M563.05,431.52a57.4,57.4,0,0,0-11.2-1.25s-11,4.3-20.55,7.32c-4.47-5.63-11-19.56-27.57-23.53l-.15,0c-.35.45-.55.59-.8.89h0a3.78,3.78,0,0,0-.24.32c13.51,2.35,20.67,18,25.08,23.71-3.78.93-2.45,1.16-7.39,1.49,0,0,29.58.55,43.09-6.57a1.27,1.27,0,0,0-.27-2.35Z" transform="translate(-383.14 -253.26)"/><path class="cls-4" d="M1012.06,429.53c11.56-20.92,42.71-18.41,42.71-18.41-31.74-7.56-47.54,17.35-47.54,17.35l-1.37-.46L998.65,430l64.29,12.94-50.88-13.36Z" transform="translate(-383.14 -253.26)"/><polygon class="cls-9" points="565.26 650.81 553.45 650.81 553.45 418.11 565.26 418.11 565.26 650.81 565.26 650.81"/><polygon class="cls-9" points="1008.98 650.81 997.16 650.81 997.16 418.11 1008.98 418.11 1008.98 650.81 1008.98 650.81"/><polygon class="cls-9" points="516.88 420.92 516.88 409.1 1042.08 409.1 1042.08 420.92 516.88 420.92 516.88 420.92"/><polygon class="cls-10" points="565.26 429.8 553.45 429.8 553.45 420.92 565.26 420.92 565.26 429.8 565.26 429.8"/><polygon class="cls-10" points="1008.98 429.8 997.16 429.8 997.16 420.92 1008.98 420.92 1008.98 429.8 1008.98 429.8"/><path class="cls-3" d="M1412.08,640.82a31.59,31.59,0,0,0-4.54-4.73c-.47-.41-1-.81-1.49-1.22-5.37-4.13-14-8.18-24.41-3.9a23.2,23.2,0,0,0-7.13,4.58c-.47.44-.91.88-1.32,1.34-9.07,10-8.4,25.66-8.4,25.66l52.06-.28c.24-14.52-4.77-21.45-4.77-21.45Z" transform="translate(-383.14 -253.26)"/><path class="cls-4" d="M1402.23,662.35c-.14-2.19-1-20.15,5.31-26.26-.47-.41-.36-.33-.89-.74-6.76,7-7.29,24.71-7.27,27l-16.64.09c-.43-12.75-7.4-25.49-8.23-26.91a11.18,11.18,0,0,0-1,1c1.21,2.16,5.74,14.47,6.12,26l-14.87.07s13.85,3.66,24.29,3.59,27.77-3.87,27.77-3.87l-14.62.08Z" transform="translate(-383.14 -253.26)"/><path class="cls-11" d="M1237.37,639.24v23.31l-151.78.06a1.81,1.81,0,0,1-.6.11,2.11,2.11,0,0,1-.61-.1c-2.13-.72-3.82-5.17-4-10.7,0-.31,0-.62,0-.93,0-6,1.71-11,4-11.69a1.88,1.88,0,0,1,.57-.09,2,2,0,0,1,.59.09l151.91-.06Z" transform="translate(-383.14 -253.26)"/><path class="cls-18" d="M1237.37,650.94v11.61l-151.78.06a1.81,1.81,0,0,1-.6.11,2.11,2.11,0,0,1-.61-.1c-2.13-.72-3.82-5.17-4-10.7,7,2.56,46.19,11.51,87.67.06,49.2-13.59,67.12-.41,69.34-1Z" transform="translate(-383.14 -253.26)"/><path class="cls-19" d="M1237.61,639.1c-2.54,0-4.56,5.29-4.53,11.78s2.12,11.75,4.66,11.73,4.56-5.29,4.52-11.78-2.11-11.74-4.65-11.73Z" transform="translate(-383.14 -253.26)"/><path class="cls-20" d="M1056.28,485.65s37.13,38.33,38.92,52.79-17.67,37.07-17.67,37.07l-21.25-89.86Z" transform="translate(-383.14 -253.26)"/><path class="cls-14" d="M1040.4,883.35s-1.27,20.38-5.21,20.68c-.52,0-20,0-20,0l-24.86-.15s.16-6,7.43-7.26,19.43-6.37,23.84-16c4.63-10.1,18.8,2.66,18.8,2.66Z" transform="translate(-383.14 -253.26)"/><path class="cls-14" d="M1095.77,883.35s-1.27,20.38-5.21,20.68c-.52,0-20,0-20,0l-24.93-.09s.24-6.05,7.51-7.32,19.42-6.37,23.83-16c4.63-10.1,18.8,2.66,18.8,2.66Z" transform="translate(-383.14 -253.26)"/><path class="cls-6" d="M1012.87,664.8s6.5,41.58,30.75,115.4S1071.18,886,1071.18,886a106.05,106.05,0,0,0,13.49,1c4.39,0,12.53-1.68,12.53-1.68s.23-80.68-11-117.8-2.41-133.82-2.41-133.82l-71,31.16Z" transform="translate(-383.14 -253.26)"/><path class="cls-7" d="M1000.2,635.91s-.92,62.67,9.93,139.61,7.16,109.6,7.16,109.6,8.93,1.6,12.06,1.71c3.36.11,13.91-.85,13.91-.85s15.52-77,11.07-115.47,21.25-132.15,21.25-132.15l-75.38-2.45Z" transform="translate(-383.14 -253.26)"/><path class="cls-21" d="M1050.47,489.27l-12.24,9.07-17.71-3.73c.25-1.61,1.42-8.3,2.48-14.36.07-.36.13-.71.19-1.06.91-5.16,1.7-9.59,1.7-9.59l16.53-8.24,6.17-3.07c0,.11-.48,5.72-.55,6.54-1.15,14.55,3.43,24.44,3.43,24.44Z" transform="translate(-383.14 -253.26)"/><path class="cls-20" d="M1021.76,484.69c.39-.16,24.08-7.15,26.66-6.3s4.09,5.83,4.09,5.83L1013.76,493s3-6.2,8-8.29Z" transform="translate(-383.14 -253.26)"/><path class="cls-8" d="M1085.56,643.65c-4,18.32-70.85,20.49-88.07,3.86-2-1.89-2.06-10.71-1.32-22.6,1.44-23.23,6.08-58.17,6.26-76a142.34,142.34,0,0,1,2.85-25.45,208.31,208.31,0,0,1,8.48-30.45s32.65-10.56,38.75-8.76c29.43,8.64,37.06,141.11,33,159.43Z" transform="translate(-383.14 -253.26)"/><path class="cls-20" d="M996.17,624.91c1.44-23.23,6.08-58.17,6.26-76a142.34,142.34,0,0,1,2.85-25.45l19.64-3.46s19.2,78.42-28.75,104.94Z" transform="translate(-383.14 -253.26)"/><path class="cls-21" d="M1006.8,592.53a4.62,4.62,0,0,1-1.47,5.35c-2.81,2.15-4.63,5.62-4,8.17s6.81,6.69,8.95,6,6.48-4,6-5.36,2.93-11.77-2.28-15.79-7.22,1.61-7.22,1.61Z" transform="translate(-383.14 -253.26)"/><path class="cls-8" d="M1028.76,488.28s-19.15,3.58-34.41,26.07-25.3,39.2-22.49,47.31,28.43,36.21,32.85,36.21,11.55-3.21,11.95-10.44c0,0-18-27-14.49-31.09,1.52-1.73,23.42-19.51,26.55-11.47,5.17,13.28,0-56.59,0-56.59Z" transform="translate(-383.14 -253.26)"/><path class="cls-22" d="M1045.8,465.09c-3.63,6.94-17.16,13-22.8,15.16.07-.36.13-.71.19-1.06.91-5.16,1.7-9.59,1.7-9.59l16.53-8.24c3.66-.06,5.88.87,4.38,3.73Z" transform="translate(-383.14 -253.26)"/><path class="cls-21" d="M1019.62,471.31s29.2,3.36,31-14.85,6.8-30-11.77-33-22.88,3.67-25,9.6-1.82,36.87,5.73,38.21Z" transform="translate(-383.14 -253.26)"/><path class="cls-6" d="M1014.66,431.24s5.58,19.73,9.56,18.07,7.63-3,8.17,3.15-3.88,14.24,9.11,12.88,25.11-37.85,20.41-43.43c-13.57-16.09-66.08-9.87-47.25,9.33Z" transform="translate(-383.14 -253.26)"/><path class="cls-3" d="M1062.94,442.89,998.65,430l7.21-1.94s6.6-27.22,39.17-20.71c27.08,5.41,17.91,35.59,17.91,35.59Z" transform="translate(-383.14 -253.26)"/><path class="cls-23" d="M1535.18,906.72h-1150a2.07,2.07,0,0,1-2.07-2.07h0a2.07,2.07,0,0,1,2.07-2.07h1150a2.08,2.08,0,0,1,2.08,2.07h0a2.08,2.08,0,0,1-2.08,2.07Z" transform="translate(-383.14 -253.26)"/></svg>