<svg id="Layer_1" data-name="Layer 1" xmlns="http://www.w3.org/2000/svg" xmlns:xlink="http://www.w3.org/1999/xlink" viewBox="0 0 108.09 93"><defs><style>.cls-1,.cls-2,.cls-4{fill:#fff;fill-opacity:0}.cls-1,.cls-4,.cls-5{stroke:#fff}.cls-1,.cls-5{stroke-miterlimit:10;}.cls-3{clip-path:url(#clip-path);}.cls-4{stroke-width:0.49px;}.cls-5{fill:none;}.cls-6{isolation:isolate;}</style><clipPath id="clip-path" transform="translate(0.5 -4.5)"><rect class="cls-1" y="5" width="106.98" height="92"/></clipPath></defs><g id="Group_3635" data-name="Group 3635"><g id="Group_3617" data-name="Group 3617"><g id="Group_3348" data-name="Group 3348"><rect class="cls-2" x="0.5" y="0.5" width="106.98" height="92"/><g class="cls-3"><g id="Group_3347" data-name="Group 3347"><path id="Path_11631" data-name="Path 11631" class="cls-4" d="M89,69.5l2.89,1.6v3.5H92v-.2S63.32,65.5,53.78,63.2a54.41,54.41,0,0,0-12.72-1.3,138.67,138.67,0,0,0-17,1.4c-4.72.6-9.25,1.4-13.1,2S4.24,66.5,2.7,66.6v.2l.19-.1L2.6,65.6l-.19.1.1.2,14.84-9.1L26.6,25.4l-.19-.1.09.2h0c.49-.4,8-7.6,23.62-7.6a19.43,19.43,0,0,1,2.41.1A38.51,38.51,0,0,1,78.74,29.9l.19-.3a38.89,38.89,0,0,0-26.4-12c-.87,0-1.64-.1-2.41-.1-16.29,0-23.9,7.7-23.9,7.7h0L17,56.5,2.31,65.6l.1.2.29,1.1v.2h.09c1.55-.1,4.53-.6,8.29-1.3s8.39-1.4,13-2A136.86,136.86,0,0,1,41,62.5a59.58,59.58,0,0,1,12.63,1.3c4.82,1.1,14.36,3.9,22.74,6.4,4.15,1.3,8.1,2.4,10.89,3.3,1.45.4,2.61.8,3.38,1l1.25.4L92,75V71L89,69.3v.2" transform="translate(0.5 -4.5)"/><path id="Path_11632" data-name="Path 11632" class="cls-4" d="M26.5,63.2s24.68,4.5,26.41,4.7a3.57,3.57,0,0,0,2-.7c1.54-.7,3.75-1.4,7.8.7,6.36,3.1,8,14.7,8.77,17.4s7.81,7.1,7.81,7.1l2.6-7.7s-3.66-3.1-4.72-5.6.87-6,3.76-5.6c2.12.4,4.34,1,6.36,1.6l1.16-1.6S63,65.8,56.19,64.1s-12.34-2.7-29.69-.9" transform="translate(0.5 -4.5)"/><path id="Path_11633" data-name="Path 11633" class="cls-4" d="M89.15,69.1S64.48,60,50.41,57.9a47.45,47.45,0,0,0-5.4-.4c-7.42,0-16.1,1.7-23.9,3.6S6.46,65,2.51,65.5v.4c4-.5,10.89-2.5,18.69-4.3S37.59,58,45,58a31.53,31.53,0,0,1,5.3.4c7,1,16.67,3.8,24.58,6.3,4,1.3,7.51,2.5,10,3.4,1.25.4,2.31.8,3,1.1a7.43,7.43,0,0,0,1.06.4l.19-.5" transform="translate(0.5 -4.5)"/><path id="Path_11634" data-name="Path 11634" class="cls-4" d="M34.12,27.6a28.15,28.15,0,0,0-5.4,4.9,25.46,25.46,0,0,0-4,8.1C20.05,54,19.28,56.4,19.28,56.4l.19.1v-.2l-2.31.2v.4l2.4-.2v-.1a2.52,2.52,0,0,1,.2-.6c.38-1.3,1.73-5.1,5.2-15.2a25,25,0,0,1,4.05-8,24.73,24.73,0,0,1,5.3-4.8Z" transform="translate(0.5 -4.5)"/><path id="Path_11635" data-name="Path 11635" class="cls-4" d="M78,28.3a15.29,15.29,0,0,0-2.7-1.7,45.23,45.23,0,0,0-20.62-5,41.3,41.3,0,0,0-6.07.5,36.69,36.69,0,0,0-10.7,3.2l.09.4a36.22,36.22,0,0,1,10.61-3.2,41.3,41.3,0,0,1,6.07-.5,45.7,45.7,0,0,1,15.42,2.8A47.09,47.09,0,0,1,75.18,27a16.84,16.84,0,0,1,2.6,1.6l.19-.3" transform="translate(0.5 -4.5)"/><path id="Path_11636" data-name="Path 11636" class="cls-4" d="M95.7,53.5l-1.83-1.8-.09.2,1.83,1.8Z" transform="translate(0.5 -4.5)"/><path id="Path_11637" data-name="Path 11637" class="cls-4" d="M95.8,53.3a.5.5,0,0,1,.1.6.42.42,0,0,1-.48,0h-.1a.5.5,0,0,1-.1-.6.6.6,0,0,1,.58,0h0" transform="translate(0.5 -4.5)"/><path id="Path_11638" data-name="Path 11638" class="cls-4" d="M94,51.5a.42.42,0,0,0-.48,0v.1a.64.64,0,0,0,0,.6.41.41,0,0,0,.48,0h0a.61.61,0,0,0,0-.7" transform="translate(0.5 -4.5)"/><path id="Path_11639" data-name="Path 11639" class="cls-4" d="M95.13,60.2l.57-6.6h-.19l-.58,6.6Z" transform="translate(0.5 -4.5)"/><path id="Path_11640" data-name="Path 11640" class="cls-4" d="M95.32,60.3a.42.42,0,0,1-.39.4h0c-.19,0-.29-.2-.29-.4a.43.43,0,0,1,.39-.4h0c.19,0,.29.2.29.4" transform="translate(0.5 -4.5)"/><path id="Path_11641" data-name="Path 11641" class="cls-4" d="M95.9,53.6c0-.2-.1-.4-.29-.4s-.39.1-.39.3h0c0,.2.1.4.29.4s.39,0,.39-.3h0" transform="translate(0.5 -4.5)"/><path id="Path_11642" data-name="Path 11642" class="cls-4" d="M89.92,50.4l.58,9.9h.19l-.58-9.9Z" transform="translate(0.5 -4.5)"/><path id="Path_11643" data-name="Path 11643" class="cls-4" d="M89.73,50.4c0-.2.1-.4.29-.4a.42.42,0,0,1,.38.4h0c0,.2-.09.4-.29.4a.42.42,0,0,1-.38-.4h0" transform="translate(0.5 -4.5)"/><path id="Path_11644" data-name="Path 11644" class="cls-4" d="M90.31,60.3a.42.42,0,0,0,.38.4h0a.29.29,0,0,0,.29-.4.42.42,0,0,0-.38-.4h0c-.2,0-.39.1-.29.4" transform="translate(0.5 -4.5)"/><path id="Path_11645" data-name="Path 11645" class="cls-4" d="M93.68,43.9,90,50.3l.19.1L93.87,44Z" transform="translate(0.5 -4.5)"/><path id="Path_11646" data-name="Path 11646" class="cls-4" d="M93.49,43.8a.23.23,0,0,1,.38-.1h0c.2.1.2.4.1.6a.24.24,0,0,1-.39.1h0a.48.48,0,0,1-.09-.6" transform="translate(0.5 -4.5)"/><path id="Path_11647" data-name="Path 11647" class="cls-4" d="M89.83,50.1a.48.48,0,0,0,.09.6c.1.1.29.1.48-.1h0a.48.48,0,0,0-.09-.6.41.41,0,0,0-.48.1h0" transform="translate(0.5 -4.5)"/><rect id="Rectangle_1485" data-name="Rectangle 1485" class="cls-4" x="94.18" y="39.5" width="0.19" height="16.2"/><path id="Path_11648" data-name="Path 11648" class="cls-4" d="M94.07,60.2c0,.2-.2.3-.39.3s-.29-.2-.29-.4.19-.3.39-.3.29.2.29.4" transform="translate(0.5 -4.5)"/><path id="Path_11649" data-name="Path 11649" class="cls-4" d="M94.07,44c0-.2-.2-.3-.39-.3s-.29.2-.29.4.19.3.39.3.29-.2.29-.4" transform="translate(0.5 -4.5)"/><rect id="Rectangle_1486" data-name="Rectangle 1486" class="cls-4" x="91.1" y="37.5" width="0.19" height="7.4"/><path id="Path_11650" data-name="Path 11650" class="cls-4" d="M90.4,42c0-.2.2-.3.39-.3s.29.2.29.4-.19.3-.39.3-.29-.2-.29-.4" transform="translate(0.5 -4.5)"/><path id="Path_11651" data-name="Path 11651" class="cls-4" d="M90.4,49.4c0,.2.2.3.39.3s.29-.2.29-.4-.19-.3-.39-.3-.29.2-.29.4" transform="translate(0.5 -4.5)"/><path id="Path_11652" data-name="Path 11652" class="cls-4" d="M93.49,44.5l-2.7-2.6-.1.2,2.7,2.6Z" transform="translate(0.5 -4.5)"/><path id="Path_11653" data-name="Path 11653" class="cls-4" d="M93.68,44.3c.19.1.19.4.1.6a.24.24,0,0,1-.39.1h-.1a.48.48,0,0,1-.09-.6c0-.2.19-.3.48-.1-.1-.1-.1,0,0,0" transform="translate(0.5 -4.5)"/><path id="Path_11654" data-name="Path 11654" class="cls-4" d="M91,41.7a.41.41,0,0,0-.48,0v.1a.47.47,0,0,0,.1.6.41.41,0,0,0,.48,0v-.1a1.27,1.27,0,0,0-.1-.6" transform="translate(0.5 -4.5)"/><rect id="Rectangle_1487" data-name="Rectangle 1487" class="cls-4" x="92.83" y="34.2" width="0.19" height="5.1"/><path id="Path_11655" data-name="Path 11655" class="cls-4" d="M92.14,38.7c0-.2.19-.3.38-.3s.29.2.29.4-.19.3-.38.3-.29-.2-.29-.4" transform="translate(0.5 -4.5)"/><path id="Path_11656" data-name="Path 11656" class="cls-4" d="M92.14,43.8c0,.2.19.3.38.3s.29-.2.29-.4-.19-.3-.38-.3-.29.2-.29.4" transform="translate(0.5 -4.5)"/><rect id="Rectangle_1488" data-name="Rectangle 1488" class="cls-4" x="92.25" y="34.1" width="0.77" height="0.3"/><path id="Path_11657" data-name="Path 11657" class="cls-4" d="M91.75,39.1a.4.4,0,0,1,0-.8c.29,0,.39.1.39.4h0a.42.42,0,0,1-.39.4" transform="translate(0.5 -4.5)"/><path id="Path_11658" data-name="Path 11658" class="cls-4" d="M92.52,39.1a.36.36,0,0,0,.39-.4.36.36,0,0,0-.39-.4c-.29,0-.38.1-.38.4h0a.36.36,0,0,0,.38.4" transform="translate(0.5 -4.5)"/><rect id="Rectangle_1489" data-name="Rectangle 1489" class="cls-4" x="92.16" y="34.2" width="0.19" height="4.3"/><path id="Path_11659" data-name="Path 11659" class="cls-4" d="M92,43c0,.2-.19.3-.38.3s-.29-.2-.29-.4.19-.3.38-.3.29.2.29.4" transform="translate(0.5 -4.5)"/><path id="Path_11660" data-name="Path 11660" class="cls-4" d="M92,38.7c0-.2-.19-.3-.38-.3s-.29.2-.29.4.19.3.38.3a.29.29,0,0,0,.29-.4" transform="translate(0.5 -4.5)"/><rect id="Rectangle_1490" data-name="Rectangle 1490" class="cls-4" x="89.55" y="21.9" width="0.19" height="33.8"/><path id="Path_11661" data-name="Path 11661" class="cls-4" d="M89.54,60.2c0,.2-.2.3-.39.3s-.29-.2-.29-.4.19-.3.39-.3a.45.45,0,0,1,.29.4" transform="translate(0.5 -4.5)"/><path id="Path_11662" data-name="Path 11662" class="cls-4" d="M89.54,26.4c0-.2-.2-.3-.39-.3s-.29.2-.29.4.19.3.39.3a.45.45,0,0,0,.29-.4" transform="translate(0.5 -4.5)"/><rect id="Rectangle_1491" data-name="Rectangle 1491" class="cls-4" x="88.3" y="28.8" width="0.19" height="3.4"/><path id="Path_11663" data-name="Path 11663" class="cls-4" d="M87.51,33.3c0-.2.19-.3.39-.3s.29.2.29.4-.2.3-.39.3-.29-.2-.29-.4" transform="translate(0.5 -4.5)"/><path id="Path_11664" data-name="Path 11664" class="cls-4" d="M87.51,36.7c0,.2.19.3.39.3s.29-.2.29-.4-.2-.3-.39-.3-.29.2-.29.4" transform="translate(0.5 -4.5)"/><path id="Path_11665" data-name="Path 11665" class="cls-4" d="M89.15,31.9,87.9,33.1l.09.2,1.26-1.2Z" transform="translate(0.5 -4.5)"/><path id="Path_11666" data-name="Path 11666" class="cls-4" d="M89,31.7a.41.41,0,0,1,.48,0v.1a.47.47,0,0,1-.1.6.41.41,0,0,1-.48,0v-.1a.69.69,0,0,1,.1-.6" transform="translate(0.5 -4.5)"/><path id="Path_11667" data-name="Path 11667" class="cls-4" d="M87.7,33c-.19.1-.19.4-.09.6a.23.23,0,0,0,.38.1h.1a.5.5,0,0,0,.1-.6c-.1-.2-.29-.3-.49-.1h0" transform="translate(0.5 -4.5)"/><rect id="Rectangle_1492" data-name="Rectangle 1492" class="cls-4" x="86.08" y="34" width="0.19" height="21.7"/><path id="Path_11668" data-name="Path 11668" class="cls-4" d="M85.39,38.5c0-.2.19-.3.39-.3s.29.2.29.4-.2.3-.39.3-.29-.2-.29-.4" transform="translate(0.5 -4.5)"/><path id="Path_11669" data-name="Path 11669" class="cls-4" d="M85.39,60.2c0,.2.19.3.39.3s.29-.2.29-.4-.2-.3-.39-.3-.29.2-.29.4" transform="translate(0.5 -4.5)"/><path id="Path_11670" data-name="Path 11670" class="cls-4" d="M89.15,35.4l-3.47,3,.1.2,3.47-3Z" transform="translate(0.5 -4.5)"/><path id="Path_11671" data-name="Path 11671" class="cls-4" d="M89,35.2a.41.41,0,0,1,.48,0h0a.47.47,0,0,1-.1.6.41.41,0,0,1-.48,0h0a.64.64,0,0,1,.1-.6" transform="translate(0.5 -4.5)"/><path id="Path_11672" data-name="Path 11672" class="cls-4" d="M85.58,38.2c-.19.1-.19.4-.09.6a.23.23,0,0,0,.38.1h0c.2-.1.2-.4.1-.6s-.19-.2-.39-.1h0" transform="translate(0.5 -4.5)"/><path id="Path_11673" data-name="Path 11673" class="cls-4" d="M83.75,32.5l.77,27.8h.2L84,32.5Z" transform="translate(0.5 -4.5)"/><path id="Path_11674" data-name="Path 11674" class="cls-4" d="M83.46,32.5c0-.2.1-.4.29-.4a.42.42,0,0,1,.39.4h0c0,.2-.1.4-.29.4s-.39-.2-.39-.4h0" transform="translate(0.5 -4.5)"/><path id="Path_11675" data-name="Path 11675" class="cls-4" d="M84.24,60.2a.42.42,0,0,0,.38.4h0c.19,0,.39-.2.29-.4a.42.42,0,0,0-.39-.4h0c-.19,0-.28.2-.28.4" transform="translate(0.5 -4.5)"/><rect id="Rectangle_1493" data-name="Rectangle 1493" class="cls-4" x="78.86" y="27.8" width="5.49" height="0.3"/><path id="Path_11676" data-name="Path 11676" class="cls-4" d="M78.36,32.8a.36.36,0,0,1-.39-.4.36.36,0,0,1,.39-.4.36.36,0,0,1,.38.4h0a.36.36,0,0,1-.38.4" transform="translate(0.5 -4.5)"/><path id="Path_11677" data-name="Path 11677" class="cls-4" d="M83.85,32.8a.4.4,0,1,0-.39-.4h0a.36.36,0,0,0,.39.4" transform="translate(0.5 -4.5)"/><path id="Path_11678" data-name="Path 11678" class="cls-4" d="M77.68,60.2l.77-27.8h-.19l-.77,27.8Z" transform="translate(0.5 -4.5)"/><path id="Path_11679" data-name="Path 11679" class="cls-4" d="M78,60.2a.42.42,0,0,1-.38.4h0a.29.29,0,0,1-.29-.4.42.42,0,0,1,.38-.4h0c.1,0,.29.2.29.4" transform="translate(0.5 -4.5)"/><path id="Path_11680" data-name="Path 11680" class="cls-4" d="M78.65,32.5c0-.2-.1-.4-.29-.4a.42.42,0,0,0-.39.4h0c0,.2.1.4.29.4s.48-.2.39-.4h0" transform="translate(0.5 -4.5)"/><path id="Path_11681" data-name="Path 11681" class="cls-4" d="M82.6,30.4l.48,2.1.19-.1-.38-2.1Z" transform="translate(0.5 -4.5)"/><path id="Path_11682" data-name="Path 11682" class="cls-4" d="M82.4,30.4c-.09-.2.1-.4.29-.5s.39.1.39.3h0c.1.2-.1.4-.29.5a.52.52,0,0,1-.39-.3h0" transform="translate(0.5 -4.5)"/><path id="Path_11683" data-name="Path 11683" class="cls-4" d="M82.89,32.5c0,.2.19.3.38.3h0a.56.56,0,0,0,.29-.5c0-.2-.19-.3-.38-.3h0c-.29.1-.39.3-.29.5" transform="translate(0.5 -4.5)"/><rect id="Rectangle_1494" data-name="Rectangle 1494" class="cls-4" x="79.92" y="25.7" width="3.28" height="0.3"/><path id="Path_11684" data-name="Path 11684" class="cls-4" d="M79.42,30.7a.36.36,0,0,1-.39-.4.36.36,0,0,1,.39-.4.36.36,0,0,1,.38.4h0a.42.42,0,0,1-.38.4" transform="translate(0.5 -4.5)"/><path id="Path_11685" data-name="Path 11685" class="cls-4" d="M82.79,30.7a.4.4,0,1,0-.39-.4h0a.36.36,0,0,0,.39.4" transform="translate(0.5 -4.5)"/><path id="Path_11686" data-name="Path 11686" class="cls-4" d="M79.13,32.5l.48-2.1-.19-.1-.49,2.1Z" transform="translate(0.5 -4.5)"/><path id="Path_11687" data-name="Path 11687" class="cls-4" d="M79.32,32.5c0,.2-.19.3-.39.3h0a.55.55,0,0,1-.28-.5c0-.2.19-.3.38-.3h0a.56.56,0,0,1,.29.5" transform="translate(0.5 -4.5)"/><path id="Path_11688" data-name="Path 11688" class="cls-4" d="M79.8,30.4c.1-.2-.09-.4-.29-.5s-.38.1-.38.3h0c-.1.2.09.4.29.5a.51.51,0,0,0,.38-.3h0" transform="translate(0.5 -4.5)"/><path id="Path_11689" data-name="Path 11689" class="cls-4" d="M82.11,38.8l1.64,21.4H84L82.31,38.8Z" transform="translate(0.5 -4.5)"/><path id="Path_11690" data-name="Path 11690" class="cls-4" d="M81.92,38.9c0-.2.1-.4.29-.4a.43.43,0,0,1,.39.4h0c0,.2-.1.4-.29.4s-.39-.2-.39-.4h0" transform="translate(0.5 -4.5)"/><path id="Path_11691" data-name="Path 11691" class="cls-4" d="M83.56,60.3a.42.42,0,0,0,.39.4h0c.19,0,.29-.2.29-.4a.43.43,0,0,0-.39-.4h0c-.19,0-.29.2-.29.4" transform="translate(0.5 -4.5)"/><rect id="Rectangle_1495" data-name="Rectangle 1495" class="cls-4" x="80.4" y="34.2" width="2.31" height="0.3"/><path id="Path_11692" data-name="Path 11692" class="cls-4" d="M79.9,39.2a.4.4,0,0,1,0-.8c.29,0,.38.1.38.4h0a.36.36,0,0,1-.38.4" transform="translate(0.5 -4.5)"/><path id="Path_11693" data-name="Path 11693" class="cls-4" d="M82.21,39.2a.4.4,0,0,0,0-.8c-.29,0-.29.2-.29.4h0c0,.2.1.4.29.4" transform="translate(0.5 -4.5)"/><path id="Path_11694" data-name="Path 11694" class="cls-4" d="M78.36,60.2,80,38.8H79.8L78.16,60.2Z" transform="translate(0.5 -4.5)"/><path id="Path_11695" data-name="Path 11695" class="cls-4" d="M78.65,60.3a.43.43,0,0,1-.39.4h0c-.19,0-.29-.2-.29-.4a.42.42,0,0,1,.39-.4h0c.19,0,.29.2.29.4" transform="translate(0.5 -4.5)"/><path id="Path_11696" data-name="Path 11696" class="cls-4" d="M80.28,38.9c0-.2-.09-.4-.29-.4a.42.42,0,0,0-.38.4h0c0,.2.1.4.29.4s.38-.2.38-.4h0" transform="translate(0.5 -4.5)"/><path id="Path_11697" data-name="Path 11697" class="cls-4" d="M82.31,38.9l1.54-6.4-.19-.1-1.55,6.4Z" transform="translate(0.5 -4.5)"/><path id="Path_11698" data-name="Path 11698" class="cls-4" d="M82.6,38.9c0,.2-.2.3-.39.3h0a.37.37,0,0,1-.19-.5c0-.2.19-.3.38-.3h0a.76.76,0,0,1,.2.5" transform="translate(0.5 -4.5)"/><path id="Path_11699" data-name="Path 11699" class="cls-4" d="M84.14,32.6a.37.37,0,0,0-.19-.5.28.28,0,0,0-.39.2h0a.37.37,0,0,0,.19.5c.2.1.39,0,.39-.2h0" transform="translate(0.5 -4.5)"/><path id="Path_11700" data-name="Path 11700" class="cls-4" d="M80.09,38.8l-1.54-6.4-.19.1,1.54,6.4Z" transform="translate(0.5 -4.5)"/><path id="Path_11701" data-name="Path 11701" class="cls-4" d="M80.28,38.7a.37.37,0,0,1-.19.5.28.28,0,0,1-.38-.2h0a.37.37,0,0,1,.19-.5c.09-.1.29,0,.38.2h0" transform="translate(0.5 -4.5)"/><path id="Path_11702" data-name="Path 11702" class="cls-4" d="M78.65,32.3c0-.2-.2-.3-.39-.3h0a.37.37,0,0,0-.19.5c0,.2.19.3.38.3h0c.2,0,.29-.3.2-.5" transform="translate(0.5 -4.5)"/><rect id="Rectangle_1496" data-name="Rectangle 1496" class="cls-4" x="72.69" y="33.8" width="2.79" height="0.3"/><path id="Path_11703" data-name="Path 11703" class="cls-4" d="M75,38.1a.36.36,0,0,1,.39.4.36.36,0,0,1-.39.4c-.29,0-.38-.1-.38-.4h0c.09-.2.19-.4.38-.4" transform="translate(0.5 -4.5)"/><path id="Path_11704" data-name="Path 11704" class="cls-4" d="M72.19,38.1a.4.4,0,0,0,0,.8c.29,0,.38-.1.38-.4h0a.42.42,0,0,0-.38-.4" transform="translate(0.5 -4.5)"/><rect id="Rectangle_1497" data-name="Rectangle 1497" class="cls-4" x="75.39" y="34" width="0.19" height="2.8"/><path id="Path_11705" data-name="Path 11705" class="cls-4" d="M75.37,41.3c0,.2-.19.3-.39.3s-.29-.2-.29-.4.2-.3.39-.3.29.2.29.4" transform="translate(0.5 -4.5)"/><path id="Path_11706" data-name="Path 11706" class="cls-4" d="M75.37,38.5c0-.2-.19-.3-.39-.3s-.29.2-.29.4.2.3.39.3.29-.2.29-.4" transform="translate(0.5 -4.5)"/><rect id="Rectangle_1498" data-name="Rectangle 1498" class="cls-4" x="75.48" y="36.6" width="0.87" height="0.3"/><path id="Path_11707" data-name="Path 11707" class="cls-4" d="M76,40.9a.4.4,0,0,1,0,.8c-.29,0-.39-.1-.39-.4h0a.42.42,0,0,1,.39-.4" transform="translate(0.5 -4.5)"/><path id="Path_11708" data-name="Path 11708" class="cls-4" d="M75,40.9a.4.4,0,0,0,0,.8c.29,0,.39-.1.39-.4h0a.42.42,0,0,0-.39-.4" transform="translate(0.5 -4.5)"/><rect id="Rectangle_1499" data-name="Rectangle 1499" class="cls-4" x="76.25" y="36.8" width="0.19" height="19"/><path id="Path_11709" data-name="Path 11709" class="cls-4" d="M76.24,60.2c0,.2-.2.3-.39.3s-.29-.2-.29-.4.19-.3.39-.3.29.2.29.4" transform="translate(0.5 -4.5)"/><path id="Path_11710" data-name="Path 11710" class="cls-4" d="M76.24,41.3c0-.2-.2-.3-.39-.3s-.29.2-.29.4.19.3.39.3.29-.2.29-.4" transform="translate(0.5 -4.5)"/><path id="Path_11711" data-name="Path 11711" class="cls-4" d="M74.12,36.6l-1.84-2.3-.19.2,1.83,2.2Z" transform="translate(0.5 -4.5)"/><path id="Path_11712" data-name="Path 11712" class="cls-4" d="M74.31,36.4a.7.7,0,0,1,0,.6.31.31,0,0,1-.48,0h0a.64.64,0,0,1,0-.6c.09-.2.29-.2.48,0h0" transform="translate(0.5 -4.5)"/><path id="Path_11713" data-name="Path 11713" class="cls-4" d="M72.48,34.1A.41.41,0,0,0,72,34h0a.64.64,0,0,0,0,.6.41.41,0,0,0,.48.1h0a.7.7,0,0,0,0-.6" transform="translate(0.5 -4.5)"/><rect id="Rectangle_1500" data-name="Rectangle 1500" class="cls-4" x="74.42" y="32.2" width="0.19" height="1.8"/><path id="Path_11714" data-name="Path 11714" class="cls-4" d="M74.4,38.5c0,.2-.19.3-.38.3s-.29-.2-.29-.4.19-.3.39-.3.28.2.28.4" transform="translate(0.5 -4.5)"/><path id="Path_11715" data-name="Path 11715" class="cls-4" d="M74.4,36.7c0-.2-.19-.3-.38-.3s-.29.2-.29.4.19.3.39.3a.41.41,0,0,0,.28-.4" transform="translate(0.5 -4.5)"/><rect id="Rectangle_1501" data-name="Rectangle 1501" class="cls-4" x="72.69" y="32" width="1.83" height="0.3"/><path id="Path_11716" data-name="Path 11716" class="cls-4" d="M74.12,36.3a.36.36,0,0,1,.38.4.36.36,0,0,1-.38.4c-.29,0-.39-.1-.39-.4h0a.36.36,0,0,1,.39-.4" transform="translate(0.5 -4.5)"/><path id="Path_11717" data-name="Path 11717" class="cls-4" d="M72.19,36.3a.4.4,0,0,0,0,.8c.29,0,.38-.1.38-.4h0a.42.42,0,0,0-.38-.4" transform="translate(0.5 -4.5)"/><rect id="Rectangle_1502" data-name="Rectangle 1502" class="cls-4" x="69.89" y="33.8" width="2.79" height="0.3"/><path id="Path_11718" data-name="Path 11718" class="cls-4" d="M69.39,38.9a.4.4,0,0,1,0-.8c.29,0,.39.1.39.4h0a.42.42,0,0,1-.39.4" transform="translate(0.5 -4.5)"/><path id="Path_11719" data-name="Path 11719" class="cls-4" d="M72.19,38.9a.4.4,0,0,0,0-.8c-.29,0-.39.1-.39.4h0c.1.2.2.4.39.4" transform="translate(0.5 -4.5)"/><rect id="Rectangle_1503" data-name="Rectangle 1503" class="cls-4" x="69.8" y="34" width="0.19" height="2.8"/><path id="Path_11720" data-name="Path 11720" class="cls-4" d="M69.78,41.3c0,.2-.19.3-.39.3s-.29-.2-.29-.4.2-.3.39-.3.29.2.29.4" transform="translate(0.5 -4.5)"/><path id="Path_11721" data-name="Path 11721" class="cls-4" d="M69.78,38.5c0-.2-.19-.3-.39-.3s-.29.2-.29.4.2.3.39.3.29-.2.29-.4" transform="translate(0.5 -4.5)"/><rect id="Rectangle_1504" data-name="Rectangle 1504" class="cls-4" x="69.03" y="36.6" width="0.87" height="0.3"/><path id="Path_11722" data-name="Path 11722" class="cls-4" d="M68.53,41.7a.36.36,0,0,1-.39-.4.36.36,0,0,1,.39-.4c.28,0,.38.1.38.4h0a.42.42,0,0,1-.38.4" transform="translate(0.5 -4.5)"/><path id="Path_11723" data-name="Path 11723" class="cls-4" d="M69.39,41.7a.36.36,0,0,0,.39-.4.36.36,0,0,0-.39-.4c-.29,0-.38.1-.38.4h0c.09.2.19.4.38.4" transform="translate(0.5 -4.5)"/><rect id="Rectangle_1505" data-name="Rectangle 1505" class="cls-4" x="68.93" y="36.8" width="0.19" height="21.3"/><path id="Path_11724" data-name="Path 11724" class="cls-4" d="M68.91,62.5c0,.2-.19.3-.38.3s-.29-.2-.29-.4.19-.3.38-.3.29.2.29.4" transform="translate(0.5 -4.5)"/><path id="Path_11725" data-name="Path 11725" class="cls-4" d="M68.91,41.3c0-.2-.19-.3-.38-.3s-.29.2-.29.4.19.3.38.3.29-.2.29-.4" transform="translate(0.5 -4.5)"/><path id="Path_11726" data-name="Path 11726" class="cls-4" d="M70.45,36.8l1.83-2.2-.19-.2-1.83,2.2Z" transform="translate(0.5 -4.5)"/><path id="Path_11727" data-name="Path 11727" class="cls-4" d="M70.65,36.9a.42.42,0,0,1-.49.1h0a.7.7,0,0,1,0-.6.42.42,0,0,1,.49-.1h0a.69.69,0,0,1,0,.6" transform="translate(0.5 -4.5)"/><path id="Path_11728" data-name="Path 11728" class="cls-4" d="M72.48,34.7a.7.7,0,0,0,0-.6.31.31,0,0,0-.48,0h0a.64.64,0,0,0,0,.6.31.31,0,0,0,.48,0h0" transform="translate(0.5 -4.5)"/><rect id="Rectangle_1506" data-name="Rectangle 1506" class="cls-4" x="70.76" y="32.2" width="0.19" height="1.8"/><path id="Path_11729" data-name="Path 11729" class="cls-4" d="M70.74,38.5c0,.2-.19.3-.38.3s-.29-.2-.29-.4.19-.3.38-.3.29.2.29.4" transform="translate(0.5 -4.5)"/><path id="Path_11730" data-name="Path 11730" class="cls-4" d="M70.74,36.7c0-.2-.19-.3-.38-.3s-.29.2-.29.4.19.3.38.3.29-.2.29-.4" transform="translate(0.5 -4.5)"/><rect id="Rectangle_1507" data-name="Rectangle 1507" class="cls-4" x="70.86" y="32" width="1.83" height="0.3"/><path id="Path_11731" data-name="Path 11731" class="cls-4" d="M70.36,37.1a.36.36,0,0,1-.39-.4.36.36,0,0,1,.39-.4c.29,0,.38.1.38.4h0c0,.2-.19.3-.38.4" transform="translate(0.5 -4.5)"/><path id="Path_11732" data-name="Path 11732" class="cls-4" d="M72.19,37.1a.4.4,0,0,0,0-.8c-.29,0-.39.1-.39.4h0a.8.8,0,0,0,.39.4" transform="translate(0.5 -4.5)"/><rect id="Rectangle_1508" data-name="Rectangle 1508" class="cls-4" x="64.5" y="40.8" width="0.19" height="16"/><path id="Path_11733" data-name="Path 11733" class="cls-4" d="M63.8,45.3c0-.2.2-.3.39-.3s.29.2.29.4-.2.3-.39.3-.29-.2-.29-.4" transform="translate(0.5 -4.5)"/><path id="Path_11734" data-name="Path 11734" class="cls-4" d="M63.8,61.3c0,.2.2.3.39.3s.29-.2.29-.4-.2-.3-.39-.3-.29.2-.29.4" transform="translate(0.5 -4.5)"/><rect id="Rectangle_1509" data-name="Rectangle 1509" class="cls-4" x="64.59" y="40.6" width="3.18" height="0.3"/><path id="Path_11735" data-name="Path 11735" class="cls-4" d="M67.27,44.9a.36.36,0,0,1,.39.4.36.36,0,0,1-.39.4c-.29,0-.38-.1-.38-.4h0a.42.42,0,0,1,.38-.4" transform="translate(0.5 -4.5)"/><path id="Path_11736" data-name="Path 11736" class="cls-4" d="M64.09,44.9a.4.4,0,0,0,0,.8c.29,0,.39-.1.39-.4h0a.43.43,0,0,0-.39-.4" transform="translate(0.5 -4.5)"/><rect id="Rectangle_1510" data-name="Rectangle 1510" class="cls-4" x="67.68" y="40.8" width="0.19" height="16.9"/><path id="Path_11737" data-name="Path 11737" class="cls-4" d="M67.66,62.2c0,.2-.19.3-.39.3s-.29-.2-.29-.4.2-.3.39-.3.29.2.29.4" transform="translate(0.5 -4.5)"/><path id="Path_11738" data-name="Path 11738" class="cls-4" d="M67.66,45.3c0-.2-.19-.3-.39-.3s-.29.2-.29.4.2.3.39.3.29-.2.29-.4" transform="translate(0.5 -4.5)"/><path id="Path_11739" data-name="Path 11739" class="cls-4" d="M64.67,44.5l.39.8.19-.1-.39-.8Z" transform="translate(0.5 -4.5)"/><path id="Path_11740" data-name="Path 11740" class="cls-4" d="M64.48,44.7a.46.46,0,0,1,.09-.5.42.42,0,0,1,.49.1h0a.46.46,0,0,1-.1.5c-.19.1-.39.1-.48-.1h0" transform="translate(0.5 -4.5)"/><path id="Path_11741" data-name="Path 11741" class="cls-4" d="M64.86,45.5a.39.39,0,0,0,.39.2h0a.37.37,0,0,0,.1-.5A.39.39,0,0,0,65,45h0c-.1,0-.19.3-.1.5" transform="translate(0.5 -4.5)"/><path id="Path_11742" data-name="Path 11742" class="cls-4" d="M65.15,43.4l-.48,1,.19.1.49-1Z" transform="translate(0.5 -4.5)"/><path id="Path_11743" data-name="Path 11743" class="cls-4" d="M65,43.2a.39.39,0,0,1,.39-.2h0a.35.35,0,0,1,.09.5.37.37,0,0,1-.38.2h0c-.1,0-.2-.3-.1-.5" transform="translate(0.5 -4.5)"/><path id="Path_11744" data-name="Path 11744" class="cls-4" d="M64.48,44.3a.46.46,0,0,0,.09.5c.2.1.39.1.49-.1h0a.46.46,0,0,0-.1-.5c-.19-.2-.39-.1-.48.1h0" transform="translate(0.5 -4.5)"/><rect id="Rectangle_1511" data-name="Rectangle 1511" class="cls-4" x="65.85" y="38.8" width="0.87" height="0.3"/><path id="Path_11745" data-name="Path 11745" class="cls-4" d="M66.12,43a.4.4,0,0,1,0,.8c-.29,0-.39-.1-.39-.4h0c.1-.2.19-.4.39-.4" transform="translate(0.5 -4.5)"/><path id="Path_11746" data-name="Path 11746" class="cls-4" d="M65.35,43a.36.36,0,0,0-.39.4.36.36,0,0,0,.39.4c.28,0,.38-.1.38-.4h0c-.1-.2-.19-.4-.38-.4" transform="translate(0.5 -4.5)"/><path id="Path_11747" data-name="Path 11747" class="cls-4" d="M66.79,44.3l-.58-.9-.19.2.58.9Z" transform="translate(0.5 -4.5)"/><path id="Path_11748" data-name="Path 11748" class="cls-4" d="M67,44.1a.48.48,0,0,1-.09.6.42.42,0,0,1-.48,0h0a.48.48,0,0,1,.09-.6c.19-.2.39-.2.48,0h0" transform="translate(0.5 -4.5)"/><path id="Path_11749" data-name="Path 11749" class="cls-4" d="M66.41,43.2a.24.24,0,0,0-.39-.1h0c-.19.1-.19.4-.1.6a.24.24,0,0,0,.39.1h0a.5.5,0,0,0,.1-.6" transform="translate(0.5 -4.5)"/><path id="Path_11750" data-name="Path 11750" class="cls-4" d="M66.41,45.3l.38-.9-.19-.1-.39.9Z" transform="translate(0.5 -4.5)"/><path id="Path_11751" data-name="Path 11751" class="cls-4" d="M66.6,45.5c-.1.2-.29.3-.39.2h0c-.19-.1-.19-.3-.19-.5s.29-.3.39-.2h0c.28,0,.28.3.19.5" transform="translate(0.5 -4.5)"/><path id="Path_11752" data-name="Path 11752" class="cls-4" d="M67.08,44.5a.37.37,0,0,0-.19-.5.41.41,0,0,0-.48.1h0a.37.37,0,0,0,.19.5c.09.2.38.2.48-.1-.1.1,0,.1,0,0" transform="translate(0.5 -4.5)"/><path id="Path_11753" data-name="Path 11753" class="cls-4" d="M56.77,46.2V59.4H57V46.2" transform="translate(0.5 -4.5)"/><path id="Path_11754" data-name="Path 11754" class="cls-4" d="M56.57,46.2c0-.2.2-.3.39-.3s.29.2.29.4-.19.3-.39.3-.29-.2-.29-.4" transform="translate(0.5 -4.5)"/><path id="Path_11755" data-name="Path 11755" class="cls-4" d="M56.57,59.4c0,.2.2.3.39.3s.29-.2.29-.4-.19-.3-.39-.3-.29.2-.29.4" transform="translate(0.5 -4.5)"/><path id="Path_11756" data-name="Path 11756" class="cls-4" d="M58.89,43.7l-2,2.4.2.2,2-2.4Z" transform="translate(0.5 -4.5)"/><path id="Path_11757" data-name="Path 11757" class="cls-4" d="M58.69,43.5a.32.32,0,0,1,.49,0h0a.7.7,0,0,1,0,.6.32.32,0,0,1-.49,0h0a.7.7,0,0,1,0-.6" transform="translate(0.5 -4.5)"/><path id="Path_11758" data-name="Path 11758" class="cls-4" d="M56.67,45.9a.64.64,0,0,0,0,.6.31.31,0,0,0,.48,0h0a.64.64,0,0,0,0-.6.41.41,0,0,0-.48,0h0" transform="translate(0.5 -4.5)"/><rect id="Rectangle_1512" data-name="Rectangle 1512" class="cls-4" x="59.29" y="27.5" width="0.19" height="11.8"/><path id="Path_11759" data-name="Path 11759" class="cls-4" d="M58.6,32c0-.2.19-.3.38-.3s.29.2.29.4-.19.3-.38.3-.29-.1-.29-.4" transform="translate(0.5 -4.5)"/><path id="Path_11760" data-name="Path 11760" class="cls-4" d="M58.6,43.8c0,.2.19.3.38.3s.29-.2.29-.4-.19-.3-.38-.3-.29.2-.29.4" transform="translate(0.5 -4.5)"/><path id="Path_11761" data-name="Path 11761" class="cls-4" d="M62.84,26.3l-4,5.7.19.2,4.05-5.6Z" transform="translate(0.5 -4.5)"/><path id="Path_11762" data-name="Path 11762" class="cls-4" d="M62.65,26.2c.09-.1.29-.2.38-.1h.1c.09.2.19.4,0,.6s-.29.2-.39.1h-.09a.63.63,0,0,1,0-.6" transform="translate(0.5 -4.5)"/><path id="Path_11763" data-name="Path 11763" class="cls-4" d="M58.69,31.8a.7.7,0,0,0,0,.6.43.43,0,0,0,.49,0h0a.7.7,0,0,0,0-.6c-.1-.2-.29-.2-.49,0h0" transform="translate(0.5 -4.5)"/><rect id="Rectangle_1513" data-name="Rectangle 1513" class="cls-4" x="63.34" y="21.9" width="0.19" height="34.5"/><path id="Path_11764" data-name="Path 11764" class="cls-4" d="M63.32,61c0,.2-.19.3-.38.3s-.29-.2-.29-.4.19-.3.38-.3.29.1.29.4" transform="translate(0.5 -4.5)"/><path id="Path_11765" data-name="Path 11765" class="cls-4" d="M63.32,26.4c0-.2-.19-.3-.38-.3s-.29.2-.29.4.19.3.38.3.29-.2.29-.4" transform="translate(0.5 -4.5)"/><path id="Path_11766" data-name="Path 11766" class="cls-4" d="M54.84,41.5V59H55V41.5" transform="translate(0.5 -4.5)"/><path id="Path_11767" data-name="Path 11767" class="cls-4" d="M54.65,41.5c0-.2.19-.3.38-.3s.29.2.29.4-.19.3-.38.3a.29.29,0,0,1-.29-.4" transform="translate(0.5 -4.5)"/><path id="Path_11768" data-name="Path 11768" class="cls-4" d="M54.65,59c0,.2.19.3.38.3s.29-.2.29-.4-.19-.3-.38-.3a.29.29,0,0,0-.29.4" transform="translate(0.5 -4.5)"/><path id="Path_11769" data-name="Path 11769" class="cls-4" d="M56.86,39.1l-1.92,2.3.19.2,1.93-2.3" transform="translate(0.5 -4.5)"/><path id="Path_11770" data-name="Path 11770" class="cls-4" d="M56.67,38.9a.31.31,0,0,1,.48,0h0a.64.64,0,0,1,0,.6.31.31,0,0,1-.48,0h0a.64.64,0,0,1,0-.6" transform="translate(0.5 -4.5)"/><path id="Path_11771" data-name="Path 11771" class="cls-4" d="M54.74,41.2a.7.7,0,0,0,0,.6.32.32,0,0,0,.49,0h0a.7.7,0,0,0,0-.6.44.44,0,0,0-.49,0h0" transform="translate(0.5 -4.5)"/><path id="Path_11772" data-name="Path 11772" class="cls-4" d="M56.77,25.7V39.2H57V25.7" transform="translate(0.5 -4.5)"/><path id="Path_11773" data-name="Path 11773" class="cls-4" d="M56.57,25.7c0-.2.2-.3.39-.3s.29.2.29.4-.19.3-.39.3-.29-.2-.29-.4" transform="translate(0.5 -4.5)"/><path id="Path_11774" data-name="Path 11774" class="cls-4" d="M56.57,39.2c0,.2.2.3.39.3s.29-.2.29-.4-.19-.3-.39-.3-.29.2-.29.4" transform="translate(0.5 -4.5)"/><path id="Path_11775" data-name="Path 11775" class="cls-4" d="M60.53,29.8,57,25.6l-.1.2L60.43,30Z" transform="translate(0.5 -4.5)"/><path id="Path_11776" data-name="Path 11776" class="cls-4" d="M60.72,29.6a.64.64,0,0,1,0,.6.31.31,0,0,1-.48,0h0a.64.64,0,0,1,0-.6.31.31,0,0,1,.48,0h0" transform="translate(0.5 -4.5)"/><path id="Path_11777" data-name="Path 11777" class="cls-4" d="M57.15,25.4a.31.31,0,0,0-.48,0h0a.64.64,0,0,0,0,.6.31.31,0,0,0,.48,0h0a.63.63,0,0,0,0-.6" transform="translate(0.5 -4.5)"/><path id="Path_11778" data-name="Path 11778" class="cls-4" d="M49.83,55.1l-2.89,2.6.09.2,2.89-2.6" transform="translate(0.5 -4.5)"/><path id="Path_11779" data-name="Path 11779" class="cls-4" d="M49.73,54.9a.42.42,0,0,1,.48,0h0a.48.48,0,0,1-.09.6.42.42,0,0,1-.48,0v-.1a.35.35,0,0,1,.09-.5" transform="translate(0.5 -4.5)"/><path id="Path_11780" data-name="Path 11780" class="cls-4" d="M46.84,57.5c-.19.1-.19.4-.1.6a.24.24,0,0,0,.39.1h0c.19-.1.19-.4.1-.6s-.2-.2-.39-.1h0" transform="translate(0.5 -4.5)"/><path id="Path_11781" data-name="Path 11781" class="cls-4" d="M52.82,51l-3,4.2.19.2,3-4.2" transform="translate(0.5 -4.5)"/><path id="Path_11782" data-name="Path 11782" class="cls-4" d="M52.62,50.8a.41.41,0,0,1,.48-.1h0a.37.37,0,0,1,0,.6.41.41,0,0,1-.48.1h0a.7.7,0,0,1,0-.6" transform="translate(0.5 -4.5)"/><path id="Path_11783" data-name="Path 11783" class="cls-4" d="M49.64,54.9a.64.64,0,0,0,0,.6c.09.1.28.1.48,0v-.1a.7.7,0,0,0,0-.6,1,1,0,0,0-.48.1h0" transform="translate(0.5 -4.5)"/><path id="Path_11784" data-name="Path 11784" class="cls-4" d="M53,58.6V51h-.19v7.6" transform="translate(0.5 -4.5)"/><path id="Path_11785" data-name="Path 11785" class="cls-4" d="M53.2,58.6c0,.2-.19.3-.38.3s-.29-.2-.29-.4.19-.3.38-.3.29.2.29.4" transform="translate(0.5 -4.5)"/><path id="Path_11786" data-name="Path 11786" class="cls-4" d="M53.2,51c0-.2-.19-.3-.38-.3s-.29.2-.29.4.19.3.38.3.29-.2.29-.4" transform="translate(0.5 -4.5)"/><path id="Path_11787" data-name="Path 11787" class="cls-4" d="M50.79,42.2v2.3H51V42.2" transform="translate(0.5 -4.5)"/><path id="Path_11788" data-name="Path 11788" class="cls-4" d="M50.5,42.2c0-.2.2-.3.39-.3s.29.2.29.4-.2.3-.39.3a.45.45,0,0,1-.29-.4" transform="translate(0.5 -4.5)"/><path id="Path_11789" data-name="Path 11789" class="cls-4" d="M50.5,44.5c0,.2.2.3.39.3s.29-.2.29-.4-.2-.3-.39-.3-.29.2-.29.4" transform="translate(0.5 -4.5)"/><path id="Path_11790" data-name="Path 11790" class="cls-4" d="M49.54,41.1l1.25,1.3.1-.2-1.25-1.3" transform="translate(0.5 -4.5)"/><path id="Path_11791" data-name="Path 11791" class="cls-4" d="M49.35,41.3a.37.37,0,0,1,0-.6c.09-.2.29-.2.48-.1h0a.39.39,0,0,1,0,.6c-.1.2-.29.2-.48.1h0" transform="translate(0.5 -4.5)"/><path id="Path_11792" data-name="Path 11792" class="cls-4" d="M50.7,42.5c.09.1.28.1.48,0h0a.7.7,0,0,0,0-.6.42.42,0,0,0-.48,0V42a.28.28,0,0,0,0,.5" transform="translate(0.5 -4.5)"/><path id="Path_11793" data-name="Path 11793" class="cls-4" d="M49.15,38.9l.29,2.1h.2l-.29-2.1" transform="translate(0.5 -4.5)"/><path id="Path_11794" data-name="Path 11794" class="cls-4" d="M49,38.9a.56.56,0,0,1,.29-.5c.19,0,.39.1.39.3h0a.56.56,0,0,1-.29.5c-.2.1-.39-.1-.39-.3h0" transform="translate(0.5 -4.5)"/><path id="Path_11795" data-name="Path 11795" class="cls-4" d="M49.25,41c0,.2.19.3.39.3h0a.55.55,0,0,0,.28-.5c0-.2-.19-.3-.38-.3h0a.56.56,0,0,0-.29.5" transform="translate(0.5 -4.5)"/><path id="Path_11796" data-name="Path 11796" class="cls-4" d="M48.29,37.9l.86,1.1.2-.2-.87-1.1" transform="translate(0.5 -4.5)"/><path id="Path_11797" data-name="Path 11797" class="cls-4" d="M48.09,38a.7.7,0,0,1,0-.6.32.32,0,0,1,.49,0h0a.7.7,0,0,1,0,.6c-.1.2-.29.2-.49,0,.1.1,0,.1,0,0" transform="translate(0.5 -4.5)"/><path id="Path_11798" data-name="Path 11798" class="cls-4" d="M49.06,39.1a.41.41,0,0,0,.48.1h0a.64.64,0,0,0,0-.6.41.41,0,0,0-.48-.1h0c-.2.2-.2.5,0,.6" transform="translate(0.5 -4.5)"/><path id="Path_11799" data-name="Path 11799" class="cls-4" d="M48.48,48.5V35.3h-.19V48.6" transform="translate(0.5 -4.5)"/><path id="Path_11800" data-name="Path 11800" class="cls-4" d="M48.67,48.5c0,.2-.19.3-.38.3s-.29-.2-.29-.4.19-.3.38-.3.29.2.29.4" transform="translate(0.5 -4.5)"/><path id="Path_11801" data-name="Path 11801" class="cls-4" d="M48.67,35.3c0-.2-.19-.3-.38-.3s-.29.2-.29.4.19.3.38.3.29-.2.29-.4" transform="translate(0.5 -4.5)"/><path id="Path_11802" data-name="Path 11802" class="cls-4" d="M49.54,45.8l-1.25,2.7.19.1,1.25-2.7" transform="translate(0.5 -4.5)"/><path id="Path_11803" data-name="Path 11803" class="cls-4" d="M49.35,45.7c.09-.2.29-.3.38-.2h0a.37.37,0,0,1,.1.5c-.1.2-.29.3-.39.2h0a.35.35,0,0,1-.09-.5" transform="translate(0.5 -4.5)"/><path id="Path_11804" data-name="Path 11804" class="cls-4" d="M48.09,48.3a.46.46,0,0,0,.1.5.41.41,0,0,0,.48-.1h0a.46.46,0,0,0-.09-.5c-.2-.1-.39-.1-.49.1h0" transform="translate(0.5 -4.5)"/><path id="Path_11805" data-name="Path 11805" class="cls-4" d="M51.47,43.8l-1.93,1.9.19.2L51.66,44" transform="translate(0.5 -4.5)"/><path id="Path_11806" data-name="Path 11806" class="cls-4" d="M51.27,43.6a.43.43,0,0,1,.49,0h0a.7.7,0,0,1,0,.6.43.43,0,0,1-.49,0h0c-.19-.2-.09-.4,0-.6" transform="translate(0.5 -4.5)"/><path id="Path_11807" data-name="Path 11807" class="cls-4" d="M49.35,45.5c-.1.2-.2.4,0,.6a.41.41,0,0,0,.48.1h0c.09-.2.19-.4,0-.6s-.29-.2-.48-.1h0" transform="translate(0.5 -4.5)"/><path id="Path_11808" data-name="Path 11808" class="cls-4" d="M51.66,53V44h-.19v9" transform="translate(0.5 -4.5)"/><path id="Path_11809" data-name="Path 11809" class="cls-4" d="M51.85,53c0,.2-.19.3-.38.3s-.29-.2-.29-.4.19-.3.38-.3.29.1.29.4" transform="translate(0.5 -4.5)"/><path id="Path_11810" data-name="Path 11810" class="cls-4" d="M51.85,43.9c0-.2-.19-.3-.38-.3s-.29.2-.29.4.19.3.38.3.29-.2.29-.4" transform="translate(0.5 -4.5)"/><path id="Path_11811" data-name="Path 11811" class="cls-4" d="M49.64,49.9,51.37,53l.19-.1-1.73-3.1" transform="translate(0.5 -4.5)"/><path id="Path_11812" data-name="Path 11812" class="cls-4" d="M49.44,50a.5.5,0,0,1,.1-.6.33.33,0,0,1,.48.1h0a.47.47,0,0,1-.1.6c-.09.2-.28.1-.48-.1h0" transform="translate(0.5 -4.5)"/><path id="Path_11813" data-name="Path 11813" class="cls-4" d="M51.18,53.2a.23.23,0,0,0,.38.1h0c.2-.1.2-.4.1-.6a.24.24,0,0,0-.39-.1h0a.69.69,0,0,0-.09.6" transform="translate(0.5 -4.5)"/><path id="Path_11814" data-name="Path 11814" class="cls-4" d="M46.94,47.4l2.7,2.5.09-.2L47,47.2" transform="translate(0.5 -4.5)"/><path id="Path_11815" data-name="Path 11815" class="cls-4" d="M46.84,47.7c-.19-.1-.19-.4-.1-.6a.24.24,0,0,1,.39-.1h0c.19.1.19.4.1.6s-.2.2-.39.1h0" transform="translate(0.5 -4.5)"/><path id="Path_11816" data-name="Path 11816" class="cls-4" d="M49.54,50.1a.42.42,0,0,0,.48,0h0a.47.47,0,0,0-.1-.6c-.09-.1-.28-.1-.48,0h0a.64.64,0,0,0,.1.6" transform="translate(0.5 -4.5)"/><path id="Path_11817" data-name="Path 11817" class="cls-4" d="M47.13,57.8V47.3h-.19V57.8" transform="translate(0.5 -4.5)"/><path id="Path_11818" data-name="Path 11818" class="cls-4" d="M47.42,57.8c0,.2-.19.3-.39.3s-.29-.2-.29-.4.2-.3.39-.3.29.2.29.4" transform="translate(0.5 -4.5)"/><path id="Path_11819" data-name="Path 11819" class="cls-4" d="M47.42,47.3c0-.2-.19-.3-.39-.3s-.29.2-.29.4.2.3.39.3.29-.1.29-.4" transform="translate(0.5 -4.5)"/><path id="Path_11820" data-name="Path 11820" class="cls-4" d="M38.46,44.4V58.2h.19V44.4" transform="translate(0.5 -4.5)"/><path id="Path_11821" data-name="Path 11821" class="cls-4" d="M38.26,44.4c0-.2.2-.3.39-.3s.29.2.29.4-.2.3-.39.3-.29-.2-.29-.4" transform="translate(0.5 -4.5)"/><path id="Path_11822" data-name="Path 11822" class="cls-4" d="M38.26,58.2c0,.2.2.3.39.3s.29-.2.29-.4-.2-.3-.39-.3-.29.2-.29.4" transform="translate(0.5 -4.5)"/><path id="Path_11823" data-name="Path 11823" class="cls-4" d="M39.9,48.1l-1.25-3.8-.19.1,1.25,3.8" transform="translate(0.5 -4.5)"/><path id="Path_11824" data-name="Path 11824" class="cls-4" d="M40.09,48a.37.37,0,0,1-.19.5.24.24,0,0,1-.38-.2h0a.37.37,0,0,1,.19-.5.24.24,0,0,1,.38.2h0" transform="translate(0.5 -4.5)"/><path id="Path_11825" data-name="Path 11825" class="cls-4" d="M38.94,44.2a.25.25,0,0,0-.39-.2h0a.37.37,0,0,0-.19.5.24.24,0,0,0,.38.2h0a.37.37,0,0,0,.2-.5" transform="translate(0.5 -4.5)"/><path id="Path_11826" data-name="Path 11826" class="cls-4" d="M41.92,51.3l-2-3.3-.19.2,2,3.2" transform="translate(0.5 -4.5)"/><path id="Path_11827" data-name="Path 11827" class="cls-4" d="M42.12,51.1a.5.5,0,0,1-.1.6.42.42,0,0,1-.48,0h0a.47.47,0,0,1,.1-.6c.19-.2.38-.2.48,0h0" transform="translate(0.5 -4.5)"/><path id="Path_11828" data-name="Path 11828" class="cls-4" d="M40.09,47.9a.23.23,0,0,0-.38-.1h0c-.19.1-.19.4-.1.6a.24.24,0,0,0,.39.1h0a.48.48,0,0,0,.09-.6" transform="translate(0.5 -4.5)"/><path id="Path_11829" data-name="Path 11829" class="cls-4" d="M44.72,54.4l-2.8-3.2-.19.2,2.8,3.2" transform="translate(0.5 -4.5)"/><path id="Path_11830" data-name="Path 11830" class="cls-4" d="M44.91,54.2a.64.64,0,0,1,0,.6.41.41,0,0,1-.48.1h0a.64.64,0,0,1,0-.6c.1-.2.29-.2.48-.1h0" transform="translate(0.5 -4.5)"/><path id="Path_11831" data-name="Path 11831" class="cls-4" d="M42.12,51a.31.31,0,0,0-.48,0h0a.64.64,0,0,0,0,.6.31.31,0,0,0,.48,0h0a.7.7,0,0,0,0-.6" transform="translate(0.5 -4.5)"/><path id="Path_11832" data-name="Path 11832" class="cls-4" d="M45.2,57.8l-.38-3.3h-.2L45,57.8" transform="translate(0.5 -4.5)"/><path id="Path_11833" data-name="Path 11833" class="cls-4" d="M45.39,57.8a.55.55,0,0,1-.28.5c-.2,0-.39-.1-.39-.3h0a.56.56,0,0,1,.29-.5c.19-.1.38.1.38.3h0" transform="translate(0.5 -4.5)"/><path id="Path_11834" data-name="Path 11834" class="cls-4" d="M45,54.4c0-.2-.19-.4-.39-.3h0c-.19,0-.29.2-.29.5s.2.4.39.3h0a.56.56,0,0,0,.29-.5" transform="translate(0.5 -4.5)"/><path id="Path_11835" data-name="Path 11835" class="cls-4" d="M39.61,41v6.8h.19V41" transform="translate(0.5 -4.5)"/><path id="Path_11836" data-name="Path 11836" class="cls-4" d="M39.42,41c0-.2.19-.3.38-.3s.29.2.29.4-.19.3-.38.3-.29-.2-.29-.4" transform="translate(0.5 -4.5)"/><path id="Path_11837" data-name="Path 11837" class="cls-4" d="M39.42,47.7c0,.2.19.3.38.3s.29-.2.29-.4-.19-.3-.38-.3-.29.2-.29.4" transform="translate(0.5 -4.5)"/><path id="Path_11838" data-name="Path 11838" class="cls-4" d="M40.48,43.4l-.68-2.5-.19.1.68,2.5" transform="translate(0.5 -4.5)"/><path id="Path_11839" data-name="Path 11839" class="cls-4" d="M40.77,43.3a.38.38,0,0,1-.19.5c-.2.1-.39,0-.39-.2h0a.37.37,0,0,1,.19-.5c.1-.1.29,0,.39.2h0" transform="translate(0.5 -4.5)"/><path id="Path_11840" data-name="Path 11840" class="cls-4" d="M40.09,40.8c0-.2-.19-.3-.38-.3h0a.37.37,0,0,0-.19.5c0,.2.19.3.38.3h0a.76.76,0,0,0,.19-.5" transform="translate(0.5 -4.5)"/><path id="Path_11841" data-name="Path 11841" class="cls-4" d="M42.12,45.2l-1.64-1.9-.19.2,1.63,1.8" transform="translate(0.5 -4.5)"/><path id="Path_11842" data-name="Path 11842" class="cls-4" d="M42.31,45a.64.64,0,0,1,0,.6.41.41,0,0,1-.48.1h0a.64.64,0,0,1,0-.6c.09-.2.29-.3.48-.1h0" transform="translate(0.5 -4.5)"/><path id="Path_11843" data-name="Path 11843" class="cls-4" d="M40.67,43.1a.41.41,0,0,0-.48,0h0a.64.64,0,0,0,0,.6.42.42,0,0,0,.48,0h0a.64.64,0,0,0,0-.6" transform="translate(0.5 -4.5)"/><path id="Path_11844" data-name="Path 11844" class="cls-4" d="M43.76,46.2,42,45.2l-.1.2,1.74,1" transform="translate(0.5 -4.5)"/><path id="Path_11845" data-name="Path 11845" class="cls-4" d="M43.85,46c.2.1.2.3.1.5s-.29.3-.39.2h0c-.19-.1-.19-.3-.09-.5a.24.24,0,0,1,.38-.2h0" transform="translate(0.5 -4.5)"/><path id="Path_11846" data-name="Path 11846" class="cls-4" d="M42.21,44.9a.41.41,0,0,0-.48.1h0a.46.46,0,0,0,.1.5.41.41,0,0,0,.48-.1h0a.35.35,0,0,0-.1-.5" transform="translate(0.5 -4.5)"/><path id="Path_11847" data-name="Path 11847" class="cls-4" d="M44.43,54.1l-.58-7.8h-.19l.58,7.8" transform="translate(0.5 -4.5)"/><path id="Path_11848" data-name="Path 11848" class="cls-4" d="M44.62,54.1c0,.2-.09.4-.29.4a.42.42,0,0,1-.38-.4h0c0-.2.1-.4.29-.4a.36.36,0,0,1,.38.4h0" transform="translate(0.5 -4.5)"/><path id="Path_11849" data-name="Path 11849" class="cls-4" d="M44.05,46.3a.43.43,0,0,0-.39-.4h0c-.19,0-.29.2-.29.4a.42.42,0,0,0,.39.4h0a.3.3,0,0,0,.29-.4" transform="translate(0.5 -4.5)"/><path id="Path_11850" data-name="Path 11850" class="cls-4" d="M43.08,38.3V46h.19V38.2" transform="translate(0.5 -4.5)"/><path id="Path_11851" data-name="Path 11851" class="cls-4" d="M42.89,38.3c0-.2.19-.3.38-.3s.29.2.29.4-.19.3-.38.3-.29-.2-.29-.4" transform="translate(0.5 -4.5)"/><path id="Path_11852" data-name="Path 11852" class="cls-4" d="M42.89,46c0,.2.19.3.38.3s.29-.2.29-.4-.19-.3-.38-.3-.29.2-.29.4" transform="translate(0.5 -4.5)"/><path id="Path_11853" data-name="Path 11853" class="cls-4" d="M41.35,39.7l1.92-1.4-.09-.2-1.93,1.4" transform="translate(0.5 -4.5)"/><path id="Path_11854" data-name="Path 11854" class="cls-4" d="M41.44,40c-.19.1-.38.1-.48-.1h0a.47.47,0,0,1,.1-.6.33.33,0,0,1,.48.1h0c.19.2.1.4-.1.6" transform="translate(0.5 -4.5)"/><path id="Path_11855" data-name="Path 11855" class="cls-4" d="M43.37,38.6c.19-.1.19-.4.1-.6a.39.39,0,0,0-.39-.2h0c-.19.1-.19.4-.09.6a.24.24,0,0,0,.38.2h0" transform="translate(0.5 -4.5)"/><path id="Path_11856" data-name="Path 11856" class="cls-4" d="M40.29,42.7l1.15-3-.19-.1-1.16,3" transform="translate(0.5 -4.5)"/><path id="Path_11857" data-name="Path 11857" class="cls-4" d="M40.48,42.8c0,.2-.19.3-.39.2h0a.37.37,0,0,1-.19-.5c.1-.2.19-.3.39-.2h0a.37.37,0,0,1,.19.5" transform="translate(0.5 -4.5)"/><path id="Path_11858" data-name="Path 11858" class="cls-4" d="M41.64,39.8a.37.37,0,0,0-.2-.5.24.24,0,0,0-.38.2h0a.37.37,0,0,0,.19.5c.1.1.29,0,.39-.2h0" transform="translate(0.5 -4.5)"/><path id="Path_11859" data-name="Path 11859" class="cls-4" d="M32.87,35.3,32.67,59h.2l.19-23.7" transform="translate(0.5 -4.5)"/><path id="Path_11860" data-name="Path 11860" class="cls-4" d="M32.58,35.3c0-.2.19-.3.38-.3s.29.2.29.4-.19.3-.38.3-.29-.2-.29-.4" transform="translate(0.5 -4.5)"/><path id="Path_11861" data-name="Path 11861" class="cls-4" d="M32.48,59c0,.2.19.3.39.3s.28-.2.28-.4-.19-.3-.38-.3-.39.1-.29.4" transform="translate(0.5 -4.5)"/><path id="Path_11862" data-name="Path 11862" class="cls-4" d="M33.83,33.3l-1.06,1.9.19.1L34,33.4" transform="translate(0.5 -4.5)"/><path id="Path_11863" data-name="Path 11863" class="cls-4" d="M33.64,33.2A.37.37,0,0,1,34,33h0c.19.1.19.4.1.6a.39.39,0,0,1-.39.2h0a.69.69,0,0,1-.09-.6" transform="translate(0.5 -4.5)"/><path id="Path_11864" data-name="Path 11864" class="cls-4" d="M32.67,35.1a.5.5,0,0,0,.1.6.33.33,0,0,0,.48-.1h0a.47.47,0,0,0-.1-.6c-.19-.2-.38-.1-.48.1h0" transform="translate(0.5 -4.5)"/><path id="Path_11865" data-name="Path 11865" class="cls-4" d="M35.08,35.2,34,33.3l-.19.1,1.06,1.9" transform="translate(0.5 -4.5)"/><path id="Path_11866" data-name="Path 11866" class="cls-4" d="M35.27,35.1a.48.48,0,0,1-.09.6.33.33,0,0,1-.48-.1h0a.48.48,0,0,1,.09-.6c.2-.2.39-.1.48.1h0" transform="translate(0.5 -4.5)"/><path id="Path_11867" data-name="Path 11867" class="cls-4" d="M34.21,33.2a.23.23,0,0,0-.38-.1h0c-.19.1-.19.4-.1.6a.24.24,0,0,0,.39.1h0a.49.49,0,0,0,.09-.6" transform="translate(0.5 -4.5)"/><path id="Path_11868" data-name="Path 11868" class="cls-4" d="M35.08,36.2v-.9h-.19v.9" transform="translate(0.5 -4.5)"/><path id="Path_11869" data-name="Path 11869" class="cls-4" d="M35.37,36.2c0,.2-.19.3-.38.3s-.29-.2-.29-.4.19-.3.38-.3.29.2.29.4" transform="translate(0.5 -4.5)"/><path id="Path_11870" data-name="Path 11870" class="cls-4" d="M35.37,35.3c0-.2-.19-.3-.38-.3s-.29.2-.29.4.19.3.38.3.29-.2.29-.4" transform="translate(0.5 -4.5)"/><path id="Path_11871" data-name="Path 11871" class="cls-4" d="M36.05,37.7l-1-1.6-.19.2,1,1.6" transform="translate(0.5 -4.5)"/><path id="Path_11872" data-name="Path 11872" class="cls-4" d="M36.24,37.5a.5.5,0,0,1-.1.6c-.09.1-.29.1-.48-.1h0a.47.47,0,0,1,.1-.6c.09-.1.29-.1.48.1h0" transform="translate(0.5 -4.5)"/><path id="Path_11873" data-name="Path 11873" class="cls-4" d="M35.27,35.9a.23.23,0,0,0-.38-.1h0c-.19.2-.29.4-.19.6a.23.23,0,0,0,.38.1h0a.4.4,0,0,0,.19-.6" transform="translate(0.5 -4.5)"/><path id="Path_11874" data-name="Path 11874" class="cls-4" d="M35.85,30.4v7.4h.2V30.4" transform="translate(0.5 -4.5)"/><path id="Path_11875" data-name="Path 11875" class="cls-4" d="M35.56,30.4c0-.2.2-.3.39-.3s.29.2.29.4-.19.3-.39.3-.29-.2-.29-.4" transform="translate(0.5 -4.5)"/><path id="Path_11876" data-name="Path 11876" class="cls-4" d="M35.56,37.8c0,.2.2.3.39.3s.29-.2.29-.4-.19-.3-.39-.3a.45.45,0,0,0-.29.4" transform="translate(0.5 -4.5)"/><path id="Path_11877" data-name="Path 11877" class="cls-4" d="M35,28l.86,2.4.2-.1-.87-2.4" transform="translate(0.5 -4.5)"/><path id="Path_11878" data-name="Path 11878" class="cls-4" d="M34.79,28.1a.37.37,0,0,1,.2-.5.24.24,0,0,1,.38.2h0a.37.37,0,0,1-.19.5.25.25,0,0,1-.39-.2h0" transform="translate(0.5 -4.5)"/><path id="Path_11879" data-name="Path 11879" class="cls-4" d="M35.66,30.5c.1.2.19.3.39.2h0a.38.38,0,0,0,.19-.5c-.1-.2-.19-.3-.39-.2h0a.37.37,0,0,0-.19.5" transform="translate(0.5 -4.5)"/><path id="Path_11880" data-name="Path 11880" class="cls-4" d="M36.53,22.7l-1.64,5.1.19.1,1.64-5.1" transform="translate(0.5 -4.5)"/><path id="Path_11881" data-name="Path 11881" class="cls-4" d="M36.33,22.6a.25.25,0,0,1,.39-.2h0a.37.37,0,0,1,.19.5.24.24,0,0,1-.38.2h0c-.2,0-.29-.3-.2-.5" transform="translate(0.5 -4.5)"/><path id="Path_11882" data-name="Path 11882" class="cls-4" d="M34.7,27.8a.37.37,0,0,0,.19.5.24.24,0,0,0,.38-.2h0a.37.37,0,0,0-.19-.5c-.09-.1-.29,0-.38.2h0" transform="translate(0.5 -4.5)"/><path id="Path_11883" data-name="Path 11883" class="cls-4" d="M38.17,27.8l-1.35-5.1-.2.1L38,27.9" transform="translate(0.5 -4.5)"/><path id="Path_11884" data-name="Path 11884" class="cls-4" d="M38.36,27.7a.37.37,0,0,1-.19.5c-.2.1-.39,0-.39-.2h0a.37.37,0,0,1,.19-.5c.1-.1.29,0,.39.2h0" transform="translate(0.5 -4.5)"/><path id="Path_11885" data-name="Path 11885" class="cls-4" d="M37,22.7c0-.2-.19-.3-.39-.3h0a.37.37,0,0,0-.19.5c0,.2.19.3.39.3h0a.81.81,0,0,0,.19-.5" transform="translate(0.5 -4.5)"/><path id="Path_11886" data-name="Path 11886" class="cls-4" d="M37.4,30.4l.77-2.5-.2-.1-.77,2.5" transform="translate(0.5 -4.5)"/><path id="Path_11887" data-name="Path 11887" class="cls-4" d="M37.59,30.5c0,.2-.19.3-.39.3h0a.37.37,0,0,1-.19-.5c0-.2.19-.3.39-.3h0a.38.38,0,0,1,.19.5" transform="translate(0.5 -4.5)"/><path id="Path_11888" data-name="Path 11888" class="cls-4" d="M38.36,28a.37.37,0,0,0-.19-.5c-.2-.1-.39,0-.39.2h0a.37.37,0,0,0,.19.5c.1.1.29,0,.39-.2h0" transform="translate(0.5 -4.5)"/><path id="Path_11889" data-name="Path 11889" class="cls-4" d="M37.4,58.3v-28h-.2v28" transform="translate(0.5 -4.5)"/><path id="Path_11890" data-name="Path 11890" class="cls-4" d="M37.68,58.3c0,.2-.19.3-.38.3s-.29-.2-.29-.4.19-.3.39-.3a.45.45,0,0,1,.28.4" transform="translate(0.5 -4.5)"/><path id="Path_11891" data-name="Path 11891" class="cls-4" d="M37.68,30.4c0-.2-.19-.3-.38-.3s-.29.2-.29.4.19.3.39.3.28-.2.28-.4" transform="translate(0.5 -4.5)"/><path id="Path_11892" data-name="Path 11892" class="cls-4" d="M31.81,42.9V59.1H32V42.9" transform="translate(0.5 -4.5)"/><path id="Path_11893" data-name="Path 11893" class="cls-4" d="M31.61,42.9c0-.2.2-.3.39-.3s.29.2.29.4-.2.3-.39.3-.29-.1-.29-.4" transform="translate(0.5 -4.5)"/><path id="Path_11894" data-name="Path 11894" class="cls-4" d="M31.61,59.1c0,.2.2.3.39.3s.29-.2.29-.4-.2-.3-.39-.3-.29.2-.29.4" transform="translate(0.5 -4.5)"/><path id="Path_11895" data-name="Path 11895" class="cls-4" d="M32.87,42l-1,.8.1.2,1-.8" transform="translate(0.5 -4.5)"/><path id="Path_11896" data-name="Path 11896" class="cls-4" d="M32.67,41.8a.42.42,0,0,1,.48,0h0a.48.48,0,0,1-.09.6.42.42,0,0,1-.48,0h0a.69.69,0,0,1,.09-.6" transform="translate(0.5 -4.5)"/><path id="Path_11897" data-name="Path 11897" class="cls-4" d="M31.71,42.6c-.19.1-.19.4-.1.6a.24.24,0,0,0,.39.1h0c.19-.1.19-.4.09-.6s-.19-.2-.38-.1h0" transform="translate(0.5 -4.5)"/><path id="Path_11898" data-name="Path 11898" class="cls-4" d="M30.94,45.6V59.3h.19V45.6" transform="translate(0.5 -4.5)"/><path id="Path_11899" data-name="Path 11899" class="cls-4" d="M30.74,45.6c0-.2.2-.3.39-.3s.29.2.29.4-.19.3-.39.3-.29-.2-.29-.4" transform="translate(0.5 -4.5)"/><path id="Path_11900" data-name="Path 11900" class="cls-4" d="M30.74,59.3c0,.2.2.3.39.3s.29-.2.29-.4-.19-.3-.39-.3-.29.2-.29.4" transform="translate(0.5 -4.5)"/><path id="Path_11901" data-name="Path 11901" class="cls-4" d="M31.9,44.7l-.87.8.1.2.87-.8" transform="translate(0.5 -4.5)"/><path id="Path_11902" data-name="Path 11902" class="cls-4" d="M31.71,44.5a.42.42,0,0,1,.48,0v.1a.47.47,0,0,1-.1.6c-.09.1-.28.1-.48,0v-.1a.64.64,0,0,1,.1-.6" transform="translate(0.5 -4.5)"/><path id="Path_11903" data-name="Path 11903" class="cls-4" d="M30.84,45.3c-.19.1-.19.4-.1.6a.24.24,0,0,0,.39.1h.1c.19-.1.19-.4.09-.6s-.29-.2-.48-.1h0" transform="translate(0.5 -4.5)"/><path id="Path_11904" data-name="Path 11904" class="cls-4" d="M26.31,51.4l-.38,8.8h.19l.38-8.8" transform="translate(0.5 -4.5)"/><path id="Path_11905" data-name="Path 11905" class="cls-4" d="M26.12,51.4a.42.42,0,0,1,.38-.4h0a.29.29,0,0,1,.29.4.42.42,0,0,1-.38.4h0c-.19,0-.39-.2-.29-.4" transform="translate(0.5 -4.5)"/><path id="Path_11906" data-name="Path 11906" class="cls-4" d="M25.73,60.2c0,.2.1.4.29.4a.42.42,0,0,0,.39-.4h0c0-.2-.1-.4-.29-.4a.36.36,0,0,0-.39.4h0" transform="translate(0.5 -4.5)"/><path id="Path_11907" data-name="Path 11907" class="cls-4" d="M27.37,44.8l-1.06,6.7h.19l1.06-6.7" transform="translate(0.5 -4.5)"/><path id="Path_11908" data-name="Path 11908" class="cls-4" d="M27.18,44.7c0-.2.19-.3.38-.3h0a.54.54,0,0,1,.29.5c0,.2-.19.3-.38.3h0c-.29-.1-.39-.3-.29-.5" transform="translate(0.5 -4.5)"/><path id="Path_11909" data-name="Path 11909" class="cls-4" d="M26.12,51.4a.56.56,0,0,0,.29.5c.19,0,.38-.1.38-.3h0a.54.54,0,0,0-.29-.5c-.19-.1-.38,0-.38.3h0" transform="translate(0.5 -4.5)"/><path id="Path_11910" data-name="Path 11910" class="cls-4" d="M26.6,40.5l.68,4.3.19-.1-.68-4.3" transform="translate(0.5 -4.5)"/><path id="Path_11911" data-name="Path 11911" class="cls-4" d="M26.41,40.6a.54.54,0,0,1,.29-.5c.19,0,.38.1.38.3h0a.54.54,0,0,1-.29.5c-.19,0-.38-.1-.38-.3h0" transform="translate(0.5 -4.5)"/><path id="Path_11912" data-name="Path 11912" class="cls-4" d="M27.18,44.9c0,.2.19.3.38.3h0a.54.54,0,0,0,.29-.5c0-.2-.19-.3-.38-.3h0a.34.34,0,0,0-.29.5" transform="translate(0.5 -4.5)"/><path id="Path_11913" data-name="Path 11913" class="cls-4" d="M27.47,37.2l-.77,3.2.19.1.77-3.2" transform="translate(0.5 -4.5)"/><path id="Path_11914" data-name="Path 11914" class="cls-4" d="M27.18,37.2c0-.2.19-.3.38-.3h0a.37.37,0,0,1,.2.5c0,.2-.2.3-.39.3h0a.81.81,0,0,1-.19-.5" transform="translate(0.5 -4.5)"/><path id="Path_11915" data-name="Path 11915" class="cls-4" d="M26.41,40.4a.37.37,0,0,0,.19.5.29.29,0,0,0,.39-.2h0a.37.37,0,0,0-.2-.5c-.09-.1-.29,0-.38.2h0" transform="translate(0.5 -4.5)"/><path id="Path_11916" data-name="Path 11916" class="cls-4" d="M28.91,40.1l-1.25-2.9-.19.1,1.25,2.9" transform="translate(0.5 -4.5)"/><path id="Path_11917" data-name="Path 11917" class="cls-4" d="M29.11,40a.46.46,0,0,1-.1.5.41.41,0,0,1-.48-.1h0a.46.46,0,0,1,.09-.5c.2-.2.39-.1.49.1h0" transform="translate(0.5 -4.5)"/><path id="Path_11918" data-name="Path 11918" class="cls-4" d="M27.85,37.1c-.09-.2-.29-.3-.38-.2h0c-.19.1-.19.3-.1.5s.29.3.39.2h0a.46.46,0,0,0,.09-.5" transform="translate(0.5 -4.5)"/><path id="Path_11919" data-name="Path 11919" class="cls-4" d="M28.34,43,29,40.2l-.19-.1-.68,2.8" transform="translate(0.5 -4.5)"/><path id="Path_11920" data-name="Path 11920" class="cls-4" d="M28.53,43c0,.2-.19.3-.39.3h0a.37.37,0,0,1-.19-.5c0-.2.19-.3.39-.3h0a.81.81,0,0,1,.19.5" transform="translate(0.5 -4.5)"/><path id="Path_11921" data-name="Path 11921" class="cls-4" d="M29.11,40.3c.09-.2-.1-.4-.2-.5s-.38.1-.38.3h0c-.1.2.09.4.19.5s.39-.1.39-.3h0" transform="translate(0.5 -4.5)"/><path id="Path_11922" data-name="Path 11922" class="cls-4" d="M29.59,49.7l-1.25-6.8-.29.1,1.25,6.8" transform="translate(0.5 -4.5)"/><path id="Path_11923" data-name="Path 11923" class="cls-4" d="M29.78,49.7c.1.2-.1.4-.29.5s-.38-.1-.38-.3h0c-.1-.2.09-.4.29-.5s.38,0,.38.3h0" transform="translate(0.5 -4.5)"/><path id="Path_11924" data-name="Path 11924" class="cls-4" d="M28.53,42.9c0-.2-.19-.3-.39-.3h0a.56.56,0,0,0-.29.5c0,.2.2.3.39.3h0a.56.56,0,0,0,.29-.5" transform="translate(0.5 -4.5)"/><path id="Path_11925" data-name="Path 11925" class="cls-4" d="M30.07,59.5l-.48-9.7H29.4l.48,9.7" transform="translate(0.5 -4.5)"/><path id="Path_11926" data-name="Path 11926" class="cls-4" d="M30.36,59.5c0,.2-.1.4-.29.4a.43.43,0,0,1-.39-.4h0c0-.2.1-.4.29-.4a.42.42,0,0,1,.39.4h0" transform="translate(0.5 -4.5)"/><path id="Path_11927" data-name="Path 11927" class="cls-4" d="M29.78,49.7a.42.42,0,0,0-.38-.4h0a.29.29,0,0,0-.29.4.42.42,0,0,0,.38.4h0c.19,0,.29-.2.29-.4" transform="translate(0.5 -4.5)"/><path id="Path_11928" data-name="Path 11928" class="cls-4" d="M27.56,44.8l.68-1.8-.19-.1-.68,1.8" transform="translate(0.5 -4.5)"/><path id="Path_11929" data-name="Path 11929" class="cls-4" d="M27.76,44.9c-.1.2-.2.3-.39.2h0a.37.37,0,0,1-.19-.5c.1-.2.19-.3.38-.2h0c.2.1.29.4.2.5" transform="translate(0.5 -4.5)"/><path id="Path_11930" data-name="Path 11930" class="cls-4" d="M28.53,43.1a.38.38,0,0,0-.19-.5c-.2-.1-.39,0-.39.2h0a.37.37,0,0,0,.19.5c.1.1.29,0,.39-.2h0" transform="translate(0.5 -4.5)"/><path id="Path_11931" data-name="Path 11931" class="cls-4" d="M59.56,23.4l-1.15,4.1.19.1,1.16-4.1Z" transform="translate(0.5 -4.5)"/><path id="Path_11932" data-name="Path 11932" class="cls-4" d="M59.37,23.3c0-.2.19-.3.39-.3h0a.38.38,0,0,1,.19.5c0,.2-.19.3-.39.3h0a.37.37,0,0,1-.19-.5" transform="translate(0.5 -4.5)"/><path id="Path_11933" data-name="Path 11933" class="cls-4" d="M58.12,27.4a.37.37,0,0,0,.19.5.24.24,0,0,0,.38-.2h0a.37.37,0,0,0-.19-.5c-.09-.1-.29,0-.38.2h0" transform="translate(0.5 -4.5)"/><path id="Path_11934" data-name="Path 11934" class="cls-4" d="M59.56,23.5l1.64,5.2.19-.1-1.63-5.2Z" transform="translate(0.5 -4.5)"/><path id="Path_11935" data-name="Path 11935" class="cls-4" d="M59.37,23.6a.37.37,0,0,1,.19-.5c.2-.1.39,0,.39.2h0a.38.38,0,0,1-.19.5c-.1.1-.29,0-.39-.2h0" transform="translate(0.5 -4.5)"/><path id="Path_11936" data-name="Path 11936" class="cls-4" d="M61,28.8a.24.24,0,0,0,.38.2h0c.29,0,.29-.3.29-.5a.24.24,0,0,0-.38-.2h0c-.29.1-.39.3-.29.5" transform="translate(0.5 -4.5)"/><path id="Path_11937" data-name="Path 11937" class="cls-4" d="M36.53,18.8v4h.19v-4" transform="translate(0.5 -4.5)"/><path id="Path_11938" data-name="Path 11938" class="cls-4" d="M36.33,18.8c0-.2.2-.3.39-.3s.29.2.29.4-.19.3-.39.3-.29-.2-.29-.4" transform="translate(0.5 -4.5)"/><path id="Path_11939" data-name="Path 11939" class="cls-4" d="M36.33,22.8c0,.2.2.3.39.3s.29-.2.29-.4-.19-.3-.39-.3-.29.2-.29.4" transform="translate(0.5 -4.5)"/><rect id="Rectangle_1514" data-name="Rectangle 1514" class="cls-4" x="72.59" y="27.5" width="0.19" height="2.4"/><path id="Path_11940" data-name="Path 11940" class="cls-4" d="M71.9,32c0-.2.19-.3.38-.3s.29.2.29.4-.19.3-.38.3-.29-.1-.29-.4" transform="translate(0.5 -4.5)"/><path id="Path_11941" data-name="Path 11941" class="cls-4" d="M71.9,34.4c0,.2.19.3.38.3s.29-.2.29-.4-.19-.3-.38-.3-.29.2-.29.4" transform="translate(0.5 -4.5)"/><rect id="Rectangle_1515" data-name="Rectangle 1515" class="cls-4" x="60.06" y="9.6" width="0.19" height="9.3"/><path id="Path_11942" data-name="Path 11942" class="cls-4" d="M59.37,14.1c0-.2.19-.3.39-.3s.28.2.28.4-.19.3-.38.3-.29-.2-.29-.4" transform="translate(0.5 -4.5)"/><path id="Path_11943" data-name="Path 11943" class="cls-4" d="M59.37,23.4c0,.2.19.3.39.3s.28-.2.28-.4-.19-.3-.38-.3-.29.2-.29.4" transform="translate(0.5 -4.5)"/><rect id="Rectangle_1516" data-name="Rectangle 1516" class="cls-4" x="92.83" y="31.7" width="0.19" height="2.6"/><path id="Path_11944" data-name="Path 11944" class="cls-4" d="M92.81,38.7c0,.2-.19.3-.38.3s-.29-.2-.29-.4.19-.3.38-.3.29.2.29.4" transform="translate(0.5 -4.5)"/><path id="Path_11945" data-name="Path 11945" class="cls-4" d="M92.81,36.2c0-.2-.19-.3-.38-.3s-.29.2-.29.4.19.3.38.3.29-.2.29-.4" transform="translate(0.5 -4.5)"/><path id="Path_11946" data-name="Path 11946" class="cls-4" d="M59.56,9.3v2.4h.2V9.3" transform="translate(0.5 -4.5)"/><path id="Path_11947" data-name="Path 11947" class="cls-4" d="M59.37,9.3c0-.2.19-.3.39-.3s.28.2.28.4-.19.3-.38.3-.29-.2-.29-.4" transform="translate(0.5 -4.5)"/><path id="Path_11948" data-name="Path 11948" class="cls-4" d="M59.37,11.7c0,.2.19.3.39.3s.28-.2.28-.4-.19-.3-.38-.3-.29.2-.29.4" transform="translate(0.5 -4.5)"/><rect id="Rectangle_1517" data-name="Rectangle 1517" class="cls-4" x="96.78" y="55.6" width="2.7" height="0.3"/><path id="Path_11949" data-name="Path 11949" class="cls-4" d="M96.28,60.6c-.19,0-.38-.1-.38-.3s.09-.4.29-.4.38.1.38.3h0a.29.29,0,0,1-.29.4" transform="translate(0.5 -4.5)"/><path id="Path_11950" data-name="Path 11950" class="cls-4" d="M99,60.6a.4.4,0,0,0,0-.8c-.29,0-.38.1-.38.4h0c.09.2.19.4.38.4" transform="translate(0.5 -4.5)"/></g></g></g></g><text class="cls-6" x="0.5" y="-4.5"/></g></svg>
